<svg width="58" height="58" viewBox="0 0 58 58" fill="none" xmlns="http://www.w3.org/2000/svg">
<path d="M10.2851 29.0017C10.2851 18.6677 18.6642 10.2886 28.9982 10.2886C32.894 10.2886 36.4995 11.4916 39.4931 13.5269C41.6088 14.9677 43.4029 16.8352 44.7772 18.9964C47.6903 17.1779 50.6069 15.3594 53.52 13.5409C53.5305 13.5339 53.5375 13.5304 53.5445 13.5234H53.5095C48.3758 5.39957 39.3182 0 28.9947 0C12.9813 0 0 12.9813 0 28.9947C0 30.7572 0.164366 32.4778 0.465119 34.1529H11.0194C10.5508 32.5128 10.2816 30.7887 10.2816 28.9947L10.2851 29.0017Z" fill="#FFCB00"/>
<path d="M57.5288 23.847C57.5288 23.847 57.5288 23.847 57.5288 23.8435H37.0181C37.0181 23.8435 37.0146 23.8435 37.0111 23.847H21.4839V34.16H46.9745C44.7328 41.9831 37.5427 47.7149 28.9992 47.7149C25.0964 47.7149 21.4734 46.5154 18.4729 44.4731C16.2907 42.9833 14.4477 41.0424 13.0663 38.7867C10.1567 40.6017 7.24709 42.4167 4.33398 44.2318C4.38294 44.3122 4.42841 44.3926 4.47737 44.4731C8.4606 50.7714 14.8009 55.4191 22.2603 57.1956C24.425 57.7132 26.6771 57.9999 28.9992 57.9999C37.4972 57.9999 45.1385 54.3419 50.4401 48.5157C54.0282 44.571 56.5461 39.633 57.5288 34.16C57.8295 32.4849 57.9939 30.7643 57.9939 29.0053C57.9939 27.2462 57.8295 25.5221 57.5288 23.8505V23.847Z" fill="#FFCB00"/>
</svg>
