<svg width="83" height="41" viewBox="0 0 83 41" fill="none" xmlns="http://www.w3.org/2000/svg">
<path d="M2.77911 8.57071C2.77911 5.8863 4.9557 3.70971 7.64011 3.70971C8.6521 3.70971 9.58869 4.02221 10.3663 4.55091C10.9159 4.92518 11.3819 5.41028 11.7389 5.97169C12.4957 5.49931 13.2533 5.02693 14.01 4.55454C14.0127 4.55273 14.0145 4.55182 14.0164 4.55H14.0073C12.6737 2.43972 10.3209 1.03711 7.6392 1.03711C3.47951 1.03711 0.107422 4.40919 0.107422 8.56889C0.107422 9.02673 0.150118 9.47368 0.228243 9.90882H2.96988C2.84815 9.48277 2.7782 9.03491 2.7782 8.56889L2.77911 8.57071Z" fill="#FFCB00"/>
<path d="M15.0525 7.23162C15.0525 7.23162 15.0525 7.23162 15.0525 7.23071H9.72454C9.72454 7.23071 9.72364 7.23071 9.72273 7.23162H5.68931V9.91058H12.3108C11.7285 11.9427 9.86081 13.4316 7.64152 13.4316C6.62771 13.4316 5.68658 13.1201 4.90715 12.5895C4.34029 12.2025 3.86155 11.6984 3.50272 11.1124C2.74691 11.5839 1.9911 12.0554 1.23438 12.5268C1.24709 12.5477 1.2589 12.5686 1.27162 12.5895C2.30632 14.2256 3.9533 15.4329 5.89098 15.8944C6.45329 16.0288 7.03832 16.1033 7.64152 16.1033C9.849 16.1033 11.8339 15.1531 13.2111 13.6397C14.1431 12.615 14.7972 11.3323 15.0525 9.91058C15.1306 9.47544 15.1733 9.02849 15.1733 8.57155C15.1733 8.11461 15.1306 7.66676 15.0525 7.23253V7.23162Z" fill="#FFCB00"/>
<path d="M10.5758 33.7457C9.78264 33.0823 8.43847 32.5323 6.54056 32.0948C5.61979 31.8761 4.94031 31.6913 4.50212 31.5413C4.063 31.3913 3.72742 31.1967 3.49353 30.9565C3.25965 30.7172 3.14316 30.3994 3.14316 30.003C3.14316 29.4423 3.42605 29.0021 3.99274 28.6807C4.55851 28.3593 5.31657 28.1986 6.26507 28.1986C7.45392 28.1986 8.80548 28.4584 10.3207 28.978L11.234 26.6603C9.46462 26.0317 7.81539 25.7166 6.28633 25.7166C5.15387 25.7166 4.14158 25.888 3.24948 26.229C2.35737 26.571 1.65663 27.0665 1.14726 27.7156C0.636953 28.3655 0.382726 29.1271 0.382726 30.0021C0.382726 30.7815 0.549129 31.4413 0.881935 31.9814C1.21382 32.5216 1.75278 32.9894 2.49604 33.3858C3.23931 33.7823 4.26176 34.1519 5.56432 34.4938L5.98865 34.617C6.72452 34.7947 7.28752 34.9518 7.67672 35.0884C8.06591 35.225 8.38485 35.4099 8.63261 35.642C8.88036 35.875 9.00424 36.175 9.00424 36.5446C9.00424 37.0776 8.71396 37.4946 8.1334 37.7955C7.55284 38.0964 6.78831 38.2463 5.83981 38.2463C5.06142 38.2463 4.20444 38.1231 3.26982 37.8776C2.33519 37.6312 1.56326 37.3375 0.954967 36.9955L0 39.2106C0.778395 39.6615 1.70563 40.0311 2.7817 40.3177C3.85777 40.6052 4.91166 40.748 5.94613 40.748C7.0638 40.748 8.06591 40.5703 8.95062 40.215C9.83533 39.8597 10.525 39.3508 11.0205 38.6874C11.516 38.024 11.7638 37.2348 11.7638 36.3188C11.7638 35.2661 11.3672 34.4081 10.5749 33.7448L10.5758 33.7457Z" fill="#FFCB00"/>
<path d="M81.8131 33.7457C81.0199 33.0823 79.6758 32.5323 77.7779 32.0948C76.8571 31.8761 76.1776 31.6913 75.7394 31.5413C75.3003 31.3913 74.9647 31.1967 74.7308 30.9565C74.497 30.7172 74.3805 30.3994 74.3805 30.003C74.3805 29.4423 74.6634 29.0021 75.23 28.6807C75.7958 28.3593 76.5539 28.1986 77.5024 28.1986C78.6912 28.1986 80.0428 28.4584 81.558 28.978L82.4713 26.6603C80.7019 26.0317 79.0527 25.7166 77.5236 25.7166C76.3912 25.7166 75.3789 25.888 74.4868 26.229C73.5947 26.571 72.8939 27.0665 72.3846 27.7156C71.8743 28.3655 71.62 29.1271 71.62 30.0021C71.62 30.7815 71.7864 31.4413 72.1192 31.9814C72.4511 32.5216 72.9901 32.9894 73.7333 33.3858C74.4766 33.7823 75.4991 34.1519 76.8016 34.4938L77.226 34.617C77.9618 34.7947 78.5248 34.9518 78.914 35.0884C79.3032 35.225 79.6222 35.4099 79.8699 35.642C80.1177 35.875 80.2415 36.175 80.2415 36.5446C80.2415 37.0776 79.9513 37.4946 79.3707 37.7955C78.7901 38.0964 78.0256 38.2463 77.0771 38.2463C76.2987 38.2463 75.4417 38.1231 74.5071 37.8776C73.5725 37.6312 72.8006 37.3375 72.1923 36.9955L71.2373 39.2106C72.0157 39.6615 72.9429 40.0311 74.019 40.3177C75.0951 40.6052 76.149 40.748 77.1834 40.748C78.3011 40.748 79.3032 40.5703 80.1879 40.215C81.0726 39.8597 81.7623 39.3508 82.2578 38.6874C82.7533 38.024 83.0011 37.2348 83.0011 36.3188C83.0011 35.2661 82.6045 34.4081 81.8122 33.7448L81.8131 33.7457Z" fill="#FFCB00"/>
<path d="M20.7565 14.8968C19.5997 14.2191 18.6832 13.3054 18.007 12.1557C17.3308 11.0059 16.9932 9.75248 16.9932 8.39801C16.9932 7.04355 17.3308 5.79011 18.007 4.63948C18.6832 3.48975 19.5988 2.57604 20.7565 1.89836C21.9132 1.22068 23.1674 0.881836 24.5198 0.881836C25.8722 0.881836 27.1227 1.22068 28.2722 1.89836C29.4217 2.57604 30.3345 3.48975 31.0108 4.63948C31.6861 5.78921 32.0246 7.04265 32.0246 8.39801C32.0246 9.75338 31.6861 11.0059 31.0108 12.1557C30.3345 13.3054 29.4217 14.22 28.2722 14.8968C27.1227 15.5745 25.8713 15.9133 24.5198 15.9133C23.1683 15.9133 21.9132 15.5745 20.7565 14.8968ZM26.9134 12.7198C27.6452 12.2746 28.2267 11.6693 28.659 10.9022C29.0904 10.1351 29.307 9.3001 29.307 8.39712C29.307 7.49414 29.0904 6.65911 28.659 5.89202C28.2276 5.12494 27.6452 4.51968 26.9134 4.07445C26.1817 3.63011 25.3835 3.40749 24.5198 3.40749C23.6561 3.40749 22.8334 3.63011 22.0944 4.07445C21.3553 4.51968 20.7701 5.12583 20.3387 5.89202C19.9064 6.65911 19.6907 7.49325 19.6907 8.39712C19.6907 9.30099 19.9064 10.136 20.3387 10.9022C20.7701 11.6693 21.3563 12.2746 22.0944 12.7198C22.8334 13.165 23.6416 13.3876 24.5198 13.3876C25.3981 13.3876 26.1817 13.165 26.9134 12.7198Z" fill="#FFCB00"/>
<path d="M42.4794 15.9133H33.9834V0.881836H36.6771V13.3656H42.4794V15.9133Z" fill="#FFCB00"/>
<path d="M45.0947 0.881836H49.7517C51.0335 0.881836 52.2217 1.21742 53.3157 1.8886C54.4088 2.55977 55.2726 3.46958 55.9073 4.61896C56.5411 5.76834 56.8585 7.02027 56.8585 8.37659C56.8585 9.73292 56.5411 11.01 55.9073 12.1669C55.2726 13.3228 54.4088 14.2372 53.3157 14.9075C52.2217 15.5786 51.0343 15.9133 49.7517 15.9133H45.0947V0.881836ZM51.8682 12.7336C52.5902 12.2843 53.1641 11.6737 53.589 10.9028C54.0138 10.1319 54.2263 9.29013 54.2263 8.37659C54.2263 7.46305 54.0138 6.62409 53.589 5.86063C53.1641 5.09717 52.5902 4.49032 51.8682 4.04008C51.1463 3.58983 50.3529 3.36518 49.4882 3.36518H47.7269V13.4076H49.4882C50.3521 13.4076 51.1454 13.1829 51.8682 12.7327V12.7336Z" fill="#FFCB00"/>
<path d="M58.8184 0.881836H68.6006L68.6215 3.4295H61.5297V7.21976H67.8497V9.57538H61.5297V13.3656H68.6006V15.9133H58.8184V0.881836Z" fill="#FFCB00"/>
<path d="M79.0496 15.9133L73.1749 4.90701V15.9133H70.583V0.881836H74.0741L80.4084 12.9154V0.881836H83.0003V15.9133H79.0496Z" fill="#FFCB00"/>
<path d="M15.0322 25.7175H20.5301C21.4144 25.7175 22.2381 25.9459 22.9986 26.4026C23.7591 26.8594 24.3643 27.4802 24.8132 28.2651C25.263 29.051 25.4879 29.9002 25.4879 30.8128C25.4879 31.7254 25.263 32.6007 24.8132 33.3931C24.3634 34.1854 23.7619 34.81 23.0086 35.2668C22.2553 35.7235 21.4288 35.9519 20.5292 35.9519H17.7283V40.748H15.0312V25.7166L15.0322 25.7175ZM17.7292 33.4043H20.3431C20.7713 33.4043 21.1768 33.2868 21.5571 33.051C21.9373 32.8151 22.2381 32.4982 22.4594 32.0983C22.6798 31.6984 22.7909 31.2705 22.7909 30.8137C22.7909 30.357 22.6798 29.9328 22.4594 29.5394C22.2372 29.147 21.9373 28.8366 21.5571 28.6082C21.1768 28.3798 20.7722 28.2651 20.3431 28.2651H17.7292V33.4043Z" fill="#FFCB00"/>
<path d="M31.2116 39.7315C30.0548 39.0538 29.1383 38.1401 28.4621 36.9904C27.7859 35.8406 27.4482 34.5872 27.4482 33.2327C27.4482 31.8783 27.7859 30.6248 28.4621 29.4742C29.1383 28.3245 30.0539 27.4108 31.2116 26.7331C32.3683 26.0554 33.6225 25.7166 34.9749 25.7166C36.3273 25.7166 37.5778 26.0554 38.7273 26.7331C39.8768 27.4108 40.7896 28.3245 41.4658 29.4742C42.1411 30.6239 42.4797 31.8774 42.4797 33.2327C42.4797 34.5881 42.1411 35.8406 41.4658 36.9904C40.7896 38.1401 39.8768 39.0547 38.7273 39.7315C37.5778 40.4092 36.3264 40.748 34.9749 40.748C33.6234 40.748 32.3683 40.4092 31.2116 39.7315ZM37.3685 37.5545C38.1002 37.1093 38.6818 36.504 39.1141 35.7369C39.5455 34.9698 39.7621 34.1348 39.7621 33.2318C39.7621 32.3289 39.5455 31.4938 39.1141 30.7267C38.6827 29.9597 38.1002 29.3544 37.3685 28.9092C36.6368 28.4648 35.8386 28.2422 34.9749 28.2422C34.1112 28.2422 33.2885 28.4648 32.5494 28.9092C31.8104 29.3544 31.2252 29.9606 30.7938 30.7267C30.3615 31.4938 30.1458 32.328 30.1458 33.2318C30.1458 34.1357 30.3615 34.9707 30.7938 35.7369C31.2252 36.504 31.8113 37.1093 32.5494 37.5545C33.2885 37.9997 34.0966 38.2224 34.9749 38.2224C35.8532 38.2224 36.6368 37.9997 37.3685 37.5545Z" fill="#FFCB00"/>
<path d="M45.0947 25.7166H50.815C51.75 25.7166 52.6099 25.9449 53.3946 26.4017C54.1783 26.8585 54.8014 27.4765 55.2619 28.254C55.7214 29.0323 55.9526 29.8853 55.9526 30.8128C55.9526 31.7403 55.7214 32.5439 55.2619 33.2644C54.8004 33.985 54.1783 34.5425 53.3946 34.934C52.6108 35.3264 51.751 35.5231 50.815 35.5231H47.9008V40.748H45.0947V25.7166ZM51.6889 35.9622C51.3356 35.6984 50.8432 35.566 50.2107 35.566H47.3182V34.1957H50.081C51.1307 34.1957 51.9408 34.2386 52.5093 34.3243C53.0779 34.4101 53.5816 34.6282 54.0204 34.9778C54.4593 35.3274 54.8371 35.8811 55.1538 36.6371L56.8585 40.748H54.074L52.5413 37.1507C52.3261 36.6231 52.0413 36.2269 51.6889 35.9622ZM52.4013 32.6222C52.8974 32.116 53.1465 31.5119 53.1465 30.8128C53.1465 30.1137 52.8984 29.5143 52.4013 29.0146C51.9051 28.515 51.3112 28.2651 50.6204 28.2651H47.9008V33.3828H50.6204C51.3112 33.3828 51.9051 33.1293 52.4013 32.6231V32.6222Z" fill="#FFCB00"/>
<path d="M61.6448 28.2642H57.5336L57.5117 25.7166H68.6219V28.2642H64.466V40.748H61.6448V28.2642Z" fill="#FFCB00"/>
</svg>
