<svg width="184" height="158" viewBox="0 0 184 158" fill="none" xmlns="http://www.w3.org/2000/svg">
<g id="Frame" clip-path="url(#clip0_142_447)">
<g id="XMLID_1_">
<path id="XMLID_82_" d="M92.3316 125.552L95.661 132.193L103.101 133.258L97.7179 138.429L98.9867 145.73L92.3316 142.282L85.6764 145.73L86.9489 138.429L81.5626 133.258L89.0058 132.193L92.3316 125.552Z" fill="#D9D9D9"/>
<path id="XMLID_79_" d="M92.3496 157.966C84.9751 157.93 66.1736 148.803 51.692 141.153C44.3067 137.25 36.6538 132.977 30.6963 129.43C27.8875 127.756 25.5522 126.3 23.9327 125.214C21.6805 123.7 19.902 122.503 19.902 120.292V13.3246C19.902 6.16304 25.8197 0.333374 33.0894 0.333374H151.574C158.847 0.333374 164.761 6.16304 164.761 13.3246V120.292C164.761 122.503 162.983 123.7 160.73 125.214C159.115 126.3 156.776 127.76 153.967 129.43C148.009 132.98 140.356 137.254 132.967 141.153C118.493 148.803 99.688 157.93 92.3496 157.966ZM27.0813 118.761C30.4288 121.14 42.2064 128.198 57.0061 135.933C78.0597 146.94 89.0672 150.879 92.3496 150.897C95.5959 150.879 106.603 146.94 127.657 135.933C142.457 128.194 154.234 121.136 157.582 118.761V13.3246C157.582 10.059 154.885 7.40233 151.574 7.40233H33.0894C29.7745 7.40233 27.0813 10.059 27.0813 13.3246V118.761Z" fill="#D9D9D9"/>
<path id="XMLID_78_" d="M161.175 43.0284H23.4916V50.101H161.175V43.0284Z" fill="#D9D9D9"/>
<g id="XMLID_77_">
<g id="Group">
<path id="Vector" d="M42.4739 10.0056C47.2456 10.0056 49.7002 12.819 49.7002 17.737V18.702H45.0586V17.4271C45.0586 15.2299 44.1657 14.3966 42.604 14.3966C41.0423 14.3966 40.1494 15.2299 40.1494 17.4271C40.1494 23.7518 49.7364 24.9412 49.7364 33.7267C49.7364 38.6482 47.2384 41.458 42.4233 41.458C37.6081 41.458 35.1102 38.6447 35.1102 33.7267V31.8357H39.7482V34.0329C39.7482 36.2302 40.7278 37.0208 42.2895 37.0208C43.8512 37.0208 44.8308 36.2302 44.8308 34.0329C44.8308 27.7083 35.2439 26.5188 35.2439 17.7334C35.2475 12.819 37.7021 10.0056 42.4739 10.0056Z" fill="#D9D9D9"/>
<path id="Vector_2" d="M54.3816 17.7405C54.3816 12.8189 57.0133 10.0092 61.8284 10.0092C66.6436 10.0092 69.2753 12.8225 69.2753 17.7405V33.7338C69.2753 38.6553 66.6436 41.4651 61.8284 41.4651C57.0133 41.4651 54.3816 38.6518 54.3816 33.7338V17.7405ZM59.2871 34.0401C59.2871 36.2373 60.2668 37.0706 61.8284 37.0706C63.3901 37.0706 64.3698 36.2373 64.3698 34.0401V17.4307C64.3698 15.2334 63.3901 14.4001 61.8284 14.4001C60.2668 14.4001 59.2871 15.2334 59.2871 17.4307V34.0401Z" fill="#D9D9D9"/>
<path id="Vector_3" d="M88.8974 29.6455V33.7302C88.8974 38.6518 86.3994 41.4616 81.5843 41.4616C76.7691 41.4616 74.2712 38.6482 74.2712 33.7302V17.7405C74.2712 12.8189 76.7691 10.0092 81.5843 10.0092C86.3994 10.0092 88.8974 12.8225 88.8974 17.7405V20.7283H84.2593V17.4342C84.2593 15.237 83.2797 14.4037 81.718 14.4037C80.1564 14.4037 79.1767 15.237 79.1767 17.4342V34.04C79.1767 36.2373 80.1564 37.0279 81.718 37.0279C83.2797 37.0279 84.2593 36.2373 84.2593 34.04V29.6455H88.8974Z" fill="#D9D9D9"/>
<path id="Vector_4" d="M108.342 29.6455V33.7302C108.342 38.6518 105.844 41.4616 101.029 41.4616C96.2141 41.4616 93.7161 38.6482 93.7161 33.7302V17.7405C93.7161 12.8189 96.2141 10.0092 101.029 10.0092C105.844 10.0092 108.342 12.8225 108.342 17.7405V20.7283H103.704V17.4342C103.704 15.237 102.725 14.4037 101.163 14.4037C99.6013 14.4037 98.6216 15.237 98.6216 17.4342V34.04C98.6216 36.2373 99.6013 37.0279 101.163 37.0279C102.725 37.0279 103.704 36.2373 103.704 34.04V29.6455H108.342Z" fill="#D9D9D9"/>
<path id="Vector_5" d="M118.468 23.3173H125.203V27.7118H118.468V36.7181H126.941V41.1126H113.562V10.3582H126.941V14.7527H118.468V23.3173Z" fill="#D9D9D9"/>
<path id="Vector_6" d="M142.46 41.1126C142.193 40.322 142.016 39.8377 142.016 37.3342V32.5016C142.016 29.6455 141.036 28.5914 138.806 28.5914H137.11V41.1126H132.205V10.3582H139.608C144.691 10.3582 146.878 12.6872 146.878 17.4307V19.8487C146.878 23.0111 145.851 25.0765 143.668 26.0879C146.122 27.0993 146.925 29.4283 146.925 32.6334V37.3769C146.925 38.869 146.968 39.9694 147.46 41.1126H142.46ZM137.107 14.7527V24.1969H139.023C140.852 24.1969 141.965 23.4063 141.965 20.9456V17.915C141.965 15.7177 141.206 14.7527 139.467 14.7527H137.107Z" fill="#D9D9D9"/>
</g>
</g>
<g id="XMLID_53_">
<path id="XMLID_71_" d="M86.6633 88.4656L94.3704 98.6755C94.3704 98.6755 106.947 95.1855 106.947 94.8365C106.947 94.4875 106.947 82.4472 106.947 82.4472L95.3428 77.7357L86.6633 88.4656Z" fill="#D9D9D9"/>
<path id="XMLID_69_" d="M97.6492 115.691C93.604 112.781 89.8083 108.362 89.8083 108.362C85.7921 109.583 77.6873 108.362 77.6873 108.362C77.6873 108.362 77.9259 111.271 78.0813 113.412C82.2928 115.627 87.0971 116.891 92.2014 116.912C94.9054 115.951 97.6492 115.691 97.6492 115.691Z" fill="#D9D9D9"/>
<path id="XMLID_67_" d="M70.3055 98.0061C70.4248 96.9021 74.4374 87.7676 74.4374 87.7676C73.8482 87.0127 70.3055 77.0057 70.3055 77.0057L62.7792 80.485C62.2948 82.6039 62.0381 84.8083 62.0381 87.0697C62.0381 89.2384 62.2767 91.3502 62.7213 93.3872L63.278 93.4121C64.1781 95.2604 70.3055 98.0061 70.3055 98.0061Z" fill="#D9D9D9"/>
<path id="XMLID_65_" d="M78.103 66.9418C78.103 66.9418 86.6669 66.4753 90.5638 68.0458C90.5638 68.0458 95.585 62.1129 97.6492 61.2974C97.6492 61.2974 95.4115 59.0431 92.1219 57.2269C87.3067 57.259 82.7591 58.3986 78.7248 60.3999C78.4356 61.974 78.0235 64.6734 78.103 66.9418Z" fill="#D9D9D9"/>
<path id="XMLID_63_" d="M110.049 65.3714C110.049 65.3714 114.003 73.9218 114.18 76.0158C114.18 76.0158 120.203 79.3312 120.973 81.7172C120.973 81.7172 121.414 80.948 121.689 79.6695C120.228 74.0251 117.13 69.0216 112.922 65.1826C112.16 65.1363 111.22 65.1791 110.049 65.3714Z" fill="#D9D9D9"/>
<path id="XMLID_61_" d="M121.501 95.1571C121.016 94.5766 120.68 94.2526 120.68 94.2526C117.08 100.186 113.772 100.855 113.772 100.855C113.034 104.462 108.986 110.801 108.899 111.065C108.856 111.193 109.955 110.46 111.122 110.481C116.057 106.631 119.751 101.297 121.501 95.1571Z" fill="#D9D9D9"/>
<g id="XMLID_54_">
<g id="Group_2">
<path id="Vector_7" d="M92.3316 53.1422C73.3421 53.1422 57.8917 68.3627 57.8917 87.0696C57.8917 105.777 73.3421 120.997 92.3316 120.997C111.321 120.997 126.771 105.777 126.771 87.0696C126.771 68.3627 111.325 53.1422 92.3316 53.1422ZM92.3316 115.78C76.263 115.78 63.1877 102.903 63.1877 87.0696C63.1877 71.2402 76.2594 58.3594 92.3316 58.3594C108.4 58.3594 121.475 71.2366 121.475 87.0696C121.475 102.899 108.4 115.78 92.3316 115.78Z" fill="#D9D9D9"/>
</g>
</g>
</g>
<g id="XMLID_47_">
<path id="XMLID_52_" d="M20.9901 116.759H0.666687L3.30923 126.2L0.666687 135.641H20.9901V116.759Z" fill="#D9D9D9"/>
<path id="XMLID_51_" d="M20.9901 123.038H13.5071C11.9635 123.038 10.7091 124.27 10.7091 125.794V126.606C10.7091 128.127 11.9599 129.362 13.5071 129.362H20.9937V123.038H20.9901Z" fill="#191919"/>
<path id="XMLID_50_" d="M163.673 116.759H184L181.357 126.2L184 135.641H163.673V116.759Z" fill="#D9D9D9"/>
<path id="XMLID_49_" d="M163.673 123.038H171.16C172.703 123.038 173.958 124.27 173.958 125.794V126.606C173.958 128.127 172.707 129.362 171.16 129.362H163.673V123.038Z" fill="#191919"/>
<path id="XMLID_48_" d="M169.728 100.909H160.586H159.776H14.4579C12.2564 100.909 10.4706 102.668 10.4706 104.837V125.57C10.4706 124.049 11.7214 122.814 13.2686 122.814H159.776H160.586H170.921C172.465 122.814 173.719 124.046 173.719 125.57V104.837C173.715 102.664 171.933 100.909 169.728 100.909Z" fill="#D9D9D9"/>
<g id="XMLID_18_">
<path id="XMLID_45_" d="M32.2048 117.484C30.9685 118.687 29.3707 119.243 27.6319 119.243C23.1638 119.243 21.2731 116.212 21.2551 113.132C21.237 110.034 23.2831 106.885 27.6319 106.885C29.2658 106.885 30.8094 107.494 32.0494 108.698L30.5383 110.137C29.7466 109.375 28.6838 109.019 27.6355 109.019C24.7327 109.019 23.4783 111.152 23.4927 113.132C23.5108 115.094 24.6604 117.145 27.6355 117.145C28.6838 117.145 29.8695 116.721 30.6612 115.942L32.2048 117.484Z" fill="#181818"/>
<path id="XMLID_43_" d="M42.5328 118.99V114.2H36.6187V118.99H34.3521V107.138H36.6187V112.131H42.5292V107.138H44.7813V118.99H42.5328Z" fill="#181818"/>
<path id="XMLID_40_" d="M56.313 116.739H50.023L48.9927 118.972H46.5345L51.9317 107.121H54.408L59.8051 118.972H57.3289L56.313 116.739ZM53.168 109.61L50.934 114.656H55.4021L53.168 109.61Z" fill="#181818"/>
<path id="XMLID_38_" d="M71.9876 110.39L68.0689 115.536H67.6207L63.7888 110.372V118.99H61.5186V107.138H64.1322L67.8954 112.234L71.6586 107.138H74.2542V118.99H71.9876V110.39Z" fill="#181818"/>
<path id="XMLID_35_" d="M82.9157 115.486H79.514V118.972H77.2474V107.121C79.138 107.121 81.0286 107.103 82.9193 107.103C88.7936 107.106 88.8081 115.486 82.9157 115.486ZM79.514 113.438H82.9157C85.8185 113.438 85.804 109.239 82.9157 109.239H79.514V113.438Z" fill="#181818"/>
<path id="XMLID_33_" d="M89.7371 118.972V107.121H91.9893V118.972H89.7371Z" fill="#181818"/>
<path id="XMLID_30_" d="M107.161 113.114C107.125 116.177 105.22 119.243 100.991 119.243C96.7646 119.243 94.8053 116.248 94.8053 113.132C94.8053 110.016 96.8333 106.885 100.991 106.885C105.133 106.885 107.197 110.016 107.161 113.114ZM97.0394 113.167C97.09 115.115 98.1564 117.195 100.991 117.195C103.825 117.195 104.891 115.098 104.927 113.15C104.963 111.152 103.828 108.919 100.991 108.919C98.1564 108.915 96.9887 111.17 97.0394 113.167Z" fill="#181818"/>
<path id="XMLID_28_" d="M117.594 107.106H119.861V118.972H118.451V118.99L112.128 110.981V118.972H109.858V107.121H111.698L117.594 114.467V107.106Z" fill="#181818"/>
<path id="XMLID_26_" d="M130.413 109.984C130.001 109.307 128.866 108.663 127.561 108.663C125.876 108.663 125.07 109.357 125.07 110.237C125.07 111.269 126.306 111.558 127.752 111.725C130.261 112.031 132.6 112.672 132.6 115.5C132.6 118.142 130.228 119.275 127.546 119.275C125.088 119.275 123.197 118.531 122.304 116.362L124.195 115.397C124.726 116.7 126.118 117.277 127.579 117.277C129.007 117.277 130.344 116.786 130.344 115.5C130.344 114.382 129.158 113.926 127.561 113.755C125.102 113.467 122.836 112.826 122.836 110.165C122.836 107.726 125.276 106.729 127.492 106.711C129.364 106.711 131.306 107.235 132.217 109.065L130.413 109.984Z" fill="#181818"/>
<path id="XMLID_24_" d="M143.405 118.99V114.2H137.495V118.99H135.224V107.138H137.495V112.131H143.405V107.138H145.657V118.99H143.405Z" fill="#181818"/>
<path id="XMLID_22_" d="M148.661 118.972V107.121H150.913V118.972H148.661Z" fill="#181818"/>
<path id="XMLID_19_" d="M159.575 115.486H156.173V118.972H153.903V107.121C155.793 107.121 157.684 107.103 159.575 107.103C165.453 107.106 165.471 115.486 159.575 115.486ZM156.173 113.438H159.575C162.478 113.438 162.463 109.239 159.575 109.239H156.173V113.438Z" fill="#181818"/>
</g>
</g>
<path id="XMLID_17_" d="M67.034 65.001H50.3364V68.929H67.034V65.001Z" fill="#D9D9D9"/>
<path id="XMLID_16_" d="M47.6577 65.001H42.7558V68.929H47.6577V65.001Z" fill="#D9D9D9"/>
<path id="XMLID_15_" d="M62.7791 93.291H42.7558V97.219H62.7791V93.291Z" fill="#D9D9D9"/>
<path id="XMLID_14_" d="M63.5528 83.829H44.4946V87.757H63.5528V83.829Z" fill="#D9D9D9"/>
<path id="XMLID_13_" d="M42.5244 83.829H35.8476V87.757H42.5244V83.829Z" fill="#D9D9D9"/>
<path id="XMLID_12_" d="M37.9081 74.5521H34.0907V78.4801H37.9081V74.5521Z" fill="#D9D9D9"/>
<path id="XMLID_11_" d="M61.2283 74.5521H47.6577V78.4801H61.2283V74.5521Z" fill="#D9D9D9"/>
<path id="XMLID_10_" d="M46.2443 74.5521H41.0712V78.4801H46.2443V74.5521Z" fill="#D9D9D9"/>
<path id="XMLID_9_" d="M134.019 65.001H116.78V68.929H134.019V65.001Z" fill="#D9D9D9"/>
<path id="XMLID_8_" d="M143.592 65.001H137.808V68.929H143.592V65.001Z" fill="#D9D9D9"/>
<path id="XMLID_7_" d="M140.15 93.291H123.822V97.219H140.15V93.291Z" fill="#D9D9D9"/>
<path id="XMLID_6_" d="M147.883 93.291H142.847V97.219H147.883V93.291Z" fill="#D9D9D9"/>
<path id="XMLID_5_" d="M142.11 83.829H123.052V87.757H142.11V83.829Z" fill="#D9D9D9"/>
<path id="XMLID_4_" d="M133.022 74.5521H122.386V78.4801H133.022V74.5521Z" fill="#D9D9D9"/>
<path id="XMLID_3_" d="M140.7 74.5521H136.861V78.4801H140.7V74.5521Z" fill="#D9D9D9"/>
<path id="XMLID_2_" d="M150.905 74.5521H143.06V78.4801H150.905V74.5521Z" fill="#D9D9D9"/>
</g>
</g>
<defs>
<clipPath id="clip0_142_447">
<rect width="183.333" height="157.632" fill="white" transform="translate(0.666687 0.333374)"/>
</clipPath>
</defs>
</svg>
