<svg width="158" height="184" viewBox="0 0 158 184" fill="none" xmlns="http://www.w3.org/2000/svg">
<g id="Frame" clip-path="url(#clip0_142_336)">
<g id="XMLID_1_">
<path id="XMLID_128_" d="M78.49 164.529L81.5889 170.829L88.5095 171.839L83.4998 176.745L84.6842 183.667L78.49 180.396L72.2993 183.667L73.4838 176.745L68.474 171.839L75.3946 170.829L78.49 164.529Z" fill="#D9D9D9"/>
<g id="XMLID_71_">
<g id="XMLID_100_">
<g id="XMLID_102_">
<g id="XMLID_103_">
<g id="XMLID_125_">
<path id="XMLID_127_" d="M21.1566 134.11C18.8343 132.816 16.358 134.002 16.358 134.024C16.3329 134.024 17.7285 137.762 20.1941 138.937C22.6345 140.112 24.9712 138.484 24.9677 138.502C24.9498 138.498 23.4576 135.4 21.1566 134.11Z" fill="#D9D9D9"/>
<path id="XMLID_126_" d="M24.9999 132.141C25.7227 129.463 28.2992 128.385 28.2884 128.378C28.2813 128.403 29.4693 131.303 28.8717 133.877C28.267 136.475 25.9052 137.93 25.8945 137.923C25.8873 137.948 24.2663 134.847 24.9999 132.141Z" fill="#D9D9D9"/>
</g>
<g id="XMLID_122_">
<path id="XMLID_124_" d="M24.7959 141.585C22.3447 140.665 20.0116 142.164 20.0116 142.182C19.9865 142.186 21.7793 145.593 24.3629 146.39C26.9179 147.188 29.0649 145.287 29.0685 145.305C29.0435 145.305 27.2256 142.505 24.7959 141.585Z" fill="#D9D9D9"/>
<path id="XMLID_123_" d="M28.4065 139.142C28.8359 136.453 31.2835 135.048 31.2728 135.041C31.2692 135.066 32.765 137.693 32.4501 140.274C32.1316 142.879 29.9381 144.619 29.9237 144.612C29.9166 144.64 27.9735 141.855 28.4065 139.142Z" fill="#D9D9D9"/>
</g>
<g id="XMLID_119_">
<path id="XMLID_121_" d="M29.226 148.324C26.6889 147.767 24.5275 149.546 24.5275 149.564C24.5025 149.568 26.6567 152.633 29.3119 153.061C31.942 153.492 33.8743 151.347 33.8779 151.365C33.86 151.368 31.7452 148.881 29.226 148.324Z" fill="#D9D9D9"/>
<path id="XMLID_120_" d="M32.5575 145.449C32.6935 142.775 34.9765 141.075 34.9658 141.068C34.9622 141.09 36.7371 143.44 36.7049 145.999C36.6691 148.583 34.6759 150.578 34.6616 150.574C34.658 150.599 32.4179 148.148 32.5575 145.449Z" fill="#D9D9D9"/>
</g>
<g id="XMLID_116_">
<path id="XMLID_118_" d="M34.3681 154.294C31.7809 154.089 29.8236 156.119 29.8271 156.137C29.8057 156.144 32.2783 158.847 34.9693 158.919C37.6352 158.994 39.3242 156.637 39.3278 156.655C39.3135 156.658 36.9374 154.502 34.3681 154.294Z" fill="#D9D9D9"/>
<path id="XMLID_117_" d="M37.3704 151.037C37.2165 148.407 39.3028 146.441 39.292 146.437C39.292 146.459 41.3138 148.515 41.5607 151.027C41.8076 153.56 40.0399 155.781 40.0256 155.778C40.022 155.803 37.5243 153.697 37.3704 151.037Z" fill="#D9D9D9"/>
</g>
<g id="XMLID_113_">
<path id="XMLID_115_" d="M40.1437 159.462C37.5422 159.598 35.8174 161.848 35.821 161.862C35.7995 161.87 38.5621 164.202 41.2494 163.922C43.9154 163.652 45.3396 161.122 45.3467 161.136C45.3288 161.147 42.7202 159.332 40.1437 159.462Z" fill="#D9D9D9"/>
<path id="XMLID_114_" d="M42.7738 155.879C42.3337 153.32 44.1981 151.117 44.1837 151.113C44.1837 151.135 46.4238 152.885 46.9463 155.322C47.4723 157.78 45.9551 160.188 45.9407 160.188C45.9407 160.213 43.2211 158.463 42.7738 155.879Z" fill="#D9D9D9"/>
</g>
<g id="XMLID_110_">
<path id="XMLID_112_" d="M46.4632 163.8C43.8867 164.267 42.4124 166.7 42.4196 166.711C42.3981 166.721 45.4111 168.659 48.0627 168.048C50.6929 167.447 51.8344 164.777 51.8415 164.788C51.8272 164.799 49.0218 163.34 46.4632 163.8Z" fill="#D9D9D9"/>
<path id="XMLID_111_" d="M48.6925 159.936C47.9697 157.474 49.5871 155.074 49.5728 155.07C49.5764 155.092 52.0026 156.525 52.7934 158.858C53.5914 161.212 52.3461 163.774 52.3318 163.774C52.3354 163.803 49.4225 162.423 48.6925 159.936Z" fill="#D9D9D9"/>
</g>
<g id="XMLID_107_">
<path id="XMLID_109_" d="M53.2586 167.268C50.7358 168.051 49.537 170.632 49.5442 170.642C49.5227 170.657 52.7469 172.188 55.3341 171.253C57.8962 170.333 58.7407 167.559 58.7479 167.57C58.73 167.584 55.7599 166.495 53.2586 167.268Z" fill="#D9D9D9"/>
<path id="XMLID_108_" d="M55.055 163.185C54.0566 160.852 55.4056 158.283 55.3913 158.283C55.3985 158.301 57.9821 159.411 59.0342 161.614C60.0934 163.835 59.1379 166.517 59.1236 166.517C59.1272 166.538 56.0605 165.543 55.055 163.185Z" fill="#D9D9D9"/>
</g>
<g id="XMLID_104_">
<path id="XMLID_106_" d="M60.4405 169.841C58.0036 170.926 57.0911 173.618 57.1018 173.629C57.0839 173.643 60.4798 174.754 62.9704 173.51C65.4359 172.285 65.9655 169.446 65.9763 169.456C65.9584 169.471 62.8595 168.766 60.4405 169.841Z" fill="#D9D9D9"/>
<path id="XMLID_105_" d="M61.7788 165.593C60.5192 163.419 61.5784 160.719 61.5641 160.719C61.5713 160.737 64.2837 161.51 65.5862 163.548C66.8995 165.604 66.2447 168.364 66.2304 168.371C66.2375 168.393 63.0491 167.789 61.7788 165.593Z" fill="#D9D9D9"/>
</g>
</g>
</g>
<path id="XMLID_101_" d="M24.0731 126.904C23.7975 123.501 21.1245 122.121 21.1101 122.132C21.0958 122.114 18.7913 125.855 19.303 128.69C19.8004 131.504 22.631 132.277 22.6167 132.292C22.6023 132.277 24.4023 129.682 24.0731 126.904Z" fill="#D9D9D9"/>
</g>
<g id="XMLID_72_">
<g id="XMLID_74_">
<g id="XMLID_75_">
<g id="XMLID_97_">
<path id="XMLID_99_" d="M135.827 134.11C138.149 132.816 140.626 134.002 140.626 134.024C140.651 134.024 139.255 137.762 136.789 138.937C134.349 140.112 132.012 138.484 132.016 138.502C132.034 138.498 133.526 135.4 135.827 134.11Z" fill="#D9D9D9"/>
<path id="XMLID_98_" d="M131.984 132.141C131.261 129.463 128.684 128.385 128.695 128.378C128.702 128.403 127.514 131.303 128.112 133.877C128.717 136.475 131.078 137.93 131.089 137.923C131.096 137.948 132.717 134.847 131.984 132.141Z" fill="#D9D9D9"/>
</g>
<g id="XMLID_94_">
<path id="XMLID_96_" d="M132.188 141.585C134.639 140.665 136.972 142.164 136.972 142.182C136.997 142.186 135.204 145.593 132.624 146.39C130.069 147.188 127.922 145.287 127.919 145.305C127.936 145.305 129.758 142.505 132.188 141.585Z" fill="#D9D9D9"/>
<path id="XMLID_95_" d="M128.577 139.142C128.148 136.453 125.7 135.048 125.711 135.041C125.714 135.066 124.218 137.693 124.533 140.274C124.852 142.879 127.045 144.619 127.06 144.612C127.067 144.64 129.01 141.855 128.577 139.142Z" fill="#D9D9D9"/>
</g>
<g id="XMLID_91_">
<path id="XMLID_93_" d="M127.758 148.324C130.295 147.767 132.456 149.546 132.456 149.564C132.481 149.568 130.327 152.633 127.672 153.061C125.042 153.492 123.109 151.347 123.106 151.365C123.124 151.368 125.238 148.881 127.758 148.324Z" fill="#D9D9D9"/>
<path id="XMLID_92_" d="M124.426 145.449C124.29 142.775 122.007 141.075 122.018 141.068C122.021 141.09 120.246 143.44 120.279 145.999C120.314 148.583 122.308 150.578 122.322 150.574C122.326 150.599 124.566 148.148 124.426 145.449Z" fill="#D9D9D9"/>
</g>
<g id="XMLID_88_">
<path id="XMLID_90_" d="M122.615 154.294C125.203 154.089 127.16 156.119 127.156 156.137C127.178 156.144 124.705 158.847 122.014 158.919C119.348 158.994 117.659 156.637 117.656 156.655C117.67 156.658 120.046 154.502 122.615 154.294Z" fill="#D9D9D9"/>
<path id="XMLID_89_" d="M119.613 151.037C119.767 148.407 117.681 146.441 117.691 146.437C117.691 146.459 115.67 148.515 115.423 151.027C115.176 153.56 116.944 155.781 116.958 155.778C116.962 155.803 119.459 153.697 119.613 151.037Z" fill="#D9D9D9"/>
</g>
<g id="XMLID_85_">
<path id="XMLID_87_" d="M116.84 159.462C119.441 159.598 121.166 161.848 121.163 161.862C121.184 161.87 118.421 164.202 115.734 163.922C113.068 163.652 111.644 161.122 111.637 161.136C111.655 161.147 114.263 159.332 116.84 159.462Z" fill="#D9D9D9"/>
<path id="XMLID_86_" d="M114.21 155.879C114.65 153.32 112.785 151.117 112.8 151.113C112.8 151.135 110.56 152.885 110.037 155.322C109.511 157.78 111.028 160.188 111.043 160.188C111.043 160.213 113.762 158.463 114.21 155.879Z" fill="#D9D9D9"/>
</g>
<g id="XMLID_82_">
<path id="XMLID_84_" d="M110.52 163.8C113.097 164.267 114.571 166.7 114.564 166.711C114.585 166.721 111.572 168.659 108.921 168.048C106.291 167.447 105.149 164.777 105.142 164.788C105.156 164.799 107.962 163.34 110.52 163.8Z" fill="#D9D9D9"/>
<path id="XMLID_83_" d="M108.291 159.936C109.014 157.474 107.396 155.074 107.411 155.07C107.407 155.092 104.981 156.525 104.19 158.858C103.392 161.212 104.637 163.774 104.652 163.774C104.648 163.803 107.561 162.423 108.291 159.936Z" fill="#D9D9D9"/>
</g>
<g id="XMLID_79_">
<path id="XMLID_81_" d="M103.725 167.268C106.248 168.051 107.446 170.632 107.439 170.642C107.461 170.657 104.237 172.188 101.649 171.253C99.0873 170.333 98.2428 167.559 98.2357 167.57C98.2535 167.584 101.224 166.495 103.725 167.268Z" fill="#D9D9D9"/>
<path id="XMLID_80_" d="M101.929 163.185C102.927 160.852 101.578 158.283 101.592 158.283C101.585 158.301 99.0014 159.411 97.9494 161.614C96.8902 163.835 97.8456 166.517 97.8599 166.517C97.8563 166.538 100.923 165.543 101.929 163.185Z" fill="#D9D9D9"/>
</g>
<g id="XMLID_76_">
<path id="XMLID_78_" d="M96.5431 169.841C98.98 170.926 99.8925 173.618 99.8817 173.629C99.8996 173.643 96.5037 174.754 94.0131 173.51C91.5476 172.285 91.018 169.446 91.0073 169.456C91.0252 169.471 94.1241 168.766 96.5431 169.841Z" fill="#D9D9D9"/>
<path id="XMLID_77_" d="M95.2047 165.593C96.4643 163.419 95.4051 160.719 95.4194 160.719C95.4123 160.737 92.6998 161.51 91.3973 163.548C90.084 165.604 90.7389 168.364 90.7532 168.371C90.746 168.393 93.9344 167.789 95.2047 165.593Z" fill="#D9D9D9"/>
</g>
</g>
</g>
<path id="XMLID_73_" d="M132.91 126.904C133.186 123.501 135.859 122.121 135.873 122.132C135.888 122.114 138.192 125.855 137.681 128.69C137.183 131.504 134.353 132.277 134.367 132.292C134.381 132.277 132.578 129.682 132.91 126.904Z" fill="#D9D9D9"/>
</g>
</g>
<g id="XMLID_25_">
<g id="Group">
<path id="Vector" d="M41.1779 109.97C40.3763 110.764 39.3386 111.134 38.2114 111.134C35.3128 111.134 34.089 109.129 34.0747 107.095C34.064 105.046 35.3916 102.965 38.2114 102.965C39.2706 102.965 40.2725 103.368 41.0741 104.162L40.0936 105.114C39.5819 104.611 38.8913 104.374 38.2114 104.374C36.3291 104.374 35.5132 105.783 35.524 107.095C35.5347 108.392 36.2826 109.747 38.2114 109.747C38.8913 109.747 39.6606 109.467 40.1723 108.953L41.1779 109.97Z" fill="#D9D9D9"/>
<path id="Vector_2" d="M47.8767 110.965V107.799H44.0442V110.965H42.5735V103.13H44.0442V106.433H47.8767V103.13H49.3367V110.965H47.8767Z" fill="#D9D9D9"/>
<path id="Vector_3" d="M56.8155 109.477H52.7361L52.067 110.955H50.4746L53.9743 103.12H55.581L59.0807 110.955H57.474L56.8155 109.477ZM54.7758 104.766L53.3266 108.101H56.2251L54.7758 104.766Z" fill="#D9D9D9"/>
<path id="Vector_4" d="M66.9782 105.28L64.4376 108.683H64.1477L61.6607 105.269V110.965H60.19V103.13H61.8826L64.323 106.502L66.7635 103.13H68.4454V110.965H66.9746V105.28H66.9782Z" fill="#D9D9D9"/>
<path id="Vector_5" d="M74.0671 108.647H71.8592V110.954H70.3885V103.12C71.6159 103.12 72.8397 103.109 74.0671 103.109C77.8781 103.109 77.8888 108.647 74.0671 108.647ZM71.8592 107.296H74.0671C75.9493 107.296 75.9386 104.521 74.0671 104.521H71.8592V107.296Z" fill="#D9D9D9"/>
<path id="Vector_6" d="M78.49 110.955V103.12H79.95V110.955H78.49Z" fill="#D9D9D9"/>
<path id="Vector_7" d="M89.7942 107.08C89.7727 109.107 88.5346 111.134 85.7935 111.134C83.0524 111.134 81.7821 109.154 81.7821 107.095C81.7821 105.035 83.099 102.965 85.7935 102.965C88.4773 102.962 89.8156 105.032 89.7942 107.08ZM83.2278 107.116C83.26 108.403 83.9506 109.779 85.7899 109.779C87.6292 109.779 88.3199 108.392 88.3413 107.105C88.3628 105.783 87.6292 104.306 85.7899 104.306C83.9542 104.306 83.1956 105.794 83.2278 107.116Z" fill="#D9D9D9"/>
<path id="Vector_8" d="M96.5574 103.109H98.0281V110.954H97.1156V110.965L93.0148 105.671V110.954H91.544V103.12H92.7356L96.5574 107.979V103.109Z" fill="#D9D9D9"/>
<path id="Vector_9" d="M104.874 105.01C104.605 104.561 103.872 104.137 103.024 104.137C101.932 104.137 101.406 104.597 101.406 105.179C101.406 105.862 102.208 106.052 103.145 106.164C104.773 106.365 106.287 106.789 106.287 108.662C106.287 110.408 104.748 111.159 103.009 111.159C101.417 111.159 100.189 110.667 99.6098 109.233L100.837 108.593C101.184 109.456 102.086 109.837 103.034 109.837C103.961 109.837 104.827 109.513 104.827 108.662C104.827 107.921 104.058 107.619 103.02 107.508C101.428 107.317 99.9533 106.893 99.9533 105.136C99.9533 103.522 101.535 102.865 102.973 102.854C104.19 102.854 105.446 103.202 106.04 104.41L104.874 105.01Z" fill="#D9D9D9"/>
<path id="Vector_10" d="M113.297 110.965V107.799H109.465V110.965H107.994V103.13H109.465V106.433H113.297V103.13H114.757V110.965H113.297Z" fill="#D9D9D9"/>
<path id="Vector_11" d="M116.711 110.955V103.12H118.171V110.955H116.711Z" fill="#D9D9D9"/>
<path id="Vector_12" d="M123.786 108.647H121.578V110.954H120.107V103.12C121.334 103.12 122.558 103.109 123.786 103.109C127.6 103.109 127.611 108.647 123.786 108.647ZM121.581 107.296H123.789C125.671 107.296 125.661 104.521 123.789 104.521H121.581V107.296Z" fill="#D9D9D9"/>
</g>
</g>
<path id="Vector_13" d="M140.572 35.4208L139.953 32.6248H112.728C112.893 35.0075 112.871 37.4011 112.542 39.7623H134.206C135.795 48.1146 138.418 67.1696 134.571 87.9496C131.851 102.634 126.409 115.526 118.389 126.261C108.899 138.969 95.6449 148.809 78.9802 155.523C62.3156 148.809 49.0611 138.973 39.5712 126.261C31.5519 115.526 26.1092 102.634 23.3896 87.9496C19.5428 67.166 22.1658 48.1146 23.7546 39.7623H45.7904C45.4076 38.6733 45.107 37.5556 44.9889 36.3984C44.8565 35.1046 45.0103 33.8251 45.4398 32.6248H18.0148L17.3957 35.4208C15.9966 41.7425 11.7919 64.316 16.4081 89.2578C19.3281 105.035 25.211 118.926 33.8886 130.548C44.4306 144.665 59.1701 155.48 77.6992 162.689L78.9838 163.188L80.2684 162.689C98.7939 155.48 113.533 144.665 124.079 130.548C132.76 118.926 138.64 105.035 141.56 89.2578C146.176 64.3196 141.971 41.7461 140.572 35.4208Z" fill="#D9D9D9"/>
<g id="XMLID_14_">
<path id="XMLID_23_" d="M73.108 37.6707L81.0986 48.4632C81.0986 48.4632 94.1384 44.7723 94.1384 44.4057C94.1384 44.0355 94.1384 31.3094 94.1384 31.3094L82.1077 26.3282L73.108 37.6707Z" fill="#D9D9D9"/>
<path id="XMLID_21_" d="M56.1499 47.7552C56.2716 46.5871 60.4369 36.9339 60.4369 36.9339C59.825 36.136 56.1499 25.5591 56.1499 25.5591L48.349 29.2357C47.848 31.4747 47.5797 33.8035 47.5797 36.1971C47.5797 38.49 47.8266 40.7219 48.2882 42.8746L48.8679 42.8998C49.7947 44.8549 56.1499 47.7552 56.1499 47.7552Z" fill="#D9D9D9"/>
<path id="XMLID_19_" d="M64.23 14.9212C64.23 14.9212 73.1081 14.4288 77.1481 16.0892C77.1481 16.0892 82.3511 9.81779 84.4946 8.95525C84.4946 8.95525 82.1758 6.57248 78.7655 4.65332C73.7736 4.68926 69.0573 5.89322 64.8777 8.00645C64.5771 9.67044 64.1477 12.524 64.23 14.9212Z" fill="#D9D9D9"/>
<path id="XMLID_17_" d="M97.3518 13.2608C97.3518 13.2608 101.453 22.2995 101.639 24.5133C101.639 24.5133 107.883 28.0174 108.681 30.5404C108.681 30.5404 109.136 29.7245 109.422 28.3768C107.905 22.4073 104.695 17.1242 100.336 13.0631C99.5418 13.0128 98.5649 13.0559 97.3518 13.2608Z" fill="#D9D9D9"/>
<path id="Vector_14" d="M99.6992 58.2962C100.336 58.2387 100.97 58.1632 101.603 58.0734C105.146 54.3788 107.804 49.8253 109.225 44.7471C108.724 44.1362 108.373 43.7911 108.373 43.7911C104.637 50.0625 101.209 50.7705 101.209 50.7705C100.769 52.9592 99.2018 56.1003 97.9243 58.4292C98.5148 58.3897 99.1088 58.3465 99.6992 58.2962Z" fill="#D9D9D9"/>
<g id="XMLID_15_">
<g id="Group_2">
<path id="Vector_15" d="M54.1961 58.4651C55.6883 58.5693 57.1841 58.6304 58.6835 58.652C52.5966 53.0958 48.7713 45.0885 48.7713 36.1972C48.7713 19.4638 62.3263 5.85364 78.9838 5.85364C95.6449 5.85364 109.196 19.4674 109.196 36.1972C109.196 44.9052 105.521 52.758 99.6527 58.2998C99.667 58.2998 99.6813 58.2962 99.6956 58.2962C102.515 58.0446 105.299 57.4157 108.098 56.9413C112.249 51.0832 114.693 43.9205 114.693 36.1972C114.693 16.4198 98.6758 0.333374 78.9838 0.333374C59.2918 0.333374 43.2748 16.4198 43.2748 36.1972C43.2748 44.4668 46.0803 52.0931 50.7787 58.1668C51.9203 58.2818 53.0582 58.3825 54.1961 58.4651Z" fill="#D9D9D9"/>
</g>
</g>
</g>
<g id="XMLID_12_">
<path id="Vector_16" d="M130.356 70.5946V73.1643C130.356 75.2524 129.429 75.9208 127.908 75.9208H126.312V67.9136H128.28C129.726 67.9136 130.356 68.733 130.356 70.5946Z" fill="#D9D9D9"/>
<path id="Vector_17" d="M48.8464 67.6153C47.551 67.6153 46.7316 68.3233 46.7316 70.1849V84.2695C46.7316 86.1312 47.551 86.8392 48.8464 86.8392C50.1454 86.8392 50.9613 86.1312 50.9613 84.2695V70.1849C50.9613 68.3233 50.1454 67.6153 48.8464 67.6153ZM48.8464 67.6153C47.551 67.6153 46.7316 68.3233 46.7316 70.1849V84.2695C46.7316 86.1312 47.551 86.8392 48.8464 86.8392C50.1454 86.8392 50.9613 86.1312 50.9613 84.2695V70.1849C50.9613 68.3233 50.1454 67.6153 48.8464 67.6153ZM141.527 58.3322H16.4439C9.695 58.3322 4.22003 63.8273 4.22003 70.6054V95.9426H153.748V70.6054C153.748 63.8273 148.276 58.3322 141.527 58.3322ZM127.722 79.6477H126.312V90.2678H122.233V64.1867H128.391C132.621 64.1867 134.435 66.1597 134.435 70.1849V72.2335C134.435 74.9181 133.583 76.6684 131.765 77.5237C133.805 78.3827 134.474 80.3557 134.474 83.0763V87.0979C134.474 88.3666 134.51 89.2974 134.918 90.2678H130.763C130.542 89.5957 130.395 89.186 130.395 87.062V82.9649C130.395 80.5426 129.579 79.6477 127.722 79.6477ZM112.696 75.1769V78.9038H107.096V86.5409H114.142V90.2678H103.016V64.1867H114.142V67.9136H107.096V75.1769H112.696ZM88.9891 67.6153C87.6937 67.6153 86.8742 68.3233 86.8742 70.1849V84.2695C86.8742 86.1312 87.6937 86.7996 88.9891 86.7996C90.288 86.7996 91.1039 86.1312 91.1039 84.2695V80.5426H94.9614V84.0072C94.9614 88.1797 92.886 90.5625 88.8781 90.5625C84.8739 90.5625 82.7948 88.1797 82.7948 84.0072V70.4473C82.7948 66.2711 84.8739 63.8884 88.8781 63.8884C92.886 63.8884 94.9614 66.2711 94.9614 70.4473V72.981H91.1039V70.1849C91.1039 68.3233 90.288 67.6153 88.9891 67.6153ZM69.1038 67.6153C67.8049 67.6153 66.989 68.3233 66.989 70.1849V84.2695C66.989 86.1312 67.8049 86.7996 69.1038 86.7996C70.4028 86.7996 71.2187 86.1312 71.2187 84.2695V80.5426H75.0762V84.0072C75.0762 88.1797 73.0007 90.5625 68.9929 90.5625C64.9887 90.5625 62.9096 88.1797 62.9096 84.0072V70.4473C62.9096 66.2711 64.9887 63.8884 68.9929 63.8884C73.0007 63.8884 75.0762 66.2711 75.0762 70.4473V72.981H71.2187V70.1849C71.2187 68.3233 70.4028 67.6153 69.1038 67.6153ZM55.0442 70.4473V84.0072C55.0442 88.1797 52.8542 90.5625 48.8464 90.5625C44.8422 90.5625 42.6522 88.1797 42.6522 84.0072V70.4473C42.6522 66.2711 44.8422 63.8884 48.8464 63.8884C52.8542 63.8884 55.0442 66.2711 55.0442 70.4473ZM22.9172 82.4043H26.7748V84.2695C26.7748 86.1312 27.5907 86.7996 28.8896 86.7996C30.185 86.7996 31.0045 86.1312 31.0045 84.2695C31.0045 78.9038 23.0282 77.8975 23.0282 70.4473C23.0282 66.2711 25.0679 63.8884 29.0363 63.8884C33.0048 63.8884 35.0445 66.2711 35.0445 70.4473V71.2667H31.187V70.1849C31.187 68.3233 30.4462 67.6153 29.1473 67.6153C27.8483 67.6153 27.1076 68.3233 27.1076 70.1849C27.1076 75.5506 35.0838 76.557 35.0838 84.0072C35.0838 88.1797 33.0048 90.5625 29.0005 90.5625C24.9927 90.5625 22.9172 88.1797 22.9172 84.0072V82.4043ZM46.7316 70.1849V84.2695C46.7316 86.1312 47.551 86.8392 48.8464 86.8392C50.1454 86.8392 50.9613 86.1312 50.9613 84.2695V70.1849C50.9613 68.3233 50.1454 67.6153 48.8464 67.6153C47.551 67.6153 46.7316 68.3233 46.7316 70.1849Z" fill="#D9D9D9"/>
<path id="XMLID_13_" d="M141.527 54.7634H16.4439C7.74476 54.7634 0.666656 61.8686 0.666656 70.6055V95.9426C0.666656 97.9121 2.25905 99.5114 4.22002 99.5114H153.748C155.712 99.5114 157.301 97.9121 157.301 95.9426V70.6055C157.301 61.8686 150.223 54.7634 141.527 54.7634ZM150.194 92.3739H7.77339V70.6055C7.77339 65.804 11.6631 61.901 16.4439 61.901H141.527C146.305 61.901 150.194 65.804 150.194 70.6055V92.3739Z" fill="#D9D9D9"/>
</g>
<g id="XMLID_10_">
<path id="XMLID_11_" d="M27.4296 119.788C15.3883 119.788 8.73957 113.452 5.27566 108.108C1.58274 102.415 0.738237 96.6865 0.702452 96.4457C0.426915 94.4942 1.77598 92.6865 3.71905 92.4097C5.66213 92.133 7.45492 93.4843 7.73761 95.4286C7.84496 96.1546 10.518 112.651 27.4439 112.651C27.5334 112.651 27.6229 112.651 27.7123 112.651C29.684 112.618 31.28 114.21 31.3015 116.184C31.3229 118.153 29.7484 119.767 27.7839 119.788C27.6658 119.788 27.5477 119.788 27.4296 119.788Z" fill="#D9D9D9"/>
</g>
<path id="XMLID_9_" d="M130.538 119.788C130.42 119.788 130.302 119.788 130.184 119.788C128.223 119.767 126.648 118.153 126.666 116.184C126.688 114.214 128.305 112.618 130.255 112.651C147.45 112.816 150.123 96.1366 150.23 95.425C150.52 93.4807 152.323 92.133 154.259 92.4169C156.195 92.7008 157.541 94.4978 157.265 96.4457C157.229 96.6865 156.385 102.415 152.696 108.108C149.228 113.452 142.579 119.788 130.538 119.788Z" fill="#D9D9D9"/>
<path id="XMLID_8_" d="M83.8075 117.535V148.116C87.7151 146.078 91.3723 143.839 94.7861 141.406V117.535H83.8075Z" fill="#D9D9D9"/>
<path id="XMLID_7_" d="M41.1063 117.535C42.527 119.939 44.0549 122.254 45.7046 124.46C47.8445 127.325 50.1991 130.038 52.7541 132.597V117.535H41.1063Z" fill="#D9D9D9"/>
<path id="XMLID_6_" d="M104.437 117.535V133.366C107.293 130.581 109.912 127.612 112.267 124.46C113.916 122.254 115.444 119.939 116.865 117.535H104.437Z" fill="#D9D9D9"/>
<path id="XMLID_5_" d="M62.4015 117.535V140.852C66.0335 143.505 69.9591 145.927 74.1637 148.116V117.535H62.4015Z" fill="#D9D9D9"/>
<path id="XMLID_4_" d="M19.1671 77.5884C19.1671 75.5938 17.5568 73.9801 15.5743 73.9801C13.5919 73.9801 11.9816 75.5974 11.9816 77.5884C11.9816 79.583 13.5919 81.1967 15.5743 81.1967C17.5568 81.1967 19.1671 79.5794 19.1671 77.5884Z" fill="#D9D9D9"/>
<path id="XMLID_3_" d="M145.578 77.5884C145.578 75.5938 143.968 73.9801 141.985 73.9801C139.999 73.9801 138.393 75.5974 138.393 77.5884C138.393 79.583 140.003 81.1967 141.985 81.1967C143.971 81.1967 145.578 79.5794 145.578 77.5884Z" fill="#D9D9D9"/>
</g>
</g>
<defs>
<clipPath id="clip0_142_336">
<rect width="156.634" height="183.333" fill="white" transform="translate(0.666656 0.333374)"/>
</clipPath>
</defs>
</svg>
