<svg width="32" height="33" viewBox="0 0 32 33" fill="none" xmlns="http://www.w3.org/2000/svg">
<g id="vuesax/linear/cup">
<g id="cup">
<path id="Vector" d="M16.2 22.5V25.3" stroke="#3D6514" stroke-width="2" stroke-linecap="round" stroke-linejoin="round"/>
<path id="Vector_2" d="M9.53333 29.8334H22.8667V28.5C22.8667 27.0334 21.6667 25.8334 20.2 25.8334H12.2C10.7333 25.8334 9.53333 27.0334 9.53333 28.5V29.8334V29.8334Z" stroke="#3D6514" stroke-width="2" stroke-miterlimit="10"/>
<path id="Vector_3" d="M8.20001 29.8334H24.2" stroke="#3D6514" stroke-width="2" stroke-linecap="round" stroke-linejoin="round"/>
<path id="Vector_4" d="M16 21.8333C10.84 21.8333 6.66666 17.66 6.66666 12.5V8.49996C6.66666 5.55329 9.05332 3.16663 12 3.16663H20C22.9467 3.16663 25.3333 5.55329 25.3333 8.49996V12.5C25.3333 17.66 21.16 21.8333 16 21.8333Z" stroke="#3D6514" stroke-width="2" stroke-linecap="round" stroke-linejoin="round"/>
<path id="Vector_5" d="M7.29333 16.0334C6.29333 15.7134 5.41333 15.1267 4.72 14.4334C3.52 13.1 2.72 11.5 2.72 9.63338C2.72 7.76672 4.18667 6.30005 6.05333 6.30005H6.92C6.65333 6.91338 6.52 7.59338 6.52 8.30005V12.3C6.52 13.6334 6.8 14.8867 7.29333 16.0334Z" stroke="#3D6514" stroke-width="2" stroke-linecap="round" stroke-linejoin="round"/>
<path id="Vector_6" d="M24.7067 16.0334C25.7067 15.7134 26.5867 15.1267 27.28 14.4334C28.48 13.1 29.28 11.5 29.28 9.63338C29.28 7.76672 27.8133 6.30005 25.9467 6.30005H25.08C25.3467 6.91338 25.48 7.59338 25.48 8.30005V12.3C25.48 13.6334 25.2 14.8867 24.7067 16.0334Z" stroke="#3D6514" stroke-width="2" stroke-linecap="round" stroke-linejoin="round"/>
</g>
</g>
</svg>
