<svg width="32" height="33" viewBox="0 0 32 33" fill="none" xmlns="http://www.w3.org/2000/svg">
<g id="Iconsax/Linear/dollarsquare">
<path id="Vector" d="M11.5627 19.6067C11.5627 21.3267 12.8827 22.7133 14.5227 22.7133H17.8693C19.296 22.7133 20.456 21.5 20.456 20.0067C20.456 18.38 19.7493 17.8067 18.696 17.4333L13.3227 15.5667C12.2693 15.1933 11.5627 14.62 11.5627 12.9933C11.5627 11.5 12.7227 10.2867 14.1493 10.2867H17.496C19.136 10.2867 20.456 11.6733 20.456 13.3933M16 8.5V24.5" stroke="#3D6514" stroke-width="2.5" stroke-linecap="round" stroke-linejoin="round"/>
<path id="Vector_2" d="M20 29.8333H12C5.33333 29.8333 2.66667 27.1666 2.66667 20.5V12.5C2.66667 5.83329 5.33333 3.16663 12 3.16663H20C26.6667 3.16663 29.3333 5.83329 29.3333 12.5V20.5C29.3333 27.1666 26.6667 29.8333 20 29.8333Z" stroke="#3D6514" stroke-width="2.5" stroke-linecap="round" stroke-linejoin="round"/>
</g>
</svg>
