<svg width="25" height="24" viewBox="0 0 25 24" fill="none" xmlns="http://www.w3.org/2000/svg">
<g id="Iconsax/Linear/call">
<path id="Vector" d="M22.4145 18.33C22.4145 18.69 22.3345 19.06 22.1645 19.42C21.9945 19.78 21.7745 20.12 21.4845 20.44C20.9945 20.98 20.4545 21.37 19.8445 21.62C19.2445 21.87 18.5945 22 17.8945 22C16.8745 22 15.7845 21.76 14.6345 21.27C13.4845 20.78 12.3345 20.12 11.1945 19.29C10.0326 18.4401 8.93615 17.5041 7.91446 16.49C6.90323 15.472 5.97056 14.3789 5.12446 13.22C4.30446 12.08 3.64446 10.94 3.16446 9.81C2.68446 8.67 2.44446 7.58 2.44446 6.54C2.44446 5.86 2.56446 5.21 2.80446 4.61C3.04446 4 3.42446 3.44 3.95446 2.94C4.59446 2.31 5.29446 2 6.03446 2C6.31446 2 6.59446 2.06 6.84446 2.18C7.10446 2.3 7.33446 2.48 7.51446 2.74L9.83446 6.01C10.0145 6.26 10.1445 6.49 10.2345 6.71C10.3245 6.92 10.3745 7.13 10.3745 7.32C10.3745 7.56 10.3045 7.8 10.1645 8.03C10.0345 8.26 9.84446 8.5 9.60446 8.74L8.84446 9.53C8.73446 9.64 8.68446 9.77 8.68446 9.93C8.68446 10.01 8.69446 10.08 8.71446 10.16C8.74446 10.24 8.77446 10.3 8.79446 10.36C8.97446 10.69 9.28446 11.12 9.72446 11.64C10.1745 12.16 10.6545 12.69 11.1745 13.22C11.7145 13.75 12.2345 14.24 12.7645 14.69C13.2845 15.13 13.7145 15.43 14.0545 15.61C14.1045 15.63 14.1645 15.66 14.2345 15.69C14.3145 15.72 14.3945 15.73 14.4845 15.73C14.6545 15.73 14.7845 15.67 14.8945 15.56L15.6545 14.81C15.9045 14.56 16.1445 14.37 16.3745 14.25C16.6045 14.11 16.8345 14.04 17.0845 14.04C17.2745 14.04 17.4745 14.08 17.6945 14.17C17.9145 14.26 18.1445 14.39 18.3945 14.56L21.7045 16.91C21.9645 17.09 22.1445 17.3 22.2545 17.55C22.3545 17.8 22.4145 18.05 22.4145 18.33Z" stroke="#DDDDDD" stroke-miterlimit="10"/>
</g>
</svg>
