<svg width="200" height="200" viewBox="0 0 200 200" fill="none" xmlns="http://www.w3.org/2000/svg">
<path d="M101.538 185.242C100.148 188.215 102.191 191.37 99.774 193.93C97.2711 191.446 99.1411 188.32 97.9615 185.309C75.3493 184.264 55.3837 176.065 39.1677 159.772C22.9517 143.489 14.3307 123.744 13.8704 100.24C12.1155 100.24 10.562 100.278 9.01804 100.23C7.6755 100.182 6.34254 100.038 5 99.5012C7.49329 97.3052 10.6003 98.8587 13.7457 97.8039C14.3594 75.0382 22.6449 55.2357 38.8129 38.8758C55.0481 22.4488 74.8314 14.0867 98.1437 13.0414C98.2301 11.9578 98.3164 10.903 98.3931 9.8577C98.4602 8.94669 98.5082 8.02609 98.5753 7C99.4192 7 99.985 7 100.762 7C100.762 9.0234 100.762 10.855 100.762 13.0127C129.224 14.1634 152.162 26.0353 169.068 48.7435C179.828 63.1854 185.332 79.6891 185.706 98.1587C188.487 98.293 191.412 98.4368 195.344 98.6286C194.011 99.5396 193.503 100.173 192.966 100.201C190.77 100.316 188.574 100.249 185.927 100.249C184.68 123.379 176.654 143.412 160.342 159.647C144.174 175.777 124.506 184.225 101.538 185.242ZM45.7558 150.815L45.8805 150.94C45.1708 149.962 44.4612 148.993 43.2145 147.267C41.5651 149.262 40.1938 150.815 38.9568 152.465C38.6115 152.925 38.6499 153.682 38.3334 155.083C39.5513 154.287 40.0308 153.932 40.539 153.644C40.9898 153.385 41.4788 153.174 42.3802 152.743C42.246 154.91 42.1405 156.521 42.0446 158.142C42.2652 158.209 42.4761 158.276 42.6967 158.343C43.368 157.211 44.0392 156.08 44.5187 155.265C45.7558 154.747 46.7052 154.344 47.5107 154.009C47.6833 152.244 47.3285 151.151 45.7558 150.815ZM104.032 88.8472C104.981 89.4897 105.921 90.1418 106.87 90.7843C108.232 93.2201 109.594 95.6558 111.099 98.3601C113.458 98.3601 115.98 98.4368 118.502 98.3409C120.967 98.245 123.499 98.8108 126.049 97.8327C125.925 90.8418 123.048 85.2895 118.359 80.3029C115.184 84.0236 112.164 87.5622 109.44 90.7459C108.155 90.7459 107.532 90.7459 106.899 90.7459C106.487 89.2691 105.432 88.7801 104.003 88.8664C101.107 87.4088 98.3164 87.4088 95.4299 88.8664C94.797 89.1828 94.1545 89.4993 93.5216 89.8253C92.5051 90.161 91.4886 90.5062 90.0501 90.9857C87.0774 87.543 84.0279 84.0236 80.9688 80.4851C75.4164 86.7567 73.23 92.1652 73.8341 98.0916C78.8207 98.0916 83.8265 98.0916 88.2473 98.0916C90.1844 95.0325 91.8434 92.4145 93.5024 89.7966C94.3079 89.8253 95.2477 90.1034 95.4107 88.8472C96.6094 88.9047 97.8177 88.9719 99.026 89.0294C99.026 92.2995 99.026 95.2243 99.026 98.5806C95.9094 98.5806 93.0613 98.5806 90.2132 98.5806C93.09 99.8273 96.1779 98.7053 99.1411 99.904C99.1411 102.867 99.1411 105.687 99.1411 108.736C98.5849 109.091 97.9328 109.503 97.2903 109.916C93.5791 107.595 89.6474 105.476 89.1583 100.451C83.884 100.451 78.8591 100.451 73.8533 100.451C72.8943 110.692 81.3715 121.634 92.0544 124.089C94.797 119.783 94.0969 114.739 94.7107 110.04C95.8039 109.944 96.5902 109.877 97.3766 109.81C98.9493 111.085 100.512 111.028 102.085 109.82C102.977 109.887 103.878 109.944 104.713 110.011C105.7 121.203 105.7 121.203 107.896 124.156C119.385 120.253 127.622 109.005 125.282 100.364C120.372 100.364 115.463 100.364 110.332 100.364C109.469 105.15 106.17 107.854 102.171 109.935C101.519 109.532 100.877 109.129 100.416 108.842C100.416 105.629 100.416 102.704 100.416 99.3382C103.571 99.3382 106.458 99.3382 109.344 99.3382C109.344 99.0505 109.344 98.7628 109.344 98.4656C106.42 98.4656 103.485 98.4656 100.158 98.4656C100.311 95.0229 99.6781 91.9734 100.58 88.8472C101.855 88.8472 102.948 88.8472 104.032 88.8472ZM96.4368 122.315C96.1875 122.478 95.7559 122.612 95.7272 122.814C94.7874 128.807 91.8817 133.755 87.8829 138.205C86.6746 139.547 85.9746 141.341 84.7663 143.374C86.2814 143.709 87.2116 143.92 87.6623 144.016C89.2062 141.619 90.3091 139.547 91.7571 137.725C95.3915 133.151 97.0409 128.049 96.3409 122.229C96.6382 121.471 96.9259 120.704 97.2231 119.946C96.9642 119.889 96.6957 119.831 96.4368 119.774C96.4368 120.618 96.4368 121.461 96.4368 122.315ZM156.775 100.412C154.32 122.459 143.771 138.521 124.256 148.763C124.256 151.371 124.18 153.893 124.275 156.406C124.371 159.014 123.834 161.68 124.669 164.25C147.338 160.472 174.285 121.644 169.222 100.412C165.146 100.412 161.052 100.412 156.775 100.412ZM29.4535 100.374C29.6261 103.941 29.3672 107.163 30.0001 110.194C31.918 119.333 34.8045 128.126 39.887 136.134C47.6737 148.408 58.1168 157.528 71.3025 163.55C72.3573 164.03 73.5752 164.126 74.9945 164.461C74.9945 159.551 74.9945 155.159 74.9945 150.537C55.0002 139.816 44.2215 123.044 42.6104 100.374C38.3047 100.374 34.2195 100.374 29.4535 100.374ZM29.2329 98.0532C34.277 98.0532 38.4773 98.0532 42.7638 98.0532C43.6269 78.8836 52.0753 63.9718 66.7762 52.6465C65.9515 47.7174 65.1843 43.0952 64.3404 38.0703C42.1405 51.9752 30.8631 71.8832 29.2329 98.0532ZM169.452 98.034C172.08 76.8027 152.958 46.49 134.786 38.6361C133.999 42.6349 133.213 46.6146 132.503 50.1915C136.109 53.7301 139.417 56.9043 142.639 60.1551C145.9 63.454 148.46 67.2898 150.302 71.5092C152.191 75.8341 154.08 80.2262 155.24 84.7716C156.343 89.1157 156.496 93.7091 157.091 98.3505C160.879 98.3505 164.523 98.3601 168.167 98.3313C168.599 98.3409 169.04 98.1395 169.452 98.034ZM83.884 138.214C70.0462 132.211 59.7374 119.553 58.1072 104.536C57.9633 103.164 57.388 101.841 56.9181 100.144C52.6891 100.518 48.508 99.7314 44.6722 100.566C44.6338 110.999 47.8367 120.215 53.0343 128.682C58.2606 137.208 65.3857 143.796 74.7164 148.149C75.1095 146.615 75.4068 145.455 75.7137 144.246C77.4973 144.141 79.0413 144.045 80.0002 143.978C81.4387 141.858 82.5511 140.209 83.884 138.214ZM125.167 146.289C136.886 140.391 145.152 131.176 150.062 119.917C152.766 113.723 154.857 107.393 154.559 100.537C150.148 100.537 146.245 100.537 142.304 100.537C141.46 108.947 139.043 116.465 134.306 123.264C129.473 130.188 122.904 134.848 115.539 138.435C116.93 140.478 118.138 142.252 119.366 144.055C120.727 144.122 122.137 144.189 123.412 144.256C123.748 144.639 123.949 144.879 124.151 145.109C124.438 145.435 124.726 145.771 125.167 146.289ZM126.932 66.6089C136.157 75.0382 141.383 85.5196 142.323 98.5039C146.715 97.9957 150.915 98.9642 155.279 97.8135C154.205 79.1234 147.53 63.7129 131.928 52.5122C130.259 57.2015 128.696 61.6223 126.932 66.6089ZM57.34 98.1683C58.4812 85.7114 62.9403 75.0286 72.5395 67.1268C70.775 62.7347 69.1352 58.6879 67.4954 54.6219C52.9767 63.3485 43.5885 84.5223 44.9119 98.1683C48.834 98.1683 52.7562 98.1683 57.34 98.1683ZM128.102 100.46C126.443 113.214 119.557 121.768 107.666 126.39C109.642 130.389 110.955 134.311 114.341 136.747C127.421 132.652 140.779 117.261 139.868 100.46C136.119 100.46 132.35 100.46 128.102 100.46ZM85.006 136.709C88.1514 133.42 89.3789 131.291 91.2009 126.026C79.2618 121.605 73.0094 112.61 71.2258 100.24C69.0106 100.24 67.1022 100.153 65.2131 100.259C63.2376 100.374 61.1375 99.693 59.2963 100.796C59.4401 116.321 70.7079 131.789 85.006 136.709ZM140.127 98.2067C140.539 86.3443 133.386 72.9764 125.666 68.7666C123.585 72.0558 121.504 75.3642 119.279 78.8932C124.573 84.2154 127.325 90.8131 128.188 98.2067C132.264 98.2067 136.032 98.2067 140.127 98.2067ZM58.999 98.082C63.5733 98.082 67.457 98.082 71.3504 98.082C72.1943 90.5733 74.9082 84.1483 80.0865 78.9987C77.7659 75.4026 75.6561 72.1038 73.3163 68.4693C64.3021 76.3615 60.0922 86.1621 58.999 98.082ZM78.9166 38.4443C79.4344 54.4014 83.4429 68.7954 92.5051 82.6523C90.7598 74.7313 88.7651 67.7789 87.7966 60.6826C86.7897 53.3945 86.7897 45.9721 86.3294 38.4443C84.1525 38.4443 81.9757 38.4443 78.9166 38.4443ZM100.647 36.9963C111.272 36.9963 121.331 36.9963 131.391 36.9963C121.811 31.7987 111.78 28.6533 100.647 28.7876C100.647 31.6261 100.647 34.081 100.647 36.9963ZM98.2396 28.778C86.7417 28.6341 76.7973 32.096 66.2583 36.862C74.3616 37.5908 94.9984 37.3607 98.2396 36.5935C98.2396 34.1098 98.2396 31.6261 98.2396 28.778ZM100.58 169.544C107.992 168.834 114.724 168.872 121.715 165.593C114.273 165.593 107.724 165.593 100.771 165.593C100.704 166.935 100.647 168.057 100.58 169.544ZM78.6865 165.478C84.8142 168.815 91.3927 168.968 98.3547 169.582C98.2876 168.124 98.2205 166.849 98.1629 165.478C91.3543 165.478 85.0252 165.478 78.6865 165.478ZM98.6808 17.3855C100.11 20.0898 96.9642 22.5447 99.8891 25.4792C100.551 23.8681 101.03 22.6982 101.529 21.4995C103.006 22.4488 103.025 25.1435 105.748 24.8654C106.065 22.4776 106.391 20.0802 106.698 17.7212C103.504 16.9156 104.933 20.1857 103.504 20.7707C102.258 19.6487 102.018 17.491 98.6808 17.3855ZM161.943 153.644C159.699 150.758 157.829 149.214 155.595 148.092C155.442 148.015 155.087 148.341 154.588 148.6C155.211 149.588 155.825 150.547 156.717 151.947C154.742 151.755 153.255 151.611 151.644 151.458C151.328 151.966 151.011 152.465 150.465 153.356C152.958 154.383 153.725 157.614 157.388 157.537C156.401 156.147 155.691 155.15 154.617 153.644C157.149 153.644 158.98 153.644 161.943 153.644ZM114.187 23.1201C115.376 24.7312 116.287 25.9874 117.246 27.1957C117.342 27.3108 117.764 27.1669 118.33 27.1094C118.071 26.0449 117.822 25.0284 117.572 24.0119C118.186 22.9571 118.79 21.9118 119.548 20.598C117.563 19.0637 115.424 18.7473 113.151 18.2486C111.588 20.8857 111.281 23.5708 112.48 26.582C112.988 25.5463 113.506 24.5106 114.187 23.1201ZM172.204 110.242C171.744 112.975 170.43 114.816 171.178 117.347C173.7 117.137 175.925 118.585 179.147 117.837C177.689 116.724 176.798 116.034 175.647 115.151C176.97 114.356 178.121 113.665 179.329 112.946C179.329 112.505 179.329 112.054 179.329 111.268C178.409 111.507 177.594 111.718 176.798 111.929C175.541 111.469 174.285 111.009 172.204 110.242ZM33.2605 136.623C32.1673 137.514 30.8919 138.56 29.7987 139.452C30.1823 142.817 30.1823 142.817 32.3591 145.004C34.8524 145.675 36.5114 144.371 37.9594 142.731C37.9115 138.262 37.806 138.119 33.2605 136.623ZM82.014 176.563C82.7333 175.528 83.4237 174.54 84.0854 173.59C82.5031 171.02 80.355 170.589 77.4973 170.963C76.922 173.025 76.3082 175.106 75.8096 177.206C75.752 177.465 76.337 177.877 76.6439 178.232C77.459 177.292 78.1974 176.439 79.329 175.134C79.9427 176.851 80.24 178.011 80.777 179.037C80.9496 179.363 81.7839 179.344 82.5702 179.546C82.3401 178.28 82.1771 177.398 82.014 176.563ZM92.1215 172.775C90.3954 175.882 90.731 178.472 91.105 181.176C92.342 181.253 93.2722 181.368 94.212 181.348C95.1422 181.329 96.0724 181.176 97.0026 181.08C96.993 180.859 96.993 180.639 96.9834 180.428C95.6313 179.977 94.2696 179.536 91.9105 178.759C94.2696 178.05 95.6025 177.647 96.9738 177.235C96.1012 175.93 93.7325 177.57 93.6366 174.981C94.7682 174.789 95.919 174.597 97.0697 174.396C97.0889 174.204 97.1081 174.012 97.1273 173.821C95.5162 173.475 93.8956 173.14 92.1215 172.775ZM85.7252 19.4665C85.6389 19.2076 85.5526 18.9486 85.4663 18.6897C83.558 19.1884 81.6592 19.6966 79.5783 20.2432C80.2591 22.9091 80.8729 25.2682 81.6209 28.1834C83.6635 26.8313 86.08 27.6176 87.7007 25.6614C86.0992 24.4722 84.1429 27.282 82.762 24.338C83.8936 23.8489 84.9581 23.4078 86.0033 22.9091C86.1472 22.842 86.1759 22.516 86.2718 22.2858C84.9197 22.142 83.6251 21.9981 81.2373 21.7392C83.3854 20.6556 84.5553 20.061 85.7252 19.4665ZM169.51 124.521C169.241 124.396 168.963 124.262 168.694 124.137C167.927 125.911 167.16 127.695 166.287 129.728C168.838 130.725 171.245 131.674 173.921 132.72C174.41 130.361 176.261 128.788 175.33 126.381C173.796 127.311 174.381 129.756 171.792 129.824C171.974 128.308 172.137 126.908 172.358 125.048C171.197 126.496 170.325 127.599 169.452 128.692C169.251 128.586 169.049 128.481 168.848 128.376C169.068 127.091 169.289 125.806 169.51 124.521ZM115.731 174.991C117.112 176.276 119.557 174.588 120.344 177.369C118.867 177.522 117.553 177.647 116.249 177.8C116.172 177.81 116.105 177.992 115.904 178.289C116.911 178.73 117.87 179.162 119.097 179.709C120.43 178.596 121.705 177.532 123.249 176.256C122.051 175.288 121.312 174.367 120.353 173.993C119.298 173.571 118.052 173.648 116.882 173.514C117.601 172.612 118.359 172.497 119.116 172.334C119.692 172.21 120.257 172.008 121.696 171.577C117.189 170.886 115.204 171.634 114.983 173.686C115.232 174.127 115.549 174.674 115.731 174.991ZM18.9625 114.077C19.6625 115.372 20.2475 116.436 20.7941 117.443C21.8202 117.443 22.5873 117.443 23.5079 117.443C24.2463 115.784 24.9368 114.231 25.6176 112.668C25.8861 112.754 26.1546 112.84 26.4136 112.927C26.3464 114.058 26.2697 115.18 26.1451 117.184C27.6794 114.308 27.9863 113.492 27.4301 112.629C26.893 111.795 26.0108 111.181 25.5985 110.788C21.8969 110.951 24.3326 115.199 20.9954 115.66C21.1681 114.356 21.379 113.214 21.4078 112.073C21.4174 111.757 20.8708 111.431 20.4584 110.97C19.9694 111.987 19.557 112.831 18.9625 114.077ZM144.356 167.3C147.875 165.343 147.875 165.343 149.295 163.186C147.78 163.828 146.447 164.384 145.2 164.902C144.807 164.327 144.634 164.078 144.423 163.771C145.257 162.869 146.101 161.968 146.945 161.066C146.821 160.942 146.696 160.817 146.562 160.692C145.526 161.182 144.5 161.671 142.515 162.61C143.33 161.086 143.608 160.472 143.972 159.897C144.318 159.34 144.74 158.832 145.123 158.295C144.96 158.142 144.797 157.988 144.644 157.835C143.196 158.88 141.738 159.935 139.945 161.229C141.498 163.397 142.946 165.372 144.356 167.3ZM60.6101 28.0492C61.8375 30.6767 62.7581 32.6234 63.8322 34.9249C65.6542 34.0427 67.1502 33.3139 68.6078 32.6042C69.2503 29.3821 68.8379 27.0039 65.1843 25.6614C63.9472 26.3039 62.4705 27.0806 60.6101 28.0492ZM28.7918 130.869C29.9425 130.178 30.7193 129.708 31.4673 129.258C31.592 126.889 30.8631 125.115 29.2809 123.485C27.2095 124.425 25.2245 125.288 23.2874 126.247C23.0476 126.371 23.0668 127.014 22.9038 127.675C23.9778 127.618 24.8313 127.58 25.656 127.541C26.6245 128.558 27.5547 129.545 28.7918 130.869ZM136.176 169.879C135.112 170.925 134.402 171.72 133.587 172.392C133.27 172.651 132.724 172.612 131.957 172.795C131.314 171.625 130.662 170.445 129.761 168.805C131.554 168.096 132.935 167.549 134.968 166.743C132.11 165.622 130.384 166.005 128.725 168.201C128.792 169.448 128.878 170.992 128.965 172.526C130.24 173.341 131.276 174.012 132.474 174.78C134.133 173.6 136.924 173.581 136.176 169.879ZM64.9925 164.806C63.8801 167.376 62.9403 169.486 62.0869 171.644C62.0006 171.874 62.48 172.334 62.8924 172.996C63.5924 172.133 64.1486 171.442 64.7336 170.704C66.3734 170.704 67.879 170.704 69.5859 170.704C69.5859 169.361 69.5859 168.326 69.5859 167.233C68.1858 166.494 66.9488 165.842 64.9925 164.806ZM162.701 141.13C164.283 142.002 165.894 142.885 167.553 143.796C167.898 143.47 168.234 143.153 168.762 142.664C167.208 141.513 165.741 140.43 164.37 139.413C164.101 138.368 163.871 137.476 163.439 135.779C161.895 138.502 160.217 140.056 159.46 143.23C160.965 142.242 161.742 141.743 162.701 141.13ZM52.5164 166.245C53.8974 164.452 55.0193 162.994 56.0934 161.613C57.129 161.872 57.9538 162.083 59.4689 162.467C57.5989 159.877 55.681 158.631 53.5617 157.653C53.3891 157.566 53.0343 157.864 52.7562 157.988C53.2932 158.88 53.8302 159.762 54.3097 160.568C53.0439 162.179 51.9411 163.598 50.7903 165.065C51.5383 165.574 51.9027 165.823 52.5164 166.245ZM132.705 33.8029C134.22 31.3288 135.332 29.1807 136.138 26.8696C136.205 26.6779 135.917 26.3614 135.629 25.7381C134.431 26.0641 133.175 26.3998 131.64 26.8217C132.455 27.5409 132.896 27.9149 133.136 28.1259C133.366 29.9863 130.787 31.2617 132.705 33.8029ZM105.825 173.159C104.761 176.045 105.307 178.673 107.206 181.09C107.551 178.318 108.357 175.47 105.825 173.159ZM75.6753 29.9191C75.7233 26.6107 75.4739 25.6422 73.6999 22.1228C73.182 22.1995 72.6162 22.2858 71.897 22.4009C73.019 25.0093 73.1724 27.867 75.6753 29.9191ZM123.249 29.5547C123.556 29.4013 123.873 29.2383 124.18 29.0848C123.949 28.6917 123.748 28.2601 123.451 27.9341C123.374 27.8478 122.942 28.0971 122.674 28.1834C122.866 28.6341 123.058 29.0944 123.249 29.5547Z" fill="white"/>
<path d="M114.379 21.8447C114.609 21.068 114.734 20.646 114.964 19.8501C115.798 20.4159 116.46 20.8666 117.898 21.8447C116.153 21.8447 115.357 21.8447 114.379 21.8447Z" fill="white"/>
<path d="M172.463 114.806C172.827 114.049 173.144 113.387 173.47 112.716C173.719 112.773 173.978 112.831 174.227 112.888C174.227 113.703 174.227 114.509 174.227 115.573C173.489 115.257 173.105 115.084 172.463 114.806Z" fill="white"/>
<path d="M45.7553 150.815C45.6978 151.4 45.6402 151.976 45.5443 153.011C44.547 152.647 43.7799 152.359 43.0127 152.081C43.0511 151.784 43.0894 151.486 43.1278 151.189C44.0484 151.103 44.969 151.026 45.88 150.94L45.7553 150.815Z" fill="white"/>
<path d="M31.8131 142.827C30.9597 140.257 32.7146 139.547 34.3448 138.406C35.0544 139.001 35.8024 139.634 36.5024 140.219C34.9393 143.144 34.9393 143.144 31.8131 142.827Z" fill="white"/>
<path d="M79.4912 171.596C80.5557 172.267 81.1694 172.641 82.1571 173.264C81.2557 173.907 80.6324 174.348 79.4912 175.154C79.4912 173.706 79.4912 172.919 79.4912 171.596Z" fill="white"/>
<path d="M65.2412 32.6618C64.4645 31.3288 63.6781 29.9767 62.7959 28.4711C63.7453 28.03 64.2631 27.7807 65.0686 27.4067C65.9796 28.4711 66.8331 29.4684 68.2811 31.1466C67.2838 31.6357 66.4975 32.0289 65.2412 32.6618Z" fill="white"/>
<path d="M29.7598 125.882C29.6064 127.254 29.52 127.954 29.357 129.373C28.4748 128.136 28.0049 127.474 27.4199 126.669C28.2063 126.41 28.6282 126.266 29.7598 125.882Z" fill="white"/>
<path d="M66.8048 167.012C67.3419 167.472 67.8885 167.942 68.6077 168.556C67.9268 169.112 67.3898 169.544 66.4308 170.33C66.1623 169.035 66.0089 168.287 65.8555 167.53C66.1719 167.357 66.4884 167.185 66.8048 167.012Z" fill="white"/>
</svg>
