<svg width="195" height="173" viewBox="0 0 195 173" fill="none" xmlns="http://www.w3.org/2000/svg">
<path d="M194.5 1.33346C192.834 7.59879 190.951 13.8053 189.588 20.1393C188.833 23.6592 187.156 25.8555 183.96 27.4047C173.135 32.6307 162.487 38.2097 151.574 43.2396C147.623 45.0633 145.701 47.3282 146.505 52.5347C159.654 46.2105 172.528 40.0138 186.117 33.4739C184.225 41.161 182.617 48.2401 180.626 55.2212C180.264 56.4762 178.469 57.5744 177.097 58.2607C167.351 63.0945 157.654 68.0558 147.702 72.4288C143.672 74.1937 141.858 76.5174 142.201 81.4493C154.536 76.8116 165.948 70.6443 178.479 64.3398C176.577 71.8993 175.077 78.5078 173.145 84.9791C172.704 86.4596 170.959 87.8519 169.478 88.6657C162.811 92.3524 156.124 96.0292 149.261 99.304C143.701 101.951 137.848 103.981 132.151 106.364C120.777 111.119 109.698 116.423 99.9223 125.209C99.9223 116.512 99.8438 108.599 99.9419 100.696C100.099 87.8617 100.52 75.0271 100.53 62.1925C100.54 52.0052 105.119 44.4358 113.188 38.8078C116.091 36.788 119.365 35.1898 122.63 33.8073C146.27 23.8161 169.949 13.9229 192.206 1.00009C192.873 0.617699 193.726 0.558869 194.491 0.352966C194.5 0.676528 194.5 1.00989 194.5 1.33346Z" fill="white"/>
<path d="M94.5193 125.473C83.7829 115.845 71.9091 110.609 59.8491 105.716C49.0147 101.324 38.0528 97.2744 28.0518 91.0091C23.2376 87.9892 20.3648 84.381 19.0215 78.6549C13.2366 53.976 6.96148 29.4147 0.882441 4.81421C0.549074 3.44152 0.372586 2.03942 0 0C4.12786 2.29435 7.53997 4.48084 11.1874 6.15748C31.0913 15.3545 51.0737 24.3848 70.9679 33.6014C75.0663 35.5035 79.1942 37.5822 82.8122 40.2589C88.9305 44.779 93.1564 50.9757 93.3819 58.7117C93.9996 80.6159 94.1663 102.54 94.5193 125.473Z" fill="white"/>
<path d="M92.823 157.692C92.823 153.79 92.9406 149.888 92.7838 145.995C92.6759 143.387 93.7446 142.553 96.2155 142.74C102.863 143.24 109.521 142.936 116.149 142.622C118.551 142.514 120.385 144.936 123.287 143.152C125.199 141.975 128.346 142.74 130.935 142.769C135.739 142.828 138.426 144.828 138.71 149.584C139.122 156.545 138.965 163.546 138.828 170.527C138.808 171.321 137.475 172.596 136.592 172.753C134.71 173.096 132.709 172.762 130.768 172.89C128.111 173.066 127.983 171.439 127.993 169.478C128.032 163.791 127.954 158.104 128.023 152.417C128.052 149.937 127.013 148.858 124.522 148.936C122.198 149.005 121.424 150.211 121.434 152.358C121.473 157.722 121.463 163.075 121.434 168.438C121.414 172.792 121.385 172.87 117.296 172.851C109.266 172.811 110.638 173.674 110.531 166.213C110.462 161.987 110.482 157.761 110.531 153.545C110.56 151.113 110.531 148.887 107.138 148.946C103.559 149.015 104.069 151.584 104.059 153.8C104.03 158.839 103.932 163.879 104.099 168.909C104.187 171.713 103.55 173.037 100.363 172.929C91.3424 172.635 92.9897 173.841 92.823 165.477C92.774 162.889 92.823 160.291 92.823 157.692Z" fill="white"/>
<path d="M155.564 142.759C158.81 142.759 162.055 142.652 165.291 142.789C169.938 142.985 172.703 145.358 172.899 149.937C173.184 156.731 172.978 163.556 173.046 170.36C173.066 172.272 172.193 172.9 170.399 172.88C163.026 172.831 155.643 172.851 148.269 172.841C147.946 172.841 147.622 172.802 147.299 172.743C142.553 171.831 141.004 168.34 141.671 160.026C142.102 154.663 143.936 152.594 148.544 152.456C151.78 152.368 155.035 152.535 158.27 152.368C159.182 152.319 160.055 151.466 160.947 150.986C160.094 150.241 159.271 148.887 158.378 148.838C154.172 148.603 149.946 148.632 145.74 148.75C143.455 148.809 142.632 148.025 142.622 145.681C142.612 143.23 143.671 142.651 145.848 142.72C149.073 142.838 152.319 142.759 155.564 142.759ZM160.977 162.33C161.31 159.967 160.879 158.379 157.81 158.477C155.054 158.565 153.633 159.388 153.692 162.379C153.76 165.811 154.27 166.428 157.368 166.556C160.467 166.674 161.359 165.124 160.977 162.33Z" fill="white"/>
<path d="M39.034 172.88C35.7885 172.88 32.5431 172.978 29.3075 172.851C24.5815 172.664 22.0028 170.468 21.7283 165.722C21.4244 160.398 21.4538 155.025 21.7871 149.701C22.0617 145.407 24.7874 142.985 29.18 142.838C35.0139 142.642 40.8479 142.749 46.6818 142.798C49.6036 142.828 52.0843 144.348 52.4078 147.113C52.8687 151.054 52.7216 155.143 52.1725 159.084C51.7705 161.947 49.3193 163.222 46.3778 163.212C42.9755 163.193 39.5634 163.114 36.1709 163.291C35.3473 163.33 34.5629 164.261 33.7589 164.791C34.5335 165.438 35.2885 166.605 36.1023 166.644C40.3086 166.85 44.5247 166.85 48.7408 166.752C51.1626 166.693 52.2706 167.419 52.1333 170.066C52.0254 172.145 51.3391 172.958 49.2605 172.9C45.8484 172.811 42.4363 172.88 39.034 172.88ZM33.6511 153.005C33.6609 156.761 33.955 157.084 37.0043 157.045C40.24 157.006 40.9067 156.329 40.9361 153.025C40.9557 149.642 40.24 148.985 37.1318 148.936C33.906 148.887 33.3765 150.74 33.6511 153.005Z" fill="white"/>
<path d="M61.8593 172.88C61.6927 172.88 61.5358 172.88 61.3691 172.88C55.4763 172.831 55.8391 173.517 55.8293 167.419C55.8195 160.438 55.9764 153.457 55.7607 146.495C55.6626 143.416 56.8 142.112 59.6532 142.828C62.1535 143.456 65.6538 140.661 67.1148 144.917C67.6736 144.691 68.2325 144.436 68.8012 144.24C70.3014 143.74 71.8113 142.936 73.3311 142.907C74.1547 142.887 75.4587 144.054 75.7333 144.936C76.1451 146.27 76.1353 147.907 75.7431 149.25C75.4783 150.152 74.3312 151.241 73.4095 151.437C68.3012 152.545 67.8501 152.957 67.8011 158.094C67.7717 161.663 67.605 165.242 67.8501 168.801C68.0658 171.949 67.0559 173.39 63.8007 172.91C63.1732 172.802 62.5065 172.88 61.8593 172.88Z" fill="white"/>
<path d="M89.9787 158.173C89.9787 162.065 89.8905 165.968 90.0081 169.86C90.0866 172.213 89.1257 172.959 86.8509 172.919C75.8106 172.694 78.0461 174.272 77.85 164.536C77.7324 158.536 77.9677 152.525 77.7716 146.525C77.6736 143.475 78.7717 142.622 81.7132 142.71C91.7632 143.005 89.7532 141.534 89.9689 150.878C90.0277 153.3 89.9787 155.741 89.9787 158.173Z" fill="white"/>
<path d="M83.7439 140.024C82.7732 140.024 81.7829 139.945 80.822 140.034C78.3904 140.279 77.8119 139.043 77.7923 136.847C77.7727 134.533 78.6159 133.572 80.9299 133.739C82.5477 133.857 84.1753 133.739 85.8029 133.758C87.8522 133.788 89.9896 133.249 90.0779 136.71C90.1759 140.377 88.0188 140.073 85.6951 140.024C85.0382 140.014 84.391 140.034 83.7439 140.024Z" fill="white"/>
</svg>
