<svg width="200" height="200" viewBox="0 0 200 200" fill="none" xmlns="http://www.w3.org/2000/svg">
<path d="M138.05 41.7201C128.933 31.7301 116.188 26 103.082 26C89.9766 26 77.2313 31.7301 68.1145 41.7201C58.867 51.8532 54.2592 65.4149 55.4654 78.9446V113.718C54.1408 114.564 53.2578 116.044 53.2578 117.728C53.2578 120.353 55.3939 122.489 58.0184 122.489C60.643 122.489 62.7791 120.353 62.7791 117.728C62.7791 116.009 61.8615 114.507 60.4925 113.668V78.8311L60.4826 78.6017C59.3702 66.4386 63.5043 54.231 71.8269 45.1093C79.994 36.1602 91.3851 31.0295 103.08 31.0295C114.774 31.0295 126.166 36.1627 134.333 45.1093C142.658 54.231 146.792 66.4386 145.679 78.6017L145.67 119.522C145.67 120.91 146.794 122.035 148.183 122.035C149.572 122.035 150.697 120.91 150.697 119.522V78.9446C151.903 65.4149 147.295 51.8532 138.047 41.7201H138.05Z" fill="white"/>
<path d="M135.211 56.3006C132.399 51.2858 127.668 45.3239 119.942 41.318C107.372 34.7986 91.5629 36.0763 80.6035 44.5C72.7866 50.5064 68.5613 59.337 67.212 65.5999C66.7581 67.7015 66.3314 70.8638 66.0946 73.8485C65.9515 75.6491 65.5717 80.4345 66.0995 85.7452C66.3339 88.1132 67.0466 95.3208 70.3125 101.823C75.1422 111.433 84.9621 118.732 95.9412 120.871C98.361 121.342 100.68 121.542 102.873 121.542C111.995 121.542 118.953 118.086 121.891 116.335C131.57 110.568 135.899 102.067 137.616 97.5137C138.107 96.2138 137.451 94.7634 136.151 94.2725C134.856 93.7841 133.4 94.4378 132.91 95.7377C131.422 99.677 127.68 107.03 119.313 112.013C116.163 113.893 107.668 118.029 96.9008 115.933C87.4165 114.085 78.9509 107.812 74.8044 99.5635C71.9579 93.8951 71.3141 87.388 71.1019 85.2494C70.6185 80.3827 70.9737 75.9254 71.1069 74.2481C71.3239 71.5101 71.7235 68.5328 72.1281 66.6606C73.2899 61.2709 76.9306 53.6686 83.6695 48.4911C93.1095 41.2341 106.755 40.1463 117.629 45.7851C124.257 49.2237 128.354 54.4752 130.746 58.6661C130.339 59.3666 130.1 60.1806 130.1 61.0489C130.1 63.6734 132.236 65.8096 134.861 65.8096C137.485 65.8096 139.621 63.6734 139.621 61.0489C139.621 58.4244 137.673 56.4856 135.211 56.3055V56.3006Z" fill="white"/>
<path d="M126.731 83.9963C129.355 83.9963 131.491 81.8602 131.491 79.2356C131.491 76.6111 129.355 74.475 126.731 74.475C124.876 74.475 123.27 75.543 122.483 77.097H81.4127C81.4645 76.214 81.5459 75.289 81.6643 74.327C82.0269 71.3497 82.3697 68.5402 83.7165 65.4864C85.0633 62.4302 88.3169 56.8999 94.9621 54.2039C99.9398 52.1837 104.696 52.6721 108.117 53.6069C108.655 55.6469 110.51 57.1565 112.715 57.1565C115.34 57.1565 117.476 55.0203 117.476 52.3958C117.476 49.7713 115.34 47.6351 112.715 47.6351C111.519 47.6351 110.426 48.0816 109.587 48.8142C105.342 47.6351 99.3651 46.9889 93.0702 49.5443C84.7821 52.9089 80.7689 59.707 79.1137 63.4588C77.466 67.1934 77.0442 70.6615 76.6717 73.7202C75.9959 79.2578 76.4004 83.762 76.7038 85.9524C77.2095 89.6105 77.6855 93.0663 79.6909 96.9315C83.8423 104.931 91.0943 108.313 93.2181 109.159C95.2211 109.956 98.6695 111.007 102.927 111.007C104.804 111.007 106.837 110.802 108.976 110.281C111.208 109.736 113.364 108.89 115.384 107.76C116.598 107.082 117.032 105.55 116.353 104.339C115.675 103.128 114.146 102.694 112.932 103.37C111.307 104.277 109.578 104.961 107.784 105.395C101.948 106.813 96.9551 105.232 95.0805 104.485C93.8595 103.999 87.5941 101.238 84.1556 94.6153C82.5498 91.5197 82.1699 88.7595 81.6865 85.2642C81.5829 84.5094 81.4645 83.4413 81.3954 82.129H122.957C123.827 83.2637 125.194 84.0013 126.733 84.0013L126.731 83.9963Z" fill="white"/>
<path d="M58.801 164.358C54.2845 168.673 49.6274 169.573 44.5634 167.119C43.3695 166.541 42.3236 165.796 41.4529 164.913C39.0873 162.503 38.3695 159.573 38.1549 158.088C38.1081 157.506 38.1007 156.911 38.1327 156.322C38.1327 156.312 38.1673 155.673 38.2585 155.059C38.4263 153.956 39.5264 148.347 44.7459 146.105C49.9802 143.858 54.5386 144.78 58.6826 148.929L59.2006 149.45L62.7797 146.339L62.2346 145.745C59.0008 142.222 54.6644 140.244 50.0246 140.173C45.3996 140.118 41.1446 141.899 37.9009 145.229C34.7608 148.448 33.0785 152.901 33.2833 157.444C33.488 161.988 35.5674 166.27 38.9862 169.195C42.3088 172.037 46.1174 173.253 49.7754 173.253C54.5065 173.253 58.986 171.221 61.8374 168.048L62.2667 167.572L59.4448 163.749L58.7985 164.363L58.801 164.358Z" fill="white"/>
<path d="M89.3465 164.358C84.8276 168.67 80.1705 169.573 75.1089 167.118C71.8702 165.55 69.8302 162.866 68.888 158.934H83.8236C85.1433 158.934 86.2138 157.864 86.2138 156.544C86.2138 155.224 85.1433 154.154 83.8236 154.154H68.92C69.5268 150.856 72.1884 147.434 75.289 146.1C80.5232 143.853 85.0816 144.775 89.2256 148.924L89.7437 149.445L93.3228 146.334L92.7777 145.74C89.5439 142.217 85.2074 140.239 80.5676 140.168C76.0043 140.084 71.6901 141.894 68.444 145.224C65.3039 148.443 63.6216 152.896 63.8263 157.439C64.0311 161.98 66.1105 166.263 69.5293 169.188C72.8494 172.03 76.6604 173.246 80.316 173.246C85.0471 173.246 89.5266 171.216 92.3805 168.041L92.8097 167.565L89.9878 163.742L89.3416 164.358H89.3465Z" fill="white"/>
<path d="M18.1903 140.209C14.8554 140.027 11.7671 141.093 9.50761 143.226C7.25061 145.36 6.00494 148.377 6 151.721C6 152.957 6 159.469 6 171.255V173.177H10.9235V159.084H23.6762V173.223H27.6155L28.2297 173.107L28.4048 172.56C28.4418 172.459 28.4936 172.323 28.4961 172.131C28.5035 159.336 28.501 152.496 28.4714 150.634C28.3826 145.382 23.5775 140.51 18.1903 140.209ZM23.6343 152.797C23.6145 153.039 23.5874 153.374 23.5775 154.205H10.889C10.889 154.166 10.8865 154.126 10.8865 154.087C10.8865 153.409 10.8865 153.002 10.8643 152.745L10.889 151.445C10.9309 148.095 13.5851 145.2 16.8041 144.995C20.2155 144.751 23.2519 147.286 23.5233 150.592C23.6713 152.378 23.6639 152.452 23.6367 152.794L23.6343 152.797Z" fill="white"/>
<path d="M158.621 145.224C155.481 148.443 153.799 152.896 154.003 157.439C154.208 161.983 156.288 166.265 159.706 169.191C162.765 171.808 166.438 173.216 170.33 173.265L171.127 173.275V168.48L170.365 168.458C168.722 168.411 167.013 167.96 165.283 167.121C161.798 165.431 159.699 162.449 158.878 158.098C158.838 157.533 158.833 156.961 158.858 156.396C158.88 155.915 158.924 155.466 158.984 155.039C159.22 153.132 159.928 151.317 161.031 149.793C162.232 148.128 163.808 146.815 165.466 146.105C167.151 145.382 168.798 144.99 170.37 144.936L171.13 144.909V140.168L170.335 140.175C165.915 140.219 161.756 142.015 158.623 145.227L158.621 145.224Z" fill="white"/>
<path d="M126.307 139.896H103.994V144.632H112.748V172.987H117.553V144.632H126.307V139.896Z" fill="white"/>
<path d="M189.169 140.015V154.173H181.042V140.015H176.237V173.108H181.042V158.912H189.169V173.108H193.972V140.015H189.169Z" fill="white"/>
<path d="M147.713 168.256L147.42 167.58L146.724 167.831C143.858 168.867 140.94 168.638 137.807 167.119C134.568 165.55 132.528 162.866 131.586 158.934H148.912V154.154H131.618C132.225 150.856 134.886 147.434 137.987 146.1C141.122 144.753 144.092 144.566 146.815 145.538L147.513 145.787L147.802 145.106C148.221 144.117 148.616 143.13 148.996 142.141L149.287 141.386L148.525 141.117C142.385 138.949 135.725 140.523 131.144 145.224C128.004 148.443 126.322 152.896 126.527 157.439C126.732 161.98 128.811 166.263 132.23 169.188C135.358 171.867 139.186 173.265 143.086 173.265C144.899 173.265 146.729 172.962 148.512 172.345L149.292 172.074L148.986 171.309C148.579 170.298 148.157 169.279 147.713 168.261V168.256Z" fill="white"/>
</svg>
