<svg width="200" height="200" viewBox="0 0 200 200" fill="none" xmlns="http://www.w3.org/2000/svg">
<mask id="mask0_734_245" style="mask-type:luminance" maskUnits="userSpaceOnUse" x="9" y="9" width="182" height="182">
<path d="M191 9H9V191H191V9Z" fill="white"/>
</mask>
<g mask="url(#mask0_734_245)">
<path d="M38.7762 74.9124C39.5683 75.1953 40.208 75.5827 40.6955 76.0745C41.1829 76.5662 41.4919 77.1407 41.6181 77.7979C41.7443 78.455 41.6703 79.1601 41.4005 79.913C41.1394 80.6442 40.7564 81.223 40.2559 81.6538C39.7554 82.0847 39.1592 82.3415 38.4672 82.4242C37.7752 82.5068 37.0223 82.4024 36.2041 82.1108C35.412 81.8279 34.7723 81.4406 34.2849 80.9488C33.7974 80.457 33.4884 79.8825 33.3579 79.2254C33.2273 78.5682 33.3013 77.8632 33.5668 77.1103C33.8279 76.3791 34.2109 75.8003 34.7114 75.3694C35.2118 74.9386 35.8124 74.6861 36.5044 74.6035C37.2008 74.5208 37.9537 74.6252 38.7762 74.9168V74.9124ZM38.1887 76.5532C37.34 76.2485 36.635 76.1833 36.0692 76.3573C35.5034 76.5314 35.1074 76.9362 34.8767 77.5759C34.6461 78.2157 34.6983 78.7815 35.0204 79.2732C35.3468 79.765 35.9343 80.1654 36.7786 80.4701C37.6273 80.7747 38.3323 80.8356 38.8937 80.6616C39.4551 80.4875 39.8512 80.0784 40.0775 79.4386C40.3038 78.7989 40.2603 78.2331 39.9382 77.7413C39.6162 77.2495 39.033 76.8535 38.1843 76.5488L38.1887 76.5532ZM41.6094 81.3579C41.7052 81.0968 41.8488 80.9096 42.049 80.8052C42.2492 80.7007 42.4711 80.692 42.7148 80.7791C42.9586 80.8661 43.1283 81.0141 43.2197 81.223C43.3111 81.4319 43.3111 81.6669 43.2197 81.928C43.1239 82.1891 42.976 82.3719 42.7758 82.4764C42.5712 82.5808 42.3493 82.5895 42.1056 82.4981C41.8618 82.4111 41.6965 82.2631 41.6094 82.0542C41.5224 81.8453 41.5267 81.6103 41.6181 81.3492L41.6094 81.3579ZM42.4798 78.9294C42.5756 78.6683 42.7192 78.4812 42.9194 78.3767C43.1196 78.2723 43.3415 78.2636 43.5853 78.3506C43.829 78.4376 43.9987 78.5856 44.0901 78.7945C44.1815 79.0034 44.1815 79.2384 44.0901 79.4996C43.9944 79.7607 43.8464 79.9435 43.6462 80.0479C43.4416 80.1524 43.2197 80.1611 42.976 80.0697C42.7323 79.9826 42.5669 79.8347 42.4798 79.6258C42.3928 79.4169 42.3971 79.1818 42.4885 78.9207L42.4798 78.9294Z" fill="white"/>
<path d="M42.4191 82.62C42.3103 82.62 42.1972 82.5982 42.0797 82.5547C41.8229 82.4633 41.6445 82.3023 41.5487 82.0803C41.4573 81.8627 41.4573 81.6103 41.5574 81.3361C41.6575 81.0619 41.8142 80.8661 42.0231 80.7529C42.2364 80.6441 42.4757 80.6311 42.7325 80.7225C42.9893 80.8139 43.1721 80.9749 43.2678 81.1968C43.3635 81.4188 43.3635 81.6669 43.2678 81.9454C43.1677 82.2196 43.011 82.4154 42.7978 82.5242C42.6803 82.5852 42.5541 82.6156 42.4235 82.6156L42.4191 82.62ZM41.6575 81.3753C41.5705 81.6233 41.5661 81.8453 41.6488 82.0411C41.7315 82.237 41.8838 82.3719 42.1145 82.4546C42.3452 82.5373 42.5497 82.5286 42.7412 82.4328C42.9327 82.3371 43.072 82.163 43.159 81.9149C43.246 81.6669 43.2504 81.4405 43.1633 81.2491C43.0763 81.0532 42.924 80.9183 42.6933 80.8313C42.467 80.7486 42.2538 80.7573 42.071 80.853C41.8838 80.9488 41.7446 81.1272 41.6575 81.3753ZM37.9887 82.5025C37.4229 82.5025 36.8137 82.3893 36.1739 82.1586C35.3775 81.8758 34.729 81.4797 34.2372 80.9836C33.7411 80.4874 33.4277 79.8956 33.2972 79.2297C33.1666 78.5638 33.2406 77.8414 33.5104 77.0841C33.7715 76.3486 34.1632 75.7567 34.6724 75.3215C35.1816 74.8863 35.7953 74.6252 36.4959 74.5425C37.1923 74.4598 37.967 74.5643 38.7895 74.8602C39.5816 75.1431 40.2344 75.5391 40.7262 76.0353C41.218 76.5314 41.5357 77.1189 41.6619 77.7848C41.7881 78.4507 41.7141 79.1688 41.4443 79.926C41.1788 80.6615 40.7915 81.2534 40.2823 81.6886C39.7731 82.1238 39.1638 82.385 38.4631 82.472C38.3064 82.4894 38.1497 82.4981 37.9887 82.4981V82.5025ZM36.966 74.6252C36.8093 74.6252 36.657 74.6339 36.5047 74.6513C35.8257 74.734 35.2295 74.9864 34.7377 75.4086C34.2459 75.8307 33.8629 76.4052 33.6062 77.1233C33.3407 77.8631 33.2711 78.5638 33.3973 79.2123C33.5235 79.8564 33.8281 80.4265 34.3068 80.9096C34.7856 81.3927 35.4253 81.78 36.2044 82.0585C37.0095 82.3458 37.7624 82.4502 38.4457 82.3675C39.1203 82.2849 39.7165 82.0281 40.2083 81.6103C40.7001 81.1881 41.083 80.6137 41.3398 79.8956C41.6053 79.1557 41.6749 78.455 41.5531 77.8109C41.4312 77.1668 41.1266 76.5967 40.6478 76.1179C40.1691 75.6349 39.5294 75.2475 38.7503 74.969C38.1193 74.7427 37.523 74.6295 36.966 74.6295V74.6252ZM38.2194 80.8138C37.7885 80.8138 37.3011 80.7181 36.7571 80.5223C35.9041 80.2176 35.2991 79.8085 34.9684 79.308C34.6333 78.8032 34.581 78.2157 34.816 77.5628C35.0511 76.91 35.4602 76.4879 36.0433 76.3094C36.6135 76.131 37.3403 76.2006 38.1976 76.5053C39.055 76.8099 39.6512 77.219 39.9776 77.7195C40.3084 78.2244 40.3563 78.8119 40.1212 79.4647C39.8862 80.1175 39.4771 80.5397 38.9027 80.7181C38.6938 80.7834 38.4631 80.8138 38.215 80.8138H38.2194ZM36.731 76.3181C36.4916 76.3181 36.274 76.3486 36.0738 76.4095C35.5298 76.5793 35.1381 76.9753 34.9205 77.5933C34.6985 78.2113 34.7464 78.7684 35.0598 79.2427C35.3775 79.7215 35.9606 80.1175 36.7919 80.4178C37.6231 80.7138 38.3238 80.779 38.8722 80.6093C39.4118 80.4396 39.7992 80.0392 40.0211 79.4212C40.2431 78.8032 40.1996 78.2461 39.8862 77.7717C39.5729 77.293 38.9897 76.897 38.1584 76.601C37.6275 76.4095 37.1488 76.3138 36.731 76.3138V76.3181ZM43.2809 80.1915C43.1721 80.1915 43.0589 80.1697 42.9414 80.1262C42.6846 80.0348 42.5062 79.8738 42.4104 79.6562C42.319 79.4342 42.319 79.1862 42.4191 78.912C42.5192 78.6378 42.6759 78.442 42.8848 78.3332C43.0981 78.22 43.3374 78.2113 43.5942 78.3027C43.851 78.3941 44.0338 78.5551 44.1295 78.7771C44.2253 78.999 44.2253 79.2471 44.1295 79.5256C44.0294 79.7998 43.8727 79.9957 43.6551 80.1045C43.5376 80.1654 43.4114 80.1959 43.2809 80.1959V80.1915ZM43.2547 78.3462C43.1416 78.3462 43.0371 78.3723 42.9327 78.4246C42.7455 78.5203 42.6063 78.6987 42.5192 78.9468C42.4322 79.1949 42.4278 79.4212 42.5105 79.6127C42.5932 79.8085 42.7455 79.9434 42.9762 80.0261C43.2025 80.1088 43.4158 80.1001 43.6029 80.0044C43.7944 79.9086 43.9337 79.7345 44.0207 79.4865C44.1078 79.2384 44.1121 79.0121 44.0251 78.8206C43.938 78.6247 43.7857 78.4898 43.555 78.4071C43.4506 78.368 43.3505 78.3506 43.2547 78.3506V78.3462Z" fill="white"/>
<path d="M34.9998 85.0223C35.3959 84.426 35.805 84.0257 36.2228 83.8211C36.6406 83.6166 37.1236 83.5774 37.6633 83.6992C38.364 83.8603 38.8601 84.2433 39.1604 84.8525C39.4607 85.4575 39.5086 86.193 39.3127 87.0504C39.1474 87.7684 38.8514 88.443 38.4249 89.0741L37.1541 88.7825C37.5414 88.121 37.8069 87.4856 37.9462 86.8763C38.1464 86.0102 37.9636 85.5097 37.3978 85.3792C37.1889 85.3313 37.0018 85.3661 36.8321 85.488C36.6623 85.6098 36.4578 85.8579 36.2141 86.2322L35.7266 86.9764C35.3175 87.5987 34.9084 88.0209 34.5037 88.2298C34.0989 88.443 33.6246 88.4865 33.0806 88.3603C32.3146 88.1819 31.7749 87.7728 31.4572 87.1287C31.1395 86.4846 31.0917 85.6881 31.3093 84.7394C31.405 84.3259 31.5399 83.9256 31.7096 83.5339C31.8837 83.1378 32.0709 82.8114 32.2711 82.5503L33.5419 82.8419C33.346 83.1857 33.1676 83.5556 33.0022 83.9604C32.8368 84.3651 32.7193 84.735 32.641 85.0701C32.5409 85.5054 32.5453 85.8579 32.6497 86.1277C32.7542 86.3975 32.9587 86.5716 33.2546 86.6369C33.4853 86.6891 33.6855 86.663 33.8509 86.5499C34.0163 86.4367 34.2339 86.1843 34.495 85.7882L34.9998 85.0223Z" fill="white"/>
<path d="M38.4463 89.135L37.0667 88.8173L37.1059 88.752C37.4889 88.0992 37.7543 87.4638 37.8936 86.8632C37.9894 86.4411 37.9937 86.1103 37.9067 85.871C37.8196 85.6359 37.6499 85.4967 37.3844 85.4314C37.1886 85.3879 37.0188 85.4183 36.8622 85.5315C36.7011 85.6446 36.4966 85.8927 36.2572 86.2626L35.7698 87.0069C35.3563 87.6379 34.9385 88.0644 34.5251 88.282C34.1073 88.4996 33.6199 88.5431 33.0671 88.4169C32.2881 88.2385 31.731 87.812 31.4046 87.1548C31.0826 86.502 31.0347 85.6838 31.2523 84.7307C31.3481 84.3173 31.483 83.9082 31.6571 83.5121C31.8311 83.1161 32.0226 82.781 32.2272 82.5155L32.2489 82.4894L33.6242 82.8071L33.5894 82.8724C33.3979 83.2075 33.2151 83.5818 33.0541 83.9821C32.8931 84.3825 32.7712 84.7525 32.6929 85.0876C32.5971 85.5097 32.5971 85.8535 32.6972 86.1147C32.7973 86.3714 32.9801 86.5281 33.263 86.5934C33.4806 86.6456 33.6634 86.6195 33.8157 86.5151C33.9767 86.4063 34.1856 86.1582 34.4468 85.7665L34.9516 85.0005C35.352 84.3956 35.7698 83.9865 36.1963 83.7776C36.6228 83.5687 37.1233 83.5252 37.676 83.6514C38.3897 83.8168 38.9033 84.2128 39.2079 84.8308C39.5126 85.4445 39.5648 86.1974 39.3646 87.0678C39.1992 87.7902 38.8946 88.4779 38.4681 89.1089L38.4463 89.1394V89.135ZM37.2364 88.7433L38.3985 89.0132C38.8075 88.4039 39.0991 87.738 39.2602 87.0417C39.456 86.1974 39.4038 85.4706 39.1122 84.8787C38.8206 84.2911 38.3332 83.9125 37.6542 83.7558C37.1276 83.634 36.6533 83.6731 36.2485 83.8733C35.8394 84.0735 35.4347 84.4696 35.0473 85.0571L34.5425 85.8231C34.2727 86.2278 34.0551 86.4846 33.881 86.5978C33.7025 86.7196 33.4893 86.7501 33.2412 86.6935C32.9279 86.6195 32.7103 86.4367 32.5971 86.1495C32.4883 85.8666 32.484 85.501 32.5884 85.0615C32.6667 84.722 32.7886 84.3477 32.954 83.943C33.1107 83.56 33.2804 83.2075 33.4588 82.8811L32.2925 82.6112C32.101 82.8637 31.9225 83.1814 31.7572 83.5556C31.5874 83.943 31.4525 84.3477 31.3568 84.7525C31.1435 85.6838 31.1914 86.4759 31.5004 87.1069C31.8094 87.7336 32.3447 88.1384 33.0889 88.3125C33.6155 88.4343 34.0812 88.3908 34.4729 88.1863C34.8689 87.9817 35.2737 87.5639 35.674 86.9503L36.1615 86.2061C36.4095 85.8187 36.6184 85.5707 36.7925 85.4444C36.9753 85.3182 37.1755 85.2791 37.4018 85.3269C37.7021 85.3966 37.9023 85.5663 38.0024 85.8318C38.0982 86.0886 38.0938 86.4454 37.9894 86.885C37.8544 87.4769 37.5977 88.1036 37.2277 88.7433H37.2364Z" fill="white"/>
<path d="M30.2724 91.324L36.7787 92.1335L37.0747 89.766L38.4369 89.9357L37.6361 96.3551L36.2739 96.1853L36.5698 93.8178L30.0635 93.0039L30.2724 91.3197V91.324Z" fill="white"/>
<path d="M37.6883 96.416L36.2173 96.2333L36.5132 93.8657L30.0068 93.0519L30.2288 91.2632L30.281 91.2719L36.7352 92.077L37.0311 89.7095L38.5021 89.8923L38.4934 89.9445L37.6883 96.416ZM36.3391 96.1375L37.5925 96.2942L38.3803 89.9837L37.1269 89.827L36.8309 92.1945L36.7787 92.1858L30.3245 91.3807L30.1287 92.9561L36.6351 93.77L36.3391 96.1375Z" fill="white"/>
<path d="M29.7026 96.9122L37.632 97.082L37.5233 102.235L36.1959 102.209L36.2699 98.7488L34.3941 98.7096L34.3331 101.525L33.0057 101.495L33.0667 98.6792L30.9951 98.6357L30.9211 102.096L29.5938 102.069L29.7026 96.9122Z" fill="white"/>
<path d="M37.5754 102.296L36.1392 102.265L36.2132 98.8054L34.4463 98.7662L34.3853 101.582L32.9491 101.552L33.0101 98.7357L31.0473 98.6922L30.9733 102.152L29.5371 102.122V102.069L29.6503 96.86H29.7025L37.6886 97.0297V97.0819L37.5754 102.291V102.296ZM36.2524 102.161L37.471 102.187L37.5798 97.1429L29.7591 96.9775L29.6503 102.026L30.8688 102.052L30.9428 98.5921L33.1232 98.64L33.0623 101.456L34.2809 101.482L34.3418 98.6661L36.3264 98.7096L36.2524 102.17V102.161Z" fill="white"/>
<path d="M29.6582 103.971L37.5616 103.292L37.8227 106.3C37.8924 107.109 37.7313 107.771 37.3396 108.28C36.948 108.789 36.3778 109.076 35.6336 109.142C35.1767 109.181 34.7545 109.094 34.3715 108.876C33.9842 108.658 33.6708 108.336 33.4271 107.901L30.1979 110.129L30.0455 108.384L32.9658 106.43L32.87 105.325L29.8018 105.59L29.6626 103.967L29.6582 103.971ZM34.0495 105.229L34.1496 106.4C34.2192 107.187 34.6544 107.549 35.4595 107.479C36.2516 107.409 36.6128 106.992 36.5476 106.217L36.4431 105.024L34.0495 105.229Z" fill="white"/>
<path d="M30.1417 110.23L29.9806 108.358L32.9009 106.404L32.8138 105.386L29.7456 105.651L29.5977 103.919L37.6098 103.231L37.8753 106.295C37.945 107.118 37.7796 107.797 37.3792 108.315C36.9788 108.837 36.3913 109.133 35.634 109.198C35.1683 109.237 34.7331 109.146 34.3371 108.928C33.9584 108.715 33.6451 108.397 33.4014 107.984L30.1417 110.234V110.23ZM30.0938 108.41L30.2331 110.029L33.4362 107.819L33.4667 107.871C33.706 108.293 34.015 108.615 34.3893 108.824C34.7636 109.033 35.1814 109.12 35.6209 109.081C36.3477 109.02 36.9092 108.737 37.2878 108.241C37.6708 107.745 37.8275 107.087 37.7622 106.295L37.5098 103.34L29.7152 104.01L29.8457 105.525L32.9139 105.26L33.0184 106.448L30.0981 108.402L30.0938 108.41ZM35.2771 107.536C34.9507 107.536 34.6896 107.457 34.4981 107.296C34.2674 107.109 34.1369 106.805 34.1021 106.4L33.9976 105.172L36.5001 104.955L36.6089 106.204C36.6437 106.604 36.5653 106.918 36.3739 107.14C36.1824 107.362 35.8821 107.488 35.473 107.527C35.4077 107.531 35.3424 107.536 35.2815 107.536H35.2771ZM34.1108 105.273L34.2065 106.391C34.237 106.77 34.3588 107.044 34.5634 107.214C34.7679 107.383 35.0682 107.453 35.4556 107.418C35.8342 107.388 36.1127 107.27 36.2825 107.07C36.4522 106.87 36.5218 106.583 36.4914 106.213L36.3913 105.072L34.1064 105.268L34.1108 105.273Z" fill="white"/>
<path d="M30.4551 111.679L38.2323 110.112L38.8285 113.071C38.9895 113.868 38.9025 114.542 38.5717 115.095C38.241 115.648 37.7057 115.996 36.9745 116.144C36.5262 116.235 36.0954 116.196 35.6906 116.022C35.2815 115.852 34.9334 115.565 34.6418 115.16L31.6824 117.741L31.3342 116.022L34.0151 113.75L33.7975 112.662L30.7771 113.272L30.4551 111.674V111.679ZM34.9595 112.432L35.1902 113.585C35.3468 114.36 35.8212 114.669 36.6133 114.508C37.3923 114.351 37.7013 113.894 37.549 113.132L37.314 111.957L34.9595 112.432Z" fill="white"/>
<path d="M31.643 117.846L31.2731 116.005L33.954 113.733L33.7538 112.732L30.7335 113.341L30.3896 111.64L30.4419 111.631L38.2713 110.051L38.8806 113.063C39.0416 113.872 38.9546 114.564 38.6151 115.126C38.2756 115.687 37.7273 116.048 36.9831 116.201C36.5261 116.292 36.0822 116.253 35.6644 116.074C35.264 115.905 34.9158 115.626 34.6286 115.243L31.643 117.846ZM31.3906 116.048L31.7127 117.641L34.646 115.082L34.6808 115.13C34.9637 115.522 35.3119 115.805 35.7079 115.974C36.1039 116.14 36.5261 116.179 36.9613 116.092C37.675 115.948 38.2016 115.604 38.5237 115.069C38.8458 114.534 38.9328 113.864 38.7761 113.085L38.1886 110.177L30.5202 111.722L30.8205 113.211L33.8409 112.601L34.0759 113.772L31.395 116.044L31.3906 116.048ZM36.2389 114.608C36.0038 114.608 35.7993 114.556 35.6339 114.447C35.3858 114.286 35.2161 113.998 35.1378 113.598L34.8941 112.393L37.3573 111.896L37.6054 113.124C37.6837 113.515 37.6402 113.837 37.4792 114.081C37.3138 114.321 37.0309 114.486 36.6262 114.564C36.4869 114.59 36.3607 114.608 36.2389 114.608ZM35.0246 112.48L35.2466 113.581C35.3206 113.951 35.4729 114.212 35.6948 114.36C35.9168 114.503 36.2258 114.538 36.6044 114.464C36.9787 114.39 37.2398 114.242 37.3878 114.025C37.5358 113.807 37.5706 113.515 37.4966 113.15L37.2703 112.027L35.0203 112.48H35.0246Z" fill="white"/>
<path d="M32.1215 119.225L39.6811 116.832L41.2392 121.745L39.9727 122.146L38.9282 118.847L37.1395 119.412L37.9882 122.098L36.7217 122.498L35.873 119.813L33.8972 120.44L34.9417 123.738L33.6752 124.139L32.1172 119.225H32.1215Z" fill="white"/>
<path d="M33.6452 124.209L32.0566 119.191L32.1089 119.173L39.7207 116.762L41.3092 121.78L39.9383 122.215L38.8938 118.916L37.2095 119.452L38.0582 122.137L36.6873 122.572L35.8386 119.887L33.9672 120.479L35.0117 123.778L33.6408 124.213L33.6452 124.209ZM32.1916 119.26L33.7148 124.074L34.8768 123.708L33.8323 120.409L35.9126 119.752L36.7612 122.437L37.9233 122.072L37.0746 119.386L38.9678 118.786L40.0123 122.085L41.1743 121.719L39.651 116.906L32.1916 119.269V119.26Z" fill="white"/>
<path d="M34.3633 125.815L41.714 122.829L42.3537 124.4L35.003 127.381L34.3633 125.81V125.815Z" fill="white"/>
<path d="M34.9729 127.46L34.2939 125.788L34.3462 125.767L41.7447 122.764L42.4236 124.435L42.3714 124.457L34.9729 127.46ZM34.4376 125.845L35.0338 127.316L42.28 124.374L41.6838 122.903L34.4376 125.845Z" fill="white"/>
<path d="M38.681 134.497C38.1892 134.066 37.7714 133.513 37.4233 132.843C36.8357 131.712 36.6965 130.697 37.0055 129.797C37.3145 128.896 38.063 128.138 39.2468 127.52C40.4175 126.911 41.4838 126.746 42.4412 127.02C43.3987 127.294 44.169 127.982 44.7435 129.087C45.0481 129.675 45.244 130.284 45.331 130.911L44.1342 131.533C43.9514 130.854 43.7599 130.319 43.5597 129.932C43.1985 129.235 42.7415 128.813 42.1888 128.661C41.6361 128.508 40.9789 128.635 40.2129 129.031L39.9779 129.153C39.2207 129.549 38.7419 130.006 38.5461 130.532C38.3502 131.059 38.4329 131.664 38.7898 132.356C38.99 132.743 39.3512 133.248 39.8735 133.87L38.6767 134.493L38.681 134.497Z" fill="white"/>
<path d="M38.6765 134.562L38.6504 134.536C38.1542 134.101 37.7277 133.539 37.3796 132.869C36.7877 131.729 36.6441 130.693 36.9574 129.779C37.2708 128.87 38.0324 128.095 39.2248 127.473C40.4043 126.859 41.4923 126.689 42.4628 126.968C43.4333 127.246 44.2167 127.947 44.7955 129.061C45.1045 129.653 45.3047 130.271 45.3874 130.902V130.941L44.0992 131.611L44.0818 131.546C43.9033 130.876 43.7118 130.341 43.5117 129.958C43.1591 129.279 42.7109 128.861 42.1756 128.717C41.6403 128.574 40.9918 128.695 40.2389 129.083L40.0039 129.205C39.2597 129.592 38.7896 130.045 38.5981 130.558C38.411 131.067 38.4893 131.664 38.8419 132.338C39.0421 132.721 39.4033 133.226 39.9212 133.844L39.9647 133.896L38.6721 134.566L38.6765 134.562ZM41.5271 126.95C40.8264 126.95 40.0735 127.159 39.2771 127.573C38.1107 128.178 37.3665 128.935 37.0619 129.818C36.7572 130.702 36.8965 131.711 37.4753 132.821C37.8104 133.47 38.2239 134.009 38.6939 134.432L39.7993 133.857C39.2988 133.256 38.9507 132.765 38.7505 132.386C38.3849 131.685 38.3022 131.059 38.5024 130.519C38.7026 129.984 39.19 129.505 39.956 129.109L40.191 128.987C40.9657 128.587 41.6446 128.456 42.206 128.613C42.7718 128.765 43.2418 129.205 43.6117 129.91C43.8076 130.288 43.9947 130.806 44.1732 131.455L45.2786 130.88C45.1916 130.275 45.0001 129.683 44.7041 129.113C44.1384 128.03 43.3767 127.342 42.4367 127.077C42.1451 126.994 41.8448 126.95 41.5314 126.95H41.5271Z" fill="white"/>
<path d="M42.0097 140.163L44.8255 138.301L43.1021 135.698L40.2863 137.561L39.3506 136.146L45.9658 131.768L46.9015 133.183L44.2119 134.963L45.9353 137.565L48.6249 135.785L49.5606 137.2L42.9498 141.578L42.0141 140.163H42.0097Z" fill="white"/>
<path d="M42.9282 141.652L41.9316 140.146L44.7474 138.283L43.0849 135.772L40.2691 137.635L39.2725 136.129L39.316 136.098L45.9747 131.69L46.9713 133.196L44.2817 134.976L45.9442 137.487L48.6338 135.707L49.6304 137.213L49.5869 137.243L42.9282 141.652ZM42.0839 140.176L42.9587 141.499L49.4825 137.182L48.6077 135.859L45.9181 137.639L44.1337 134.945L46.8233 133.165L45.9486 131.842L39.4248 136.159L40.2996 137.482L43.1154 135.62L44.8997 138.314L42.0839 140.176Z" fill="white"/>
<path d="M44.3989 143.379L50.5745 138.405L51.6364 139.724L45.4608 144.698L44.3945 143.375L44.3989 143.379Z" fill="white"/>
<path d="M45.4567 144.776L44.3252 143.371L44.3687 143.336L50.5879 138.327L51.7194 139.732L51.6759 139.767L45.4567 144.776ZM44.4775 143.388L45.4741 144.624L51.5671 139.715L50.5704 138.479L44.4775 143.388Z" fill="white"/>
<path d="M50.4574 145.147C50.1789 144.485 50.0701 143.924 50.131 143.462C50.1919 143.001 50.4226 142.579 50.8273 142.196C51.3496 141.704 51.9414 141.499 52.616 141.587C53.2862 141.674 53.926 142.035 54.5309 142.679C55.0401 143.214 55.4362 143.837 55.7234 144.537L54.7747 145.434C54.4395 144.746 54.0522 144.176 53.6257 143.719C53.0121 143.075 52.4985 142.949 52.0764 143.349C51.9197 143.497 51.8457 143.671 51.8544 143.88C51.8631 144.085 51.9545 144.394 52.1329 144.807L52.4855 145.625C52.777 146.313 52.9033 146.883 52.8554 147.34C52.8075 147.797 52.5812 148.215 52.1765 148.598C51.6063 149.137 50.9622 149.364 50.2528 149.268C49.5434 149.172 48.8471 148.776 48.1812 148.071C47.8897 147.766 47.6285 147.431 47.3979 147.07C47.1672 146.709 46.9975 146.369 46.8887 146.056L47.8374 145.16C48.0115 145.512 48.2248 145.869 48.4685 146.226C48.7122 146.583 48.9559 146.892 49.1953 147.144C49.4999 147.466 49.7959 147.658 50.0831 147.723C50.366 147.784 50.6228 147.71 50.8447 147.501C51.0145 147.34 51.1015 147.157 51.1015 146.957C51.1015 146.757 51.0057 146.435 50.823 145.995L50.4661 145.151L50.4574 145.147Z" fill="white"/>
<path d="M50.5578 149.342C50.4533 149.342 50.3489 149.333 50.2444 149.32C49.522 149.224 48.8126 148.815 48.138 148.106C47.8464 147.801 47.581 147.457 47.3459 147.096C47.1109 146.731 46.9368 146.387 46.8324 146.073L46.8193 146.039L47.8464 145.068L47.8812 145.133C48.0553 145.482 48.2686 145.838 48.5079 146.195C48.7473 146.548 48.991 146.853 49.2304 147.105C49.5263 147.418 49.8179 147.605 50.0878 147.666C50.3576 147.727 50.5882 147.658 50.7971 147.457C50.9582 147.305 51.0365 147.135 51.0365 146.953C51.0365 146.761 50.9451 146.443 50.7623 146.013L50.4055 145.168C50.1226 144.502 50.0138 143.928 50.0747 143.454C50.1356 142.979 50.3793 142.544 50.7884 142.152C51.3194 141.652 51.933 141.439 52.6207 141.526C53.2996 141.613 53.9568 141.987 54.5704 142.631C55.0796 143.171 55.4843 143.802 55.7759 144.507L55.789 144.542L54.7619 145.516L54.7314 145.451C54.4007 144.772 54.0133 144.198 53.5912 143.749C52.9993 143.123 52.5162 143.005 52.1202 143.38C51.9766 143.514 51.9069 143.675 51.9156 143.867C51.92 144.067 52.0157 144.372 52.1898 144.772L52.5423 145.59C52.8383 146.282 52.9645 146.87 52.9166 147.331C52.8687 147.797 52.6337 148.232 52.2203 148.624C51.7241 149.094 51.1671 149.329 50.5621 149.329L50.5578 149.342ZM46.9499 146.069C47.0543 146.369 47.2197 146.691 47.4417 147.035C47.6723 147.392 47.9335 147.727 48.2207 148.028C48.8779 148.72 49.5655 149.12 50.2618 149.211C50.9538 149.303 51.5892 149.081 52.1419 148.554C52.5336 148.184 52.7556 147.771 52.8035 147.331C52.8513 146.887 52.7251 146.322 52.4379 145.643L52.0854 144.824C51.9026 144.402 51.8068 144.093 51.8025 143.88C51.7938 143.658 51.8765 143.467 52.0418 143.31C52.4858 142.888 53.0341 143.014 53.6695 143.684C54.0873 144.124 54.466 144.685 54.7967 145.347L55.6628 144.524C55.3799 143.845 54.9882 143.236 54.4921 142.718C53.8958 142.091 53.2648 141.73 52.6076 141.643C51.9592 141.56 51.3716 141.761 50.8668 142.239C50.4751 142.614 50.2444 143.027 50.1835 143.475C50.1226 143.928 50.2314 144.485 50.5056 145.129L50.8624 145.973C51.0496 146.422 51.1453 146.744 51.1453 146.953C51.1453 147.17 51.0539 147.366 50.8711 147.54C50.6361 147.762 50.3663 147.84 50.0616 147.775C49.7657 147.71 49.4611 147.51 49.1477 147.183C48.9083 146.926 48.6603 146.617 48.4166 146.261C48.1859 145.921 47.9813 145.586 47.8116 145.251L46.9412 146.073L46.9499 146.069Z" fill="white"/>
<path d="M56.2542 154.991C55.6362 154.773 55.0399 154.421 54.4698 153.929C53.5037 153.102 52.9945 152.21 52.9422 151.261C52.8944 150.312 53.3035 149.329 54.1695 148.315C55.0269 147.314 55.9539 146.757 56.9462 146.652C57.9384 146.548 58.909 146.9 59.8534 147.71C60.3582 148.141 60.7673 148.632 61.0806 149.181L60.2015 150.208C59.7794 149.646 59.4007 149.224 59.07 148.937C58.4737 148.428 57.8906 148.206 57.3248 148.271C56.7547 148.336 56.1932 148.698 55.6318 149.355L55.4621 149.555C54.905 150.203 54.6352 150.808 54.6526 151.37C54.67 151.931 54.9703 152.462 55.5622 152.967C55.893 153.25 56.4196 153.585 57.1333 153.964L56.2542 154.991Z" fill="white"/>
<path d="M56.272 155.056L56.2372 155.043C55.6148 154.825 55.0099 154.464 54.4354 153.972C53.4605 153.137 52.9383 152.227 52.8904 151.265C52.8425 150.304 53.2603 149.298 54.1308 148.28C54.9925 147.27 55.9412 146.704 56.9422 146.6C57.9475 146.491 58.9355 146.852 59.8886 147.671C60.3934 148.106 60.8112 148.602 61.1289 149.155L61.1463 149.189L61.1202 149.22L60.1976 150.299L60.1584 150.247C59.7406 149.69 59.362 149.268 59.0356 148.985C58.4567 148.489 57.8823 148.271 57.3339 148.332C56.7812 148.397 56.2241 148.754 55.6757 149.394L55.506 149.594C54.962 150.23 54.6922 150.826 54.7096 151.374C54.7226 151.918 55.0229 152.44 55.5974 152.932C55.9238 153.211 56.4504 153.546 57.1598 153.925L57.2207 153.955L56.2763 155.06L56.272 155.056ZM57.2817 146.687C57.1729 146.687 57.0641 146.691 56.9509 146.704C55.976 146.809 55.0534 147.362 54.2091 148.349C53.3561 149.346 52.947 150.325 52.9949 151.261C53.0427 152.192 53.5519 153.076 54.5007 153.894C55.0534 154.368 55.6366 154.717 56.2328 154.934L57.0423 153.99C56.359 153.62 55.8455 153.293 55.5191 153.015C54.9185 152.501 54.6051 151.953 54.5921 151.379C54.5747 150.804 54.8532 150.182 55.4146 149.525L55.5844 149.324C56.1501 148.663 56.7333 148.293 57.3121 148.223C57.8953 148.154 58.4959 148.384 59.1008 148.902C59.4229 149.176 59.7928 149.59 60.1976 150.125L61.0071 149.181C60.6981 148.654 60.2977 148.171 59.8102 147.758C58.9877 147.053 58.1347 146.696 57.273 146.696L57.2817 146.687Z" fill="white"/>
<path d="M61.582 158.934L63.4578 156.127L60.864 154.395L58.9882 157.202L57.5781 156.262L61.9824 149.664L63.3925 150.604L61.5995 153.289L64.1933 155.021L65.9864 152.336L67.3964 153.28L62.9921 159.874L61.582 158.929V158.934Z" fill="white"/>
<path d="M63.0094 159.952L62.9659 159.922L61.5123 158.951L63.388 156.144L60.8856 154.473L59.0098 157.28L58.9663 157.25L57.5127 156.279L57.5432 156.236L61.9779 149.594L62.0215 149.625L63.4751 150.595L61.682 153.28L64.1844 154.952L65.9775 152.266L66.021 152.297L67.4746 153.267L67.4442 153.311L63.0094 159.952ZM61.6602 158.921L62.9789 159.804L67.3267 153.298L66.008 152.414L64.2149 155.1L64.1714 155.069L61.5297 153.307L63.3227 150.621L62.0041 149.742L57.6607 156.249L58.9793 157.128L60.8551 154.321L60.8986 154.351L63.5403 156.114L61.6646 158.921H61.6602Z" fill="white"/>
<path d="M65.0674 161.04L68.6883 153.985L73.2754 156.34L72.6705 157.519L69.5936 155.94L68.7362 157.611L71.243 158.895L70.6381 160.074L68.1313 158.79L67.1868 160.635L70.2638 162.215L69.6588 163.395L65.0717 161.04H65.0674Z" fill="white"/>
<path d="M69.6809 163.464L69.633 163.438L64.998 161.058L65.0242 161.01L68.6712 153.903L68.7191 153.929L73.3541 156.31L72.6969 157.589L72.649 157.563L69.62 156.009L68.8148 157.585L71.3216 158.869L70.6645 160.148L70.6166 160.122L68.162 158.86L67.2655 160.605L70.3424 162.185L69.6852 163.464H69.6809ZM65.1417 161.014L69.633 163.316L70.1901 162.233L67.1132 160.653L67.1393 160.605L68.1098 158.712L68.1577 158.738L70.6122 160L71.1693 158.916L68.6625 157.633L69.5677 155.866L69.6156 155.892L72.6447 157.445L73.2017 156.362L68.7104 154.055L65.1373 161.014H65.1417Z" fill="white"/>
<path d="M71.3779 164.161L74.2416 156.762L77.0574 157.85C77.8147 158.146 78.3413 158.581 78.6242 159.156C78.9114 159.735 78.9157 160.37 78.6503 161.066C78.4849 161.493 78.2194 161.832 77.8582 162.085C77.4926 162.337 77.0618 162.476 76.5656 162.507L77.1488 166.389L75.5124 165.758L75.0424 162.276L74.0109 161.876L72.9012 164.748L71.3823 164.161H71.3779ZM74.4374 160.766L75.5342 161.188C76.274 161.475 76.7876 161.24 77.0792 160.487C77.3664 159.748 77.1444 159.238 76.422 158.956L75.3035 158.525L74.4374 160.766Z" fill="white"/>
<path d="M77.2138 166.476L75.46 165.797V165.767L74.9899 162.315L74.0368 161.945L72.927 164.818L72.8748 164.796L71.3037 164.191L74.2066 156.693L74.2588 156.714L77.0746 157.802C77.8449 158.098 78.3802 158.547 78.6718 159.134C78.9634 159.722 78.9721 160.379 78.6979 161.088C78.5282 161.523 78.254 161.876 77.8841 162.133C77.5272 162.381 77.105 162.52 76.6263 162.559L77.2138 166.476ZM75.5601 165.719L77.0789 166.306L76.5001 162.459H76.561C77.0441 162.429 77.4706 162.289 77.8231 162.046C78.1757 161.802 78.4368 161.467 78.5978 161.053C78.8589 160.374 78.8546 159.743 78.576 159.186C78.2975 158.625 77.7796 158.194 77.0354 157.907L74.2718 156.836L71.4473 164.13L72.8661 164.679L73.9759 161.806L74.0281 161.828L75.09 162.241V162.272L75.5601 165.723V165.719ZM76.091 161.362C75.9169 161.362 75.7211 161.323 75.5122 161.24L74.3632 160.797L75.2685 158.455L75.3207 158.477L76.4392 158.908C77.1921 159.199 77.4227 159.739 77.1268 160.509C76.9048 161.079 76.561 161.367 76.091 161.367V161.362ZM74.5025 160.736L75.547 161.14C76.2564 161.415 76.7395 161.197 77.0224 160.47C77.2965 159.756 77.092 159.278 76.3957 159.008L75.3294 158.594L74.5025 160.736Z" fill="white"/>
<path d="M81.7148 167.708L83.3817 159.952L85.0398 160.309L84.3261 163.634L87.8165 160.905L89.6835 161.306L85.7927 164.239L88.2821 169.118L86.3019 168.691L84.1651 164.383L83.373 168.065L81.7148 167.708Z" fill="white"/>
<path d="M88.3821 169.196L86.267 168.739L86.2539 168.717L84.1823 164.548L83.412 168.13L81.6494 167.751L81.6625 167.699L83.338 159.891L85.1006 160.27L84.4086 163.499L87.7989 160.849H87.825L89.8096 161.28L89.7138 161.349L85.8579 164.257L88.3821 169.196ZM86.341 168.648L88.1819 169.044L85.723 164.226L85.7578 164.2L89.5528 161.336L87.825 160.966L84.2389 163.769L84.9744 160.353L83.4207 160.018L81.7756 167.669L83.3293 168.004L84.1432 164.222L86.341 168.648Z" fill="white"/>
<path d="M89.6699 169.253L90.5186 161.367L92.2072 161.549L91.5065 168.069L94.9229 168.439L94.7749 169.805L89.6699 169.257V169.253Z" fill="white"/>
<path d="M94.8227 169.862H94.7705L89.6133 169.3V169.248L90.475 161.31L92.2681 161.502V161.554L91.5674 168.021L94.9838 168.391L94.8227 169.866V169.862ZM89.7308 169.205L94.727 169.744L94.8619 168.487L91.4455 168.117V168.064L92.1462 161.597L90.5664 161.428L89.7308 169.205Z" fill="white"/>
<path d="M96.2539 169.862L96.3409 161.932L101.498 161.989L101.485 163.316L98.0252 163.277L98.0034 165.153L100.819 165.184L100.806 166.511L97.9904 166.48L97.9686 168.552L101.429 168.591L101.415 169.919L96.2583 169.862H96.2539Z" fill="white"/>
<path d="M101.464 169.975H101.412L96.2021 169.919L96.2892 161.88H96.3414L101.551 161.937L101.533 163.373H101.481L98.0779 163.334L98.0605 165.101L100.876 165.131L100.859 166.567H100.807L98.0474 166.537L98.0257 168.5L101.486 168.539L101.468 169.975H101.464ZM96.311 169.81L101.359 169.866L101.372 168.648L97.9125 168.609L97.9386 166.428H97.9909L100.75 166.459L100.763 165.24L97.9473 165.21L97.9691 163.225H98.0213L101.425 163.264L101.438 162.046L96.3893 161.989L96.3023 169.81H96.311Z" fill="white"/>
<path d="M103.2 169.792L102.678 161.88L104.371 161.767L104.893 169.679L103.2 169.792Z" fill="white"/>
<path d="M103.148 169.853V169.801L102.617 161.832L104.419 161.715V161.767L104.95 169.736L103.148 169.853ZM102.735 161.932L103.248 169.74L104.832 169.636L104.319 161.828L102.735 161.932Z" fill="white"/>
<path d="M107.809 163.865L108.666 169.301L107.191 169.536L105.955 161.702L107.744 161.419L111.761 166.406L110.895 160.923L112.37 160.688L113.606 168.522L111.817 168.804L107.809 163.865Z" fill="white"/>
<path d="M107.148 169.596L105.895 161.654L107.766 161.358L107.788 161.384L111.674 166.211L110.834 160.875L112.414 160.627L113.667 168.569L113.615 168.578L111.796 168.865L111.779 168.839L107.896 164.056L108.732 169.348L107.152 169.596H107.148ZM106.016 161.745L107.235 169.475L108.602 169.257L107.718 163.673L111.835 168.748L113.537 168.478L112.318 160.749L110.952 160.966L111.839 166.598L107.718 161.48L106.016 161.75V161.745Z" fill="white"/>
<path d="M115.874 167.973L113.789 160.322L118.546 159.025L118.894 160.305L115.774 161.153L116.296 163.077L118.781 162.402L119.129 163.682L116.64 164.357L117.501 167.525L115.865 167.969L115.874 167.973Z" fill="white"/>
<path d="M115.834 168.043L115.821 167.991L113.724 160.283L113.776 160.27L118.585 158.96L118.964 160.344L118.911 160.357L115.843 161.193L116.339 163.007L118.824 162.333L119.203 163.717L119.151 163.73L116.714 164.391L117.575 167.56L117.523 167.573L115.834 168.034V168.043ZM113.854 160.361L115.908 167.908L117.44 167.49L116.579 164.322L116.631 164.309L119.068 163.647L118.746 162.472L116.261 163.147L116.248 163.094L115.713 161.119L115.765 161.106L118.833 160.27L118.511 159.095L113.859 160.361H113.854Z" fill="white"/>
<path d="M122.184 166.154L119.381 158.734L124.203 156.914L124.673 158.155L121.435 159.378L122.097 161.136L124.73 160.139L125.2 161.38L122.567 162.376L123.298 164.313L126.536 163.09L127.006 164.33L122.184 166.15V166.154Z" fill="white"/>
<path d="M122.149 166.224L122.132 166.171L119.312 158.699L119.364 158.681L124.238 156.84L124.747 158.185L124.695 158.203L121.509 159.404L122.136 161.058L124.769 160.061L125.278 161.406L122.645 162.402L123.337 164.239L126.575 163.016L127.084 164.361L127.032 164.378L122.158 166.219L122.149 166.224ZM119.451 158.764L122.214 166.084L126.936 164.3L126.506 163.16L123.268 164.383L122.497 162.341L125.13 161.345L124.699 160.205L122.066 161.201L121.366 159.343L121.418 159.325L124.604 158.124L124.173 156.984L119.451 158.768V158.764Z" fill="white"/>
<path d="M128.7 163.547L125.271 156.397L126.798 155.661L129.636 161.576L132.734 160.087L133.326 161.328L128.7 163.547Z" fill="white"/>
<path d="M128.674 163.621L128.652 163.573L125.196 156.375L125.244 156.353L126.824 155.596L126.846 155.644L129.657 161.506L132.756 160.018L133.396 161.354L133.348 161.375L128.669 163.621H128.674ZM125.34 156.423L128.721 163.477L133.252 161.306L132.704 160.166L129.605 161.654L129.583 161.606L126.772 155.744L125.34 156.431V156.423Z" fill="white"/>
<path d="M134.64 160.583L130.423 153.864L132.808 152.367C133.8 151.744 134.74 151.557 135.637 151.801C136.533 152.045 137.321 152.706 137.995 153.785C138.67 154.856 138.922 155.853 138.757 156.775C138.592 157.694 138.022 158.46 137.051 159.069L134.636 160.583H134.64ZM132.568 154.09L135.371 158.56L136.194 158.042C137.351 157.315 137.478 156.24 136.581 154.812L136.459 154.617C135.567 153.193 134.54 152.85 133.378 153.576L132.564 154.086L132.568 154.09Z" fill="white"/>
<path d="M134.622 160.657L134.592 160.609L130.349 153.846L132.777 152.319C133.778 151.692 134.744 151.5 135.649 151.744C136.555 151.992 137.36 152.667 138.043 153.755C138.722 154.834 138.979 155.853 138.809 156.784C138.639 157.715 138.061 158.499 137.081 159.112L134.622 160.657ZM130.497 153.881L134.653 160.509L137.02 159.025C137.973 158.429 138.539 157.667 138.7 156.767C138.861 155.866 138.609 154.873 137.947 153.816C137.282 152.754 136.498 152.092 135.619 151.853C134.74 151.614 133.804 151.805 132.834 152.414L130.497 153.881ZM135.354 158.634L135.323 158.586L132.49 154.068L133.352 153.529C133.943 153.154 134.514 153.059 135.04 153.237C135.562 153.415 136.059 153.868 136.507 154.586L136.629 154.782C137.081 155.504 137.277 156.149 137.212 156.697C137.147 157.25 136.811 157.72 136.224 158.09L135.354 158.638V158.634ZM132.642 154.107L135.388 158.486L136.167 157.998C136.729 157.646 137.042 157.206 137.107 156.688C137.173 156.166 136.981 155.544 136.542 154.843L136.42 154.647C135.985 153.951 135.51 153.511 135.01 153.341C134.518 153.176 133.978 153.267 133.413 153.624L132.642 154.107Z" fill="white"/>
<path d="M144.306 153.938L139.127 147.932L142.861 144.711L143.727 145.717L141.277 147.827L142.578 149.333L144.532 147.649L145.398 148.654L143.444 150.338L145.59 152.823L144.306 153.929V153.938Z" fill="white"/>
<path d="M144.297 154.016L144.262 153.977L139.044 147.932L139.083 147.897L142.856 144.642L143.796 145.73L141.346 147.84L142.573 149.268L144.528 147.584L145.468 148.672L143.514 150.356L145.659 152.841L144.293 154.02L144.297 154.016ZM139.201 147.94L144.31 153.864L145.511 152.828L143.366 150.343L145.32 148.659L144.523 147.736L142.569 149.42L141.198 147.832L143.648 145.721L142.852 144.798L139.201 147.949V147.94Z" fill="white"/>
<path d="M146.705 140.686L147.862 139.445L151.535 142.87C152.254 143.541 152.623 144.267 152.636 145.046C152.65 145.825 152.306 146.596 151.601 147.349C150.896 148.106 150.156 148.502 149.381 148.545C148.606 148.589 147.849 148.271 147.118 147.588L143.449 144.172L144.607 142.931L148.332 146.404C148.724 146.77 149.111 146.948 149.494 146.944C149.877 146.939 150.238 146.757 150.578 146.395C150.917 146.03 151.074 145.656 151.052 145.277C151.031 144.894 150.822 144.52 150.43 144.158L146.705 140.686Z" fill="white"/>
<path d="M149.242 148.611C148.502 148.611 147.775 148.284 147.083 147.636L143.375 144.18L144.607 142.862L144.646 142.896L148.371 146.369C148.745 146.718 149.12 146.896 149.485 146.896H149.494C149.86 146.896 150.212 146.713 150.539 146.365C150.865 146.013 151.022 145.651 150.995 145.286C150.974 144.92 150.769 144.555 150.391 144.202L146.626 140.69L147.858 139.371L147.897 139.406L151.57 142.831C152.297 143.51 152.675 144.254 152.688 145.046C152.702 145.838 152.349 146.626 151.64 147.388C150.93 148.149 150.169 148.558 149.381 148.602C149.333 148.602 149.285 148.602 149.237 148.602L149.242 148.611ZM143.532 144.176L147.157 147.557C147.875 148.228 148.619 148.541 149.377 148.498C150.134 148.454 150.869 148.058 151.561 147.318C152.253 146.578 152.597 145.812 152.584 145.051C152.571 144.289 152.205 143.571 151.5 142.914L147.866 139.524L146.783 140.686L150.469 144.124C150.869 144.494 151.083 144.885 151.109 145.281C151.135 145.677 150.969 146.069 150.621 146.443C150.273 146.818 149.894 147.009 149.498 147.009H149.485C149.094 147.009 148.693 146.822 148.297 146.452L144.611 143.014L143.527 144.176H143.532Z" fill="white"/>
<path d="M149.868 135.624C150.321 135.006 150.817 134.619 151.348 134.466C151.879 134.314 152.383 134.414 152.858 134.758C153.136 134.963 153.337 135.202 153.467 135.476C153.598 135.755 153.68 136.133 153.72 136.621C153.737 136.83 153.767 136.982 153.811 137.078C153.854 137.173 153.92 137.256 154.002 137.317C154.163 137.435 154.499 137.374 155.016 137.134L155.447 136.934C155.835 136.751 156.192 136.669 156.514 136.686C156.836 136.703 157.145 136.817 157.432 137.03C157.889 137.365 158.124 137.804 158.146 138.353C158.163 138.901 157.963 139.467 157.532 140.05C157.223 140.468 156.818 140.838 156.313 141.147L155.343 140.437C155.883 140.068 156.27 139.715 156.509 139.389C156.675 139.162 156.757 138.953 156.762 138.753C156.762 138.553 156.688 138.396 156.527 138.279C156.418 138.196 156.292 138.166 156.148 138.183C156.009 138.2 155.809 138.27 155.552 138.388L155.099 138.601C154.694 138.792 154.342 138.888 154.046 138.888C153.746 138.888 153.471 138.797 153.219 138.61C152.993 138.444 152.823 138.244 152.719 138.018C152.61 137.791 152.536 137.469 152.492 137.052C152.462 136.786 152.414 136.586 152.357 136.455C152.296 136.325 152.201 136.207 152.066 136.107C151.848 135.95 151.631 135.894 151.413 135.942C151.191 135.99 150.991 136.142 150.799 136.399C150.542 136.751 150.469 137.099 150.582 137.443C150.695 137.787 150.995 138.14 151.478 138.496L156.017 141.826L155.069 143.123L150.538 139.798C149.763 139.228 149.315 138.583 149.202 137.857C149.085 137.13 149.311 136.386 149.872 135.62L149.868 135.624Z" fill="white"/>
<path d="M155.077 143.201L155.034 143.171L150.503 139.846C149.72 139.271 149.263 138.605 149.145 137.87C149.028 137.134 149.254 136.368 149.824 135.594C150.286 134.967 150.79 134.571 151.334 134.414C151.878 134.257 152.405 134.362 152.893 134.714C153.175 134.923 153.384 135.171 153.519 135.454C153.65 135.737 153.737 136.129 153.776 136.621C153.793 136.821 153.819 136.969 153.863 137.06C153.902 137.147 153.959 137.221 154.037 137.278C154.133 137.347 154.377 137.374 154.995 137.091L155.425 136.89C155.821 136.708 156.187 136.621 156.518 136.638C156.849 136.655 157.171 136.777 157.467 136.995C157.932 137.339 158.18 137.796 158.202 138.357C158.224 138.914 158.011 139.497 157.58 140.089C157.271 140.511 156.857 140.886 156.348 141.203L156.318 141.221L155.256 140.442L155.317 140.398C155.848 140.033 156.235 139.68 156.47 139.358C156.627 139.145 156.709 138.94 156.714 138.753C156.714 138.57 156.648 138.431 156.5 138.322C156.4 138.248 156.291 138.222 156.161 138.24C156.026 138.257 155.83 138.327 155.578 138.44L155.125 138.653C154.716 138.845 154.355 138.945 154.05 138.945C153.741 138.945 153.454 138.849 153.193 138.657C152.958 138.488 152.784 138.279 152.675 138.044C152.566 137.809 152.488 137.487 152.44 137.06C152.409 136.799 152.366 136.603 152.309 136.477C152.253 136.355 152.161 136.242 152.035 136.151C151.831 136.003 151.63 135.95 151.426 135.998C151.221 136.042 151.025 136.19 150.847 136.433C150.599 136.769 150.529 137.104 150.634 137.43C150.743 137.761 151.039 138.105 151.513 138.453L156.1 141.813L155.086 143.197L155.077 143.201ZM151.818 134.453C151.665 134.453 151.513 134.475 151.356 134.519C150.838 134.667 150.351 135.05 149.907 135.654C149.359 136.403 149.137 137.143 149.25 137.852C149.363 138.557 149.807 139.201 150.564 139.758L155.051 143.049L155.935 141.843L151.439 138.544C150.947 138.183 150.638 137.817 150.521 137.465C150.403 137.104 150.481 136.738 150.747 136.373C150.943 136.107 151.16 135.946 151.391 135.894C151.626 135.842 151.861 135.898 152.087 136.068C152.231 136.172 152.331 136.294 152.396 136.438C152.457 136.573 152.505 136.782 152.536 137.051C152.579 137.461 152.653 137.783 152.758 138C152.862 138.218 153.023 138.409 153.241 138.57C153.48 138.749 153.75 138.836 154.033 138.836C154.32 138.836 154.668 138.74 155.064 138.553L155.517 138.34C155.778 138.218 155.987 138.148 156.13 138.126C156.287 138.109 156.426 138.144 156.548 138.231C156.722 138.357 156.809 138.531 156.805 138.749C156.805 138.958 156.714 139.184 156.544 139.415C156.309 139.732 155.935 140.076 155.425 140.433L156.305 141.077C156.788 140.773 157.179 140.416 157.475 140.011C157.893 139.441 158.098 138.879 158.076 138.348C158.058 137.822 157.823 137.391 157.384 137.069C157.105 136.864 156.805 136.751 156.496 136.734C156.183 136.716 155.835 136.799 155.456 136.977L155.025 137.178C154.485 137.43 154.137 137.487 153.954 137.356C153.859 137.286 153.789 137.199 153.746 137.095C153.702 136.991 153.667 136.834 153.65 136.621C153.611 136.142 153.528 135.763 153.402 135.493C153.28 135.228 153.08 134.993 152.81 134.797C152.492 134.562 152.157 134.445 151.809 134.445L151.818 134.453Z" fill="white"/>
<path d="M159.647 136.651L152.775 132.686L154.181 130.249C154.56 129.596 155.03 129.166 155.6 128.961C156.17 128.756 156.723 128.804 157.267 129.118C157.602 129.314 157.85 129.557 158.002 129.849C158.155 130.14 158.211 130.476 158.168 130.854C158.533 130.51 158.925 130.31 159.338 130.258C159.752 130.206 160.165 130.297 160.583 130.541C161.179 130.885 161.523 131.376 161.623 132.016C161.719 132.656 161.558 133.344 161.131 134.083L159.647 136.66V136.651ZM154.638 131.912L156.444 132.952L156.936 132.099C157.302 131.463 157.188 130.976 156.592 130.632C155.983 130.28 155.513 130.397 155.178 130.98L154.642 131.912H154.638ZM157.454 133.535L159.386 134.649L160.052 133.491C160.435 132.826 160.309 132.308 159.678 131.942C159.025 131.564 158.49 131.733 158.081 132.443L157.454 133.531V133.535Z" fill="white"/>
<path d="M159.665 136.725L152.701 132.708L154.133 130.223C154.516 129.562 155.003 129.118 155.578 128.909C156.161 128.696 156.736 128.752 157.288 129.07C157.632 129.27 157.889 129.522 158.046 129.823C158.185 130.088 158.246 130.389 158.228 130.719C158.572 130.423 158.942 130.249 159.325 130.197C159.747 130.14 160.178 130.241 160.605 130.484C161.21 130.832 161.571 131.342 161.671 131.999C161.771 132.647 161.601 133.357 161.175 134.101L159.66 136.725H159.665ZM152.849 132.669L159.625 136.577L161.083 134.049C161.501 133.326 161.662 132.643 161.566 132.016C161.471 131.398 161.131 130.915 160.552 130.58C160.148 130.345 159.743 130.254 159.342 130.306C158.942 130.358 158.559 130.554 158.202 130.889L158.093 130.989L158.111 130.841C158.15 130.48 158.098 130.149 157.95 129.866C157.802 129.583 157.562 129.348 157.236 129.157C156.714 128.852 156.165 128.804 155.617 129.005C155.064 129.205 154.594 129.631 154.229 130.271L152.849 132.665V132.669ZM159.408 134.723L157.38 133.552L158.032 132.417C158.459 131.677 159.02 131.503 159.704 131.894C160.034 132.086 160.235 132.316 160.3 132.591C160.365 132.861 160.3 133.174 160.1 133.518L159.408 134.719V134.723ZM157.528 133.513L159.369 134.575L160.008 133.465C160.191 133.148 160.256 132.861 160.195 132.617C160.139 132.377 159.956 132.164 159.651 131.99C159.02 131.629 158.524 131.786 158.128 132.473L157.528 133.513ZM156.461 133.026L154.564 131.929L155.13 130.95C155.304 130.645 155.517 130.463 155.769 130.402C156.022 130.341 156.305 130.402 156.618 130.584C157.24 130.946 157.362 131.463 156.984 132.125L156.466 133.026H156.461ZM154.712 131.89L156.422 132.878L156.888 132.073C157.236 131.463 157.132 131.011 156.561 130.68C156.27 130.515 156.013 130.454 155.791 130.51C155.574 130.563 155.378 130.732 155.221 131.007L154.712 131.89Z" fill="white"/>
<path d="M165.261 125.632L163.381 125.414L162.306 127.869L163.751 129.079L163.041 130.706L156.879 125.001L157.627 123.29L166.001 123.939L165.261 125.627V125.632ZM161.322 127.046L162.11 125.244L158.672 124.827L161.322 127.046Z" fill="white"/>
<path d="M163.063 130.802L156.813 125.018L156.831 124.983L157.592 123.238L166.079 123.895L165.296 125.693L163.416 125.475L162.375 127.856L163.82 129.065L163.803 129.105L163.063 130.802ZM156.948 124.992L163.028 130.619L163.694 129.1L162.249 127.89L162.267 127.851L163.355 125.358L165.235 125.575L165.927 123.995L157.671 123.356L156.957 124.996L156.948 124.992ZM161.344 127.133L158.498 124.748L162.193 125.196L161.348 127.133H161.344ZM158.846 124.901L161.3 126.955L162.032 125.284L158.846 124.896V124.901Z" fill="white"/>
<path d="M166.449 122.524L158.89 120.118L159.403 118.503L165.653 120.492L166.693 117.215L168.003 117.633L166.445 122.524H166.449Z" fill="white"/>
<path d="M166.484 122.594L166.432 122.576L158.82 120.157L159.369 118.438L159.421 118.455L165.618 120.427L166.658 117.149L168.073 117.598L168.055 117.65L166.484 122.594ZM158.96 120.087L166.415 122.459L167.938 117.672L166.732 117.289L165.692 120.566L165.64 120.548L159.443 118.577L158.96 120.091V120.087Z" fill="white"/>
<path d="M168.347 116.209L160.596 114.521L160.957 112.863L167.363 114.255L168.094 110.895L169.435 111.187L168.342 116.205L168.347 116.209Z" fill="white"/>
<path d="M168.386 116.275L168.334 116.262L160.53 114.564L160.913 112.802L160.965 112.815L167.32 114.199L168.051 110.839L169.5 111.152L169.487 111.204L168.381 116.275H168.386ZM160.661 114.482L168.303 116.144L169.374 111.235L168.138 110.965L167.407 114.325L167.354 114.312L161 112.928L160.661 114.477V114.482Z" fill="white"/>
<path d="M170.074 106.548L162.162 106.021L162.349 103.214C162.401 102.461 162.632 101.869 163.054 101.43C163.472 100.994 163.994 100.794 164.621 100.838C165.008 100.864 165.335 100.973 165.6 101.169C165.866 101.364 166.066 101.639 166.192 101.995C166.371 101.525 166.632 101.173 166.98 100.942C167.328 100.712 167.741 100.611 168.22 100.646C168.904 100.69 169.434 100.981 169.804 101.512C170.174 102.043 170.331 102.735 170.274 103.584L170.079 106.552L170.074 106.548ZM163.49 104.498L165.57 104.637L165.635 103.654C165.683 102.922 165.365 102.535 164.682 102.492C163.981 102.444 163.607 102.757 163.563 103.427L163.494 104.498H163.49ZM166.732 104.715L168.96 104.863L169.047 103.532C169.099 102.766 168.76 102.357 168.029 102.309C167.276 102.257 166.871 102.644 166.814 103.462L166.732 104.715Z" fill="white"/>
<path d="M170.122 106.609H170.07L162.102 106.073V106.021L162.293 103.214C162.345 102.452 162.585 101.839 163.011 101.395C163.442 100.947 163.977 100.746 164.621 100.786C165.017 100.812 165.357 100.925 165.631 101.129C165.87 101.308 166.062 101.547 166.193 101.852C166.371 101.434 166.628 101.116 166.95 100.899C167.307 100.664 167.733 100.559 168.225 100.594C168.926 100.642 169.47 100.938 169.848 101.482C170.223 102.022 170.384 102.731 170.327 103.588L170.127 106.609H170.122ZM162.215 105.973L170.022 106.491L170.214 103.58C170.27 102.748 170.114 102.061 169.753 101.543C169.396 101.029 168.873 100.746 168.212 100.703C167.742 100.672 167.341 100.768 167.002 100.99C166.667 101.212 166.406 101.556 166.236 102.017L166.184 102.156L166.132 102.017C166.005 101.673 165.814 101.404 165.557 101.216C165.3 101.029 164.978 100.92 164.604 100.894C163.999 100.855 163.486 101.047 163.081 101.469C162.672 101.895 162.441 102.483 162.393 103.218L162.21 105.973H162.215ZM169.004 104.924H168.952L166.671 104.768L166.758 103.462C166.784 103.04 166.906 102.722 167.12 102.522C167.333 102.317 167.637 102.23 168.029 102.257C168.408 102.283 168.691 102.405 168.869 102.618C169.047 102.831 169.126 103.14 169.1 103.536L169.008 104.92L169.004 104.924ZM166.784 104.668L168.904 104.807L168.991 103.532C169.017 103.166 168.947 102.879 168.786 102.687C168.625 102.496 168.369 102.387 168.02 102.365C167.659 102.339 167.381 102.422 167.193 102.6C167.002 102.783 166.893 103.075 166.867 103.466L166.789 104.663L166.784 104.668ZM165.614 104.698H165.561L163.429 104.554L163.503 103.427C163.525 103.079 163.638 102.818 163.834 102.653C164.03 102.487 164.312 102.418 164.678 102.439C165.035 102.461 165.3 102.579 165.47 102.783C165.635 102.988 165.709 103.284 165.683 103.658L165.614 104.694V104.698ZM163.542 104.45L165.514 104.581L165.575 103.654C165.596 103.305 165.535 103.036 165.383 102.853C165.235 102.67 164.996 102.57 164.669 102.548C164.33 102.526 164.077 102.587 163.903 102.735C163.729 102.879 163.629 103.114 163.612 103.432L163.542 104.45Z" fill="white"/>
<path d="M162.306 94.5229L162.215 92.83L167.233 92.5645C168.216 92.5123 168.991 92.7516 169.566 93.287C170.14 93.8223 170.449 94.6013 170.506 95.6327C170.562 96.6642 170.336 97.4737 169.827 98.0655C169.317 98.6531 168.565 98.9751 167.568 99.0274L162.563 99.2928L162.472 97.5999L167.559 97.33C168.095 97.2996 168.491 97.1473 168.756 96.8687C169.022 96.5902 169.139 96.2029 169.113 95.7067C169.087 95.2106 168.926 94.8363 168.634 94.5882C168.343 94.3402 167.929 94.227 167.398 94.2575L162.311 94.5273L162.306 94.5229Z" fill="white"/>
<path d="M162.507 99.345L162.411 97.5433H162.463L167.551 97.2691C168.069 97.243 168.456 97.0907 168.713 96.8252C168.965 96.5597 169.079 96.1811 169.057 95.7023C169.031 95.2236 168.878 94.858 168.6 94.623C168.321 94.3837 167.917 94.2749 167.399 94.3053L162.259 94.5795L162.163 92.7777H162.215L167.233 92.5079C168.226 92.4557 169.026 92.7038 169.605 93.2434C170.184 93.7831 170.506 94.5839 170.563 95.624C170.619 96.6642 170.384 97.4954 169.871 98.0916C169.357 98.6879 168.582 99.0186 167.573 99.0752L162.511 99.345H162.507ZM162.524 97.6434L162.607 99.2275L167.56 98.9664C168.539 98.9142 169.283 98.5965 169.779 98.022C170.275 97.4475 170.497 96.6424 170.445 95.6284C170.393 94.6143 170.084 93.8397 169.522 93.3218C168.965 92.8039 168.195 92.5645 167.233 92.6167L162.272 92.8778L162.355 94.462L167.386 94.1965C167.934 94.1704 168.36 94.2836 168.661 94.5403C168.965 94.7971 169.131 95.1888 169.157 95.698C169.183 96.2072 169.057 96.6119 168.787 96.8992C168.513 97.1864 168.099 97.3474 167.555 97.3735L162.524 97.639V97.6434Z" fill="white"/>
<path d="M164.174 89.5616L169.588 88.565L169.857 90.0316L162.058 91.4678L161.732 89.6878L166.615 85.5446L161.158 86.5499L160.888 85.0833L168.687 83.6471L169.013 85.4271L164.178 89.5616H164.174Z" fill="white"/>
<path d="M162.011 91.5287L161.667 89.666L161.689 89.6443L166.415 85.636L161.101 86.6152L160.81 85.0398L160.862 85.0311L168.717 83.5862L169.061 85.4489L169.039 85.4706L164.357 89.4746L169.627 88.504L169.918 90.0795L169.866 90.0882L162.011 91.5374V91.5287ZM161.784 89.7052L162.098 91.4025L169.792 89.9838L169.54 88.6215L163.982 89.6443L168.948 85.401L168.635 83.708L160.94 85.1268L161.193 86.489L166.798 85.4576L161.784 89.7096V89.7052Z" fill="white"/>
<path d="M168.077 81.2796L160.526 83.7037L159.665 81.0228C159.308 79.9087 159.36 78.9512 159.817 78.1417C160.274 77.3323 161.109 76.736 162.324 76.3443C163.529 75.957 164.556 75.957 165.405 76.3443C166.254 76.7317 166.854 77.4715 167.207 78.5639L168.077 81.2753V81.2796ZM161.27 81.68L166.293 80.0697L165.997 79.1427C165.579 77.8458 164.569 77.4541 162.963 77.9677L162.746 78.0373C161.149 78.5508 160.557 79.4604 160.979 80.7661L161.27 81.68Z" fill="white"/>
<path d="M160.487 83.7733L159.613 81.0402C159.251 79.9173 159.304 78.9338 159.769 78.1156C160.231 77.2974 161.088 76.6881 162.307 76.2964C163.521 75.9047 164.57 75.9091 165.427 76.2964C166.289 76.6881 166.902 77.4497 167.255 78.5464L168.143 81.31L168.091 81.3274L160.487 83.7689V83.7733ZM163.995 76.1136C163.486 76.1136 162.933 76.2094 162.341 76.4009C161.149 76.7838 160.313 77.3801 159.865 78.1722C159.417 78.9642 159.369 79.9173 159.717 81.0097L160.561 83.6384L168.012 81.2491L167.159 78.5856C166.815 77.515 166.219 76.7795 165.388 76.4009C164.97 76.2094 164.509 76.1136 164 76.1136H163.995ZM161.236 81.7539L160.927 80.7878C160.5 79.4517 161.105 78.5116 162.729 77.9894L162.946 77.9197C164.578 77.3975 165.623 77.8022 166.049 79.1296L166.363 80.1088L161.236 81.7539ZM164.195 77.8022C163.839 77.8022 163.434 77.8762 162.981 78.0198L162.764 78.0895C161.184 78.5943 160.618 79.4647 161.031 80.7486L161.31 81.6103L166.232 80.0305L165.949 79.1557C165.658 78.2461 165.079 77.7979 164.2 77.7979L164.195 77.8022Z" fill="white"/>
<path d="M100.002 156.183C69.0237 156.183 43.8164 130.98 43.8164 99.9978C43.8164 69.0153 69.0194 43.8124 100.002 43.8124C130.984 43.8124 156.187 69.0153 156.187 99.9978C156.187 130.98 130.984 156.183 100.002 156.183ZM100.002 47.2984C70.943 47.2984 47.2981 70.939 47.2981 100.002C47.2981 129.065 70.9386 152.706 100.002 152.706C129.065 152.706 152.706 129.065 152.706 100.002C152.706 70.939 129.065 47.2984 100.002 47.2984Z" fill="white"/>
<path d="M100.003 180.041C55.8681 180.041 19.959 144.137 19.959 99.9978C19.959 55.8589 55.8637 19.9586 100.003 19.9586C144.141 19.9586 180.046 55.8633 180.046 100.002C180.046 144.141 144.141 180.046 100.003 180.046V180.041ZM100.003 23.4402C57.7873 23.4402 23.4407 57.7869 23.4407 100.002C23.4407 142.217 57.7873 176.564 100.003 176.564C142.218 176.564 176.565 142.217 176.565 100.002C176.565 57.7869 142.218 23.4402 100.003 23.4402Z" fill="white"/>
<path d="M116.592 115.548L119.26 121.132L127.838 106.835V86.7413H102.844L116.609 115.522L116.592 115.548Z" fill="white"/>
<path d="M73.8066 86.4716V106.565L82.3846 120.866L98.8007 86.4716H86.3363H73.8066Z" fill="white"/>
<path d="M94.4008 126.702L87.9858 141.142H113.559L107.144 126.702L113.646 115.435L100.772 88.4647L87.8857 115.409L94.4008 126.702Z" fill="white"/>
<path d="M113.659 115.409L100.772 88.4604V88.4648L113.646 115.435L113.659 115.409Z" fill="white"/>
<path d="M100.764 83.8602H102.94H112.488L106.347 64.7111H93.0605L85.0918 73.0627L88.2688 77.1102L90.6581 74.7209H96.0591L90.8366 83.8602H99.4667V82.9985L100.764 83.8602Z" fill="white"/>
<path d="M99.4668 82.9985V83.8602H100.764L99.4668 82.9985Z" fill="white"/>
<path d="M100.002 191C49.8226 191 9 150.177 9 100.002C9 85.0528 12.7036 70.2296 19.7105 57.1298L22.7787 58.7705C16.0417 71.3654 12.4773 85.6185 12.4773 99.9978C12.4773 148.254 51.7375 187.518 99.9978 187.518C148.258 187.518 187.514 148.258 187.514 99.9978C187.514 85.5881 183.937 71.3002 177.169 58.6878L180.237 57.0427C187.275 70.1599 190.991 85.0136 190.991 99.9978C190.991 150.177 150.169 191 99.9935 191H100.002Z" fill="white"/>
<path d="M174.436 53.9483C164.831 38.4549 150.913 26.5128 134.184 19.4102L135.546 16.207C152.941 23.5925 167.412 36.0134 177.4 52.1161L174.44 53.9527L174.436 53.9483Z" fill="white"/>
<path d="M129.635 17.6258C120.148 14.2138 110.177 12.4817 99.9975 12.4817C90.3838 12.4817 80.9354 14.031 71.9179 17.0818L70.8037 13.7829C80.1825 10.6103 90.0051 9 100.002 9C110.582 9 120.948 10.8018 130.815 14.3487L129.635 17.6258Z" fill="white"/>
<path d="M25.5161 54.0267L22.5566 52.1945C32.6361 35.9003 47.925 22.9441 65.6119 15.724L66.9305 18.9489C49.9226 25.8948 35.2125 38.3549 25.5161 54.0267Z" fill="white"/>
<path d="M65.9552 36.997C65.594 37.1798 65.2589 37.2233 64.9412 37.1362C64.6278 37.0448 64.3885 36.8316 64.2187 36.4965C64.049 36.1614 64.0229 35.8393 64.136 35.526C64.2492 35.217 64.4842 34.9689 64.8454 34.7905C65.2067 34.6077 65.5461 34.5642 65.8595 34.6599C66.1772 34.7556 66.4165 34.9689 66.5863 35.304C66.756 35.6391 66.7821 35.9612 66.6646 36.2658C66.5515 36.5705 66.3121 36.8142 65.9509 36.997H65.9552ZM65.8203 44.9091C65.2763 43.821 64.9934 42.7765 64.9716 41.7756C64.9499 40.7702 65.2023 39.865 65.7289 39.0468C66.2555 38.233 67.0345 37.5671 68.0703 37.0448C69.0757 36.54 70.0549 36.3137 71.008 36.3659C71.9611 36.4181 72.8446 36.7445 73.6541 37.3451C74.4636 37.9457 75.1512 38.8118 75.717 39.939C76.261 41.027 76.5439 42.0715 76.5656 43.0725C76.5874 44.0778 76.335 44.9874 75.8127 45.8056C75.2905 46.6238 74.5114 47.294 73.4756 47.8119C72.4703 48.3168 71.4911 48.5431 70.5336 48.4908C69.5805 48.4386 68.697 48.1079 67.8832 47.5029C67.0737 46.898 66.3817 46.0319 65.816 44.9047L65.8203 44.9091ZM68.0747 43.7775C68.6579 44.9439 69.3368 45.7186 70.1028 46.0972C70.8687 46.4802 71.6913 46.4497 72.5704 46.0101C73.4495 45.5706 73.9631 44.9265 74.1154 44.0865C74.2677 43.2422 74.0501 42.2412 73.4626 41.0749C72.8794 39.9085 72.2048 39.1382 71.4389 38.7596C70.6772 38.3809 69.8547 38.4158 68.9756 38.8553C68.0964 39.2949 67.5829 39.9346 67.4262 40.7746C67.2739 41.6145 67.4872 42.6155 68.0747 43.7775ZM69.2889 35.3214C68.9277 35.5042 68.5882 35.5477 68.2749 35.4607C67.9615 35.3693 67.7178 35.156 67.5524 34.8209C67.3827 34.4858 67.3566 34.1638 67.4697 33.8504C67.5829 33.5414 67.8179 33.2933 68.1791 33.1106C68.5404 32.9278 68.8798 32.8886 69.1932 32.98C69.5109 33.0757 69.7502 33.289 69.92 33.6241C70.0897 33.9592 70.1158 34.2813 69.9983 34.5859C69.8808 34.8906 69.6458 35.1343 69.2846 35.3171L69.2889 35.3214Z" fill="white"/>
<path d="M70.8079 48.5605C70.7165 48.5605 70.6295 48.5605 70.5381 48.5518C69.5763 48.4996 68.6754 48.1645 67.8572 47.5508C67.0434 46.9415 66.3427 46.0624 65.7769 44.9309C65.2285 43.8428 64.9413 42.7809 64.9195 41.7712C64.8978 40.7616 65.1545 39.8346 65.6855 39.012C66.2121 38.1938 67.0085 37.5149 68.0487 36.9926C69.0584 36.4878 70.0594 36.2571 71.0168 36.3094C71.9786 36.3616 72.8795 36.6967 73.6933 37.3016C74.5072 37.9066 75.2035 38.7857 75.7693 39.9129C76.3177 41.0009 76.6049 42.0628 76.6267 43.0725C76.6484 44.0822 76.3916 45.0135 75.865 45.8361C75.3384 46.6586 74.5464 47.3419 73.5062 47.8642C72.5923 48.3255 71.6827 48.5561 70.8079 48.5561V48.5605ZM65.8726 44.8873C66.4341 46.0015 67.1217 46.8675 67.9225 47.4681C68.7233 48.0644 69.6024 48.3951 70.5424 48.4473C71.4825 48.4996 72.4617 48.2733 73.454 47.7728C74.4767 47.2592 75.2514 46.5934 75.7693 45.7839C76.2828 44.9787 76.5353 44.0691 76.5135 43.0812C76.4917 42.0889 76.2089 41.0444 75.6692 39.9695C75.1121 38.8553 74.4201 37.9893 73.6237 37.3974C72.8273 36.8055 71.9482 36.4791 71.0081 36.4269C70.0681 36.3746 69.0888 36.601 68.0966 37.1014C67.0738 37.615 66.2948 38.2809 65.7769 39.0816C65.259 39.8824 65.0066 40.792 65.0283 41.7756C65.0501 42.7635 65.333 43.8124 65.8726 44.8873ZM71.2083 46.4193C70.821 46.4193 70.4423 46.3279 70.0811 46.1494C69.3064 45.7621 68.6188 44.9744 68.0313 43.8037C67.4437 42.633 67.2261 41.6102 67.3785 40.7659C67.5351 39.9129 68.0661 39.2557 68.9539 38.8075C69.8461 38.3592 70.6904 38.3287 71.4651 38.7117C72.2354 39.0947 72.923 39.8781 73.5149 41.0488C74.1024 42.2195 74.3244 43.2422 74.1721 44.0953C74.0198 44.9526 73.4888 45.6141 72.5966 46.058C72.1222 46.2974 71.6566 46.4193 71.2083 46.4193ZM70.3509 38.555C69.9157 38.555 69.4675 38.6726 69.0061 38.9032C68.1488 39.3341 67.6352 39.9651 67.4873 40.7833C67.3349 41.6059 67.5525 42.6068 68.1314 43.7558C68.7102 44.9047 69.3804 45.6794 70.1333 46.0537C70.8775 46.4236 71.6914 46.3975 72.5531 45.9667C73.4105 45.5358 73.9197 44.9004 74.0676 44.0822C74.2156 43.2553 73.998 42.2543 73.4235 41.1054C72.8447 39.9564 72.1745 39.1861 71.4259 38.8162C71.0821 38.6464 70.7252 38.5638 70.3596 38.5638L70.3509 38.555ZM65.2633 37.232C65.1502 37.232 65.037 37.2146 64.9282 37.1841C64.6018 37.0884 64.3451 36.8664 64.171 36.5183C63.9969 36.1701 63.9664 35.8306 64.0839 35.5042C64.2014 35.1822 64.4495 34.9254 64.8238 34.7383C65.1937 34.5511 65.5506 34.5076 65.8813 34.6033C66.2121 34.7034 66.4689 34.9298 66.643 35.2779C66.817 35.6261 66.8432 35.9656 66.7257 36.2833C66.6081 36.601 66.3557 36.8577 65.9858 37.0449C65.7377 37.1711 65.4984 37.232 65.2677 37.232H65.2633ZM65.5332 34.6643C65.3243 34.6643 65.1023 34.7209 64.876 34.8384C64.5278 35.0124 64.2972 35.2518 64.1927 35.5478C64.0839 35.8437 64.1144 36.1527 64.2754 36.4747C64.4365 36.7968 64.6671 37.0013 64.9674 37.084C65.2677 37.1711 65.5941 37.1232 65.9423 36.9491C66.2904 36.775 66.5211 36.54 66.6299 36.2484C66.7387 35.9612 66.7126 35.6522 66.5516 35.3301C66.3905 35.0081 66.1555 34.8035 65.8552 34.7122C65.7508 34.6817 65.6463 34.6643 65.5375 34.6643H65.5332ZM68.6014 35.5565C68.4882 35.5565 68.3751 35.539 68.2706 35.5086C67.9442 35.4128 67.6875 35.1909 67.5134 34.8427C67.3393 34.4945 67.3088 34.1551 67.4263 33.8287C67.5438 33.5066 67.7919 33.2498 68.1662 33.0627C68.5405 32.8756 68.893 32.832 69.2238 32.9278C69.5545 33.0279 69.8113 33.2542 69.9854 33.6024C70.1595 33.9505 70.1899 34.29 70.0681 34.6077C69.9506 34.9254 69.6981 35.1778 69.3282 35.365C69.0801 35.4912 68.8408 35.5521 68.6101 35.5521L68.6014 35.5565ZM68.8712 32.9887C68.6623 32.9887 68.4404 33.0453 68.2097 33.1628C67.8615 33.3369 67.6309 33.5763 67.5264 33.8722C67.4176 34.1681 67.4481 34.4771 67.6091 34.7992C67.7702 35.1212 68.0008 35.3258 68.3011 35.4085C68.6014 35.4955 68.9278 35.4477 69.276 35.2736C69.6241 35.0995 69.8548 34.8645 69.9636 34.5729C70.0724 34.2856 70.0463 33.9766 69.8853 33.6546C69.7242 33.3369 69.4936 33.128 69.1889 33.0366C69.0888 33.0061 68.98 32.9931 68.8712 32.9931V32.9887Z" fill="white"/>
<path d="M89.3647 42.0629L88.1113 30.643L90.5529 30.3732L91.0925 35.2693L94.6395 29.9249L97.39 29.6202L93.3817 35.4303L99.0351 40.9966L96.1192 41.3187L91.21 36.3703L91.8063 41.793L89.3647 42.0629Z" fill="white"/>
<path d="M89.3172 42.1238L88.0508 30.5951L90.6011 30.3122L91.1277 35.1125L94.605 29.8726L97.4992 29.5549L93.4517 35.4259L99.153 41.0401L96.0978 41.3752L96.0804 41.3578L91.28 36.5226L91.8632 41.8452L89.3129 42.1238H89.3172ZM88.1683 30.6908L89.413 42.0019L91.7457 41.7451L91.1364 36.2223L96.137 41.262L98.9092 40.9574L93.3038 35.439L97.2685 29.6898L94.6616 29.9771L91.045 35.4259L90.4967 30.4341L88.1639 30.6908H88.1683Z" fill="white"/>
<path d="M109.542 41.9149L111.931 30.6778L118.916 32.1619L118.516 34.042L113.933 33.0671L113.333 35.8872L116.984 36.6663L116.584 38.5464L112.932 37.7673L111.944 42.4197L109.542 41.9105V41.9149Z" fill="white"/>
<path d="M111.988 42.4893L109.477 41.954L109.49 41.9018L111.892 30.6125L111.944 30.6255L118.982 32.1227L118.559 34.1116L118.507 34.0985L113.977 33.1367L113.398 35.8524L117.049 36.6314L116.627 38.6203L112.976 37.8413L111.988 42.4937V42.4893ZM109.607 41.8713L111.905 42.3588L112.893 37.7064L116.544 38.4854L116.923 36.7098L113.272 35.9307L113.285 35.8785L113.894 33.0018L113.946 33.0148L118.477 33.9767L118.855 32.201L111.979 30.7387L109.611 41.8713H109.607Z" fill="white"/>
<path d="M126.758 47.3549L132.511 37.4104L136.041 39.4515C136.985 39.9999 137.608 40.6832 137.908 41.5057C138.208 42.3283 138.13 43.1334 137.677 43.9168C137.394 44.4042 137.042 44.7611 136.62 44.9787C136.197 45.2006 135.71 45.279 135.166 45.218C135.667 45.749 135.954 46.3148 136.028 46.9154C136.102 47.516 135.967 48.1165 135.619 48.7171C135.123 49.5788 134.409 50.0793 133.482 50.2186C132.555 50.3579 131.558 50.1185 130.492 49.5049L126.762 47.3462L126.758 47.3549ZM131.28 44.1866L129.661 46.985L131.332 47.9512C132.294 48.5082 133.042 48.3298 133.573 47.4115C134.122 46.4627 133.878 45.6924 132.851 45.0962L131.275 44.1866H131.28ZM133.638 40.113L132.128 42.7243L133.36 43.438C134.278 43.969 134.983 43.8036 135.484 42.9419C135.993 42.0628 135.828 41.3795 134.988 40.8921L133.643 40.113H133.638Z" fill="white"/>
<path d="M132.96 50.3187C132.172 50.3187 131.332 50.062 130.457 49.5571L126.68 47.3724L132.485 37.3321L136.063 39.3993C137.016 39.9477 137.651 40.6527 137.952 41.484C138.256 42.3196 138.174 43.1465 137.717 43.9429C137.429 44.4391 137.068 44.8003 136.633 45.0266C136.237 45.2311 135.784 45.3182 135.288 45.2877C135.736 45.7969 135.998 46.3409 136.072 46.911C136.15 47.5203 136.011 48.1383 135.654 48.7476C135.149 49.618 134.418 50.1359 133.478 50.2752C133.304 50.3013 133.129 50.3144 132.951 50.3144L132.96 50.3187ZM126.832 47.3332L130.514 49.4614C131.567 50.0707 132.559 50.3057 133.469 50.1708C134.374 50.0315 135.079 49.5353 135.567 48.6954C135.906 48.1079 136.041 47.5116 135.967 46.9284C135.893 46.3453 135.606 45.7838 135.118 45.2616L135.018 45.1528L135.166 45.1702C135.697 45.2268 136.176 45.1484 136.589 44.9352C137.003 44.7219 137.351 44.3694 137.625 43.895C138.069 43.1291 138.147 42.3326 137.852 41.5275C137.56 40.718 136.938 40.0391 136.011 39.4994L132.529 37.4844L126.832 47.3375V47.3332ZM132.333 48.3211C132.02 48.3211 131.676 48.2123 131.306 47.9991L129.587 47.0024L131.258 44.1083L132.877 45.044C133.935 45.6533 134.183 46.4584 133.621 47.4333C133.347 47.9033 133.016 48.1906 132.629 48.2819C132.533 48.3037 132.438 48.3168 132.333 48.3168V48.3211ZM129.731 46.9633L131.358 47.9033C131.824 48.1731 132.246 48.2645 132.603 48.1818C132.96 48.0948 133.273 47.825 133.526 47.3854C134.061 46.4628 133.83 45.7273 132.82 45.1441L131.293 44.2606L129.731 46.9633ZM134.313 43.7906C134.013 43.7906 133.687 43.6861 133.325 43.4816L132.046 42.7417L133.613 40.0347L135.005 40.8399C135.876 41.3404 136.05 42.0585 135.523 42.9637C135.205 43.5164 134.801 43.7906 134.313 43.7906ZM132.194 42.6982L133.382 43.3858C134.278 43.9037 134.944 43.7471 135.432 42.9115C135.928 42.0541 135.771 41.41 134.953 40.9356L133.652 40.1827L132.194 42.7026V42.6982Z" fill="white"/>
</g>
</svg>
