<svg width="200" height="200" viewBox="0 0 200 200" fill="none" xmlns="http://www.w3.org/2000/svg">
<path d="M86.9018 62.0428C89.2918 61.8128 91.1218 62.0828 92.5318 61.4328C98.0218 58.9128 103.792 58.3128 109.712 57.8928C113.182 57.6428 116.372 56.0228 119.132 53.8428C123.512 50.3928 127.652 46.6128 132.232 43.4628C135.032 41.5328 138.432 40.4428 141.612 39.0828C144.892 37.6828 148.232 36.4128 151.532 35.0628C152.292 34.7528 153.032 34.3728 153.752 33.9528C157.012 32.0728 157.802 29.1728 156.052 25.5328C153.322 19.8228 155.912 10.1228 161.562 7.70276C171.952 3.25276 181.792 7.64276 182.352 19.4928C182.532 23.3728 181.832 27.3328 181.172 31.1928C180.842 33.1228 179.672 34.7228 177.372 35.3028C172.352 36.5928 168.042 39.3328 163.902 42.3828C162.772 43.2128 161.302 43.5828 160.022 44.2228C159.022 44.7228 158.022 45.2528 157.112 45.9028C154.582 47.7128 152.092 49.5928 149.592 51.4528C148.272 52.4328 146.982 53.4528 145.642 54.4128C143.912 55.6628 142.082 56.7828 140.422 58.1128C135.942 61.7228 130.042 62.7828 125.602 66.4728C121.702 69.7128 117.682 72.7928 113.772 76.0228C113.232 76.4628 112.992 77.3428 112.772 78.0728C112.582 78.6928 112.762 79.4328 112.522 80.0228C111.212 83.2528 111.102 83.3728 114.122 85.3828C115.412 86.2528 115.922 87.1428 115.842 88.5928C115.722 90.6728 116.772 91.5828 118.832 91.6328C119.792 91.6628 120.752 92.0228 121.702 92.2528C125.172 93.0928 125.582 93.0628 127.072 89.5728C127.962 87.4928 129.822 86.8228 131.312 85.6128C134.042 83.3928 134.372 82.5828 132.072 80.0928C130.372 78.2528 130.272 76.3028 130.402 74.1428C130.512 72.2828 131.312 71.1028 133.342 70.7828C137.132 70.1928 140.082 68.4328 141.672 64.6728C142.322 63.1428 143.582 62.1228 145.402 61.7128C146.962 61.3628 148.432 60.5328 149.912 59.8628C152.622 58.6328 152.622 58.6828 153.822 61.3228C154.852 63.6028 155.182 65.4128 153.042 67.5028C151.182 69.3228 150.162 71.8928 150.492 74.7528C150.672 76.2928 150.482 77.6928 148.642 78.3428C145.982 79.2728 145.472 81.5028 145.642 83.9728C146.002 88.9928 145.192 93.8428 143.552 98.5528C142.332 102.053 140.562 105.103 136.432 105.883C135.352 106.093 134.342 106.743 133.332 107.263C129.192 109.413 124.842 110.683 120.152 110.683C118.662 110.683 117.292 110.613 116.302 112.233C114.962 114.413 112.672 114.913 110.252 114.803C105.782 114.583 101.472 113.623 97.3018 112.003C94.8518 111.053 92.5118 110.443 89.8318 112.033C86.9718 113.733 83.7618 113.233 81.9418 110.333C79.2218 106.013 75.3518 105.433 70.8718 105.823C64.4618 106.373 58.9918 103.943 53.8318 100.423C50.5718 98.2028 47.1418 96.2328 43.8618 94.0228C42.8818 93.3628 42.2518 93.1628 41.2918 94.0028C40.0618 95.0828 38.5918 95.8928 37.4118 97.0128C34.6918 99.6028 32.0118 102.253 29.4818 105.023C28.8118 105.763 28.4018 107.053 28.4418 108.063C28.5018 109.673 28.9018 111.313 29.3918 112.863C30.1118 115.153 30.5418 117.723 33.8118 117.983C34.6918 118.053 35.6618 118.783 36.3118 119.473C36.7918 119.993 37.2618 121.333 36.9918 121.613C35.3618 123.373 33.7618 125.533 31.6818 126.393C29.4418 127.313 26.9318 126.803 25.5618 123.843C23.4218 119.233 20.8218 114.833 18.5918 110.263C18.0518 109.153 17.8318 107.593 18.1418 106.413C19.8218 100.123 20.1018 93.4828 22.9118 87.4728C23.4618 86.3028 23.7818 84.9928 24.0318 83.7228C24.8018 79.8428 25.9018 76.2028 28.4518 72.9828C29.7818 71.2928 30.1818 68.8828 31.1418 66.8728C32.0618 64.9528 32.9918 62.9928 34.2318 61.2728C35.4818 59.5528 38.2618 58.1528 38.3218 56.5328C38.4318 53.8028 37.1018 50.9328 36.0418 48.2528C35.2118 46.1628 34.6718 44.2628 35.5618 42.0628C35.9818 41.0328 35.9518 39.8228 36.0818 38.6828C36.5018 34.8528 39.3218 32.1528 43.0118 31.9528C44.4618 31.8728 45.9018 31.4428 47.3518 31.3128C49.4818 31.1228 51.6818 30.7028 53.7418 31.0328C58.2618 31.7728 61.0318 32.4328 61.0718 38.9828C61.0818 40.1428 61.0218 41.3028 61.0818 42.4628C61.2418 45.6728 63.4618 46.9928 66.0118 45.2528C70.1818 42.4128 74.2218 39.3828 78.3618 36.5028C79.2918 35.8528 80.4018 35.4128 81.4918 35.0628C82.8218 34.6328 84.5618 33.0928 85.5018 34.7228C86.5118 36.4728 89.1918 37.4528 87.9718 40.6028C86.8218 43.5928 85.5218 45.7628 82.8918 44.8528C80.1618 43.9128 79.2018 45.4428 78.2218 46.9528C76.9118 48.9628 76.5118 51.6028 73.6418 52.3828C73.1418 52.5228 72.9718 53.7628 72.5918 54.4628C71.9518 55.6528 71.8018 56.3628 73.4418 57.0428C76.1518 58.1528 78.5918 59.9328 81.3218 60.9928C83.2918 61.7628 85.5018 61.8028 86.9018 62.0428Z" fill="white"/>
<path d="M72.6918 192.293C71.3718 192.293 70.0418 192.333 68.7218 192.283C67.2018 192.233 66.3318 191.403 65.9718 189.923C63.6318 180.353 61.2818 170.783 58.9118 161.223C58.8118 160.813 58.5318 160.453 58.3318 160.073C57.9918 160.403 57.4618 160.673 57.3518 161.063C55.5718 167.563 53.8318 174.073 52.1118 180.583C51.3518 183.443 50.6718 186.323 49.9418 189.183C49.5618 190.663 48.5618 191.403 47.0618 191.413C43.9218 191.433 40.7718 191.403 37.6318 191.403C36.0718 191.403 35.4218 190.723 35.0318 189.123C33.2018 181.623 31.1618 174.163 29.2018 166.693C28.0718 162.403 27.0218 158.093 25.8218 153.813C23.5118 145.573 25.4318 143.333 33.8818 144.443C35.2018 144.613 35.9818 145.043 36.1918 146.473C37.2318 153.553 40.0818 160.323 39.7318 167.643C39.7018 168.233 40.1318 168.843 40.3418 169.453C40.9818 171.283 41.5918 173.113 42.2718 174.933C42.4218 175.323 42.8018 175.633 43.0718 175.983C43.3618 175.653 43.8118 175.363 43.9118 174.983C46.0518 166.733 48.1118 158.453 50.2618 150.203C51.6218 144.983 52.3918 144.443 57.7518 144.423C58.5818 144.423 59.4118 144.443 60.2318 144.423C66.0718 144.293 65.4618 144.943 66.7618 149.783C68.6318 156.733 69.8518 163.853 71.4218 170.883C71.7018 172.153 72.3318 173.353 72.8218 174.573C72.9918 175.003 73.2418 175.403 73.4518 175.823C73.6018 175.363 73.7918 174.913 73.9018 174.453C75.9218 165.823 77.9318 157.183 79.9518 148.543C80.8918 144.543 81.0218 144.423 85.3018 144.433C86.6118 144.433 87.9718 144.423 89.2218 144.753C91.6018 145.373 91.9418 146.103 91.2618 148.693C88.0518 160.773 84.8118 172.843 81.5818 184.923C81.5418 185.083 81.4318 185.223 81.3918 185.383C79.5918 192.313 79.5918 192.313 72.6918 192.293Z" fill="white"/>
<path d="M116.122 143.553C119.232 143.003 122.522 144.323 125.852 146.023C129.992 148.153 131.632 151.713 132.462 155.913C132.762 157.453 132.212 158.523 130.442 158.553C129.612 158.563 128.762 158.423 127.962 158.573C124.352 159.243 122.222 157.743 120.542 154.513C119.082 151.703 115.672 150.893 112.762 151.953C109.372 153.183 107.692 156.553 108.922 159.963C109.142 160.583 109.952 161.213 110.622 161.433C112.962 162.193 115.372 162.733 117.722 163.433C121.502 164.563 125.342 165.433 128.702 167.753C131.952 169.993 133.562 172.783 133.712 176.783C134.072 186.603 128.252 190.593 120.382 192.273C116.072 193.193 111.562 193.513 107.162 192.403C100.102 190.613 95.7818 186.313 95.7118 179.533C95.6818 176.643 95.9918 176.373 98.7318 176.233C99.8918 176.173 101.052 176.193 102.212 176.223C105.602 176.313 105.582 176.333 106.842 179.913C107.932 183.033 110.282 184.803 113.442 185.113C116.772 185.433 119.612 184.013 121.542 181.283C123.742 178.173 121.462 175.833 118.772 174.653C116.242 173.543 113.382 173.203 110.712 172.403C105.232 170.773 100.182 168.483 97.6318 162.833C96.2718 159.823 96.1318 156.803 97.7618 153.853C101.522 147.073 107.482 143.623 116.122 143.553Z" fill="white"/>
<path d="M161.072 144.363C161.732 144.363 162.402 144.353 163.062 144.363C166.572 144.413 166.492 144.433 167.642 147.833C168.902 151.573 170.422 155.223 171.642 158.973C172.702 162.243 173.352 165.643 174.452 168.893C175.762 172.753 177.372 176.513 178.842 180.313C179.912 183.083 181.022 185.833 181.982 188.633C182.682 190.663 182.202 191.223 179.962 191.383C179.302 191.433 178.642 191.403 177.972 191.403C171.992 191.483 171.992 191.483 169.872 185.653C168.802 182.713 168.402 182.403 165.202 182.363C161.722 182.323 158.232 182.523 154.772 182.283C152.132 182.103 150.732 183.273 149.952 185.533C149.632 186.453 149.572 187.463 149.302 188.403C148.752 190.303 147.772 191.643 145.462 191.433C143.822 191.283 142.152 191.403 140.492 191.403C138.662 191.403 138.142 190.233 138.512 188.773C139.242 185.903 140.042 183.043 141.072 180.273C145.092 169.513 149.232 158.793 153.302 148.053C154.672 144.423 154.642 144.413 158.582 144.363C159.412 144.353 160.242 144.363 161.072 144.363ZM159.812 173.373C160.962 173.373 162.122 173.383 163.272 173.373C164.702 173.363 165.352 172.963 164.852 171.273C163.502 166.723 162.352 162.123 161.092 157.553C161.022 157.283 160.722 157.073 160.522 156.833C160.202 157.113 159.702 157.333 159.582 157.683C158.412 161.083 157.522 164.583 156.142 167.883C153.832 173.433 153.702 173.383 159.812 173.373Z" fill="white"/>
</svg>
