<svg width="52" height="58" viewBox="0 0 52 58" fill="none" xmlns="http://www.w3.org/2000/svg">
<path d="M50.9703 36.1288V33.5441H45.7474L42.5766 30.3712H49.2319V26.4941H49.2061V26.4915H42.7265L45.8248 23.391H51.0065V20.8062H48.4079L51.6639 17.5481L48.9245 14.8069L45.6789 18.0547V15.5449H43.0958V20.6395L39.9238 23.8136V17.1785H36.0492V28.1767C35.8258 31.2953 34.7603 37.2235 30.1637 42.428C29.4443 43.2435 28.694 43.975 27.9268 44.6354V17.2211L34.812 10.3314L32.9857 8.50395L27.9281 13.565V8.2054L31.6283 4.5027L29.8021 2.67525L27.9281 4.55052V0H24.0535V4.46392L22.3164 2.72566L20.4902 4.5531L24.0548 8.1201V13.6528L18.9093 8.50395L17.0831 10.3314L24.0548 17.3077V44.6793C17.3014 38.6593 15.8406 30.1438 15.5836 28.1406V17.1914H11.709V23.7038L8.55381 20.5465V15.3381H5.97075V17.9617L2.76904 14.7578L0.0297027 17.499L3.19783 20.6692H0.712928V23.254H5.7809L9.03039 26.5057H2.39967V30.3829H8.93998L5.70728 33.6177H0.657393V36.2025H3.12422L0 39.3288L2.73934 42.07L5.98496 38.8222V41.4638H8.56803V36.2374L12.4633 32.3395C12.8469 33.8258 13.4022 35.5576 14.2081 37.4057C16.1248 41.7973 18.8189 45.4276 22.2402 48.236C17.548 50.3374 13.1723 50.5261 11.4649 50.5041L9.52634 50.4796L9.43981 58H41.8818V50.6334L39.9587 50.6191C37.2723 50.5998 33.4817 50.1487 29.5657 48.3109C30.772 47.361 31.9512 46.2625 33.0697 44.9959C36.7764 40.7995 38.5096 36.2103 39.3104 32.5851L43.1307 36.408V41.4613H45.7138V38.9928L48.838 42.1191L51.5773 39.3779L48.3317 36.1301H50.9716L50.9703 36.1288ZM35.4422 54.1215H15.4377C18.292 53.7416 22.071 52.8369 25.872 50.7497C29.2054 52.6766 32.5401 53.6563 35.4422 54.1215Z" fill="#3CB9FF"/>
</svg>
