<svg width="200" height="200" viewBox="0 0 200 200" fill="none" xmlns="http://www.w3.org/2000/svg">
<path d="M167.261 35.906H192.005C193.735 30.7031 195.471 25.4893 197.197 20.2755C184.151 20.3134 171.106 20.3513 158.056 20.3837L142.571 45.7495L136.773 45.7332L126.292 45.7008L116.178 45.6683V11H90.6984C87.0153 11 84.0244 13.9855 84.0244 17.6686V19.8807C75.89 20.6812 69.5351 27.5608 69.5567 35.906L84.0244 35.8628V45.6683L73.9105 45.7008L63.4289 45.7332L57.631 45.7495L42.1465 20.3837C29.0959 20.3513 16.0506 20.3134 3 20.2755C4.73071 25.4839 6.46683 30.6977 8.19754 35.9114C16.4455 35.9114 24.6934 35.9114 32.9413 35.9114C34.8559 39.216 36.7705 42.5206 38.6851 45.8198L38.7284 45.8901H16.7213L11.5778 45.9063C13.3086 51.2607 15.0447 56.6097 16.7754 61.9641L47.2954 61.8613H47.4523V61.9641L47.5063 71.3045H19.8528C21.5835 76.6589 23.3196 82.0349 25.0558 87.3947H47.5875L47.5983 88.9686L47.647 97.3463L28.2468 97.422C29.9721 102.771 31.7136 108.12 33.4389 113.474L50.7136 113.404C52.3956 118.504 55.6136 126.152 61.9362 133.821C70.7195 144.465 80.8929 149.614 86.3825 151.912C82.7047 154.033 77.6153 156.488 71.2604 158.262C65.0244 159.998 59.5077 160.55 55.3108 160.658L47.6037 160.977V189.139H152.593V160.977L144.886 160.658C140.689 160.55 135.172 159.998 128.936 158.262C122.581 156.488 117.497 154.033 113.814 151.912C119.309 149.614 129.477 144.46 138.261 133.821C144.583 126.152 147.801 118.51 149.483 113.404L166.758 113.474C168.483 108.12 170.225 102.771 171.95 97.422L152.55 97.3463L152.598 88.9686L152.609 87.3947H175.141C176.877 82.0349 178.613 76.6589 180.344 71.3045H152.69L152.744 61.9641V61.8613H152.901L183.421 61.9641C185.152 56.6097 186.888 51.2607 188.619 45.9063L183.475 45.8901H161.468L161.512 45.8198C163.426 42.5206 165.341 39.216 167.255 35.9114L167.261 35.906ZM138.515 173.119C138.601 173.135 138.699 173.151 138.785 173.168H138.515V173.119ZM118.341 169.728C125.318 171.886 131.592 172.849 136.606 173.26H63.5966C68.6156 172.849 74.8895 171.886 81.861 169.728C89.395 167.408 95.512 164.384 100.098 161.691C104.685 164.384 110.802 167.408 118.336 169.728H118.341ZM132.187 113.134C130.727 116.303 128.661 119.91 125.74 123.534C125.729 123.545 125.718 123.556 125.707 123.567C120.234 130.322 113.809 134.562 108.346 137.228C105.128 138.797 102.251 139.814 100.098 140.473C97.9458 139.808 95.0631 138.791 91.845 137.228C86.3879 134.567 79.9626 130.322 74.4892 123.572L74.4568 123.534C71.5308 119.91 69.4702 116.303 68.0099 113.134L100.093 113.009L132.176 113.128L132.187 113.134ZM136.535 88.9361C136.519 91.7593 136.503 94.5826 136.487 97.4058L100.104 97.3733C87.9726 97.3842 75.8413 97.395 63.7155 97.4058C63.7047 94.5826 63.6885 91.7593 63.6723 88.9361H63.6831L63.6723 87.3623H136.541L136.53 88.9361H136.541H136.535ZM136.692 61.6125C136.676 63.9706 136.66 66.3179 136.643 68.6706C136.643 69.5467 136.633 70.4175 136.627 71.2937H63.5749C63.5749 70.4229 63.5641 69.5521 63.5533 68.6706C63.5425 66.3179 63.5262 63.9706 63.51 61.6125L100.098 61.4935L136.687 61.6071L136.692 61.6125Z" fill="#C90101"/>
</svg>
