<?xml version="1.0" encoding="utf-8"?>
<!-- Generator: Adobe Illustrator 27.4.0, SVG Export Plug-In . SVG Version: 6.00 Build 0)  -->
<svg version="1.1" id="Layer_1" xmlns="http://www.w3.org/2000/svg" xmlns:xlink="http://www.w3.org/1999/xlink" x="0px" y="0px"
	 viewBox="0 0 612 612" style="enable-background:new 0 0 612 612;" xml:space="preserve">
<style type="text/css">
	.st0{opacity:0.35;fill:#010101;}
	.st1{fill:none;stroke:#FFFFFF;stroke-width:19;stroke-miterlimit:10;}
	.st2{fill:#FFFFFF;}
	.st3{fill:#FFFFFF;stroke:#FFFFFF;stroke-miterlimit:10;}
</style>
<path class="st0" d="M404.92,298.17c-0.01,0.04-0.02,0.07-0.03,0.11c0-0.03,0.01-0.07,0.02-0.11H404.92z"/>
<path class="st0" d="M408.02,308.57"/>
<circle class="st1" cx="303.99" cy="305.66" r="291.24"/>
<path class="st2" d="M372.29,352.91c-0.39,0.35-0.79,0.7-1.19,1.05c0.37-0.36,0.75-0.73,1.12-1.1
	C372.24,352.87,372.27,352.89,372.29,352.91z"/>
<path class="st2" d="M404.88,298.31c-0.67,2.81-1.45,5.56-2.34,8.27c-0.12-0.07-0.23-0.16-0.35-0.24
	C403.18,303.7,404.08,301.02,404.88,298.31z"/>
<path class="st2" d="M456.53,410.62c0,70.25-56.95,127.19-127.19,127.19c-15.83,0-30.98-2.89-44.95-8.17v-63.61
	c12.3,9.89,27.93,15.81,44.95,15.81c39.64,0,71.78-32.14,71.78-71.78c0-23.54-11.33-44.13-28.83-57.15
	c-0.02-0.02-0.05-0.04-0.07-0.05c-0.37,0.37-0.75,0.74-1.12,1.1c-0.02,0.02-0.04,0.03-0.06,0.05
	c-18.75,16.3-43.25,26.17-70.05,26.17c-5.72,0-17.73-0.4-31.76-4.8c-0.29-0.09-0.57-0.18-0.86-0.28c-2.26-0.72-4.45-1.52-6.57-2.37
	v33.73h116.18v41.15c0,7.37-5.97,13.35-13.35,13.35H206.6V166.58h55.2v136.99c19.16-12.75,42.19-20.14,67.54-20.14
	c9.32,0,18.41,1,27.16,2.91c-8.66,17.63-23.56,32.44-40.95,37.68c-8.41,2.54-18.74,3.34-19.26,3.33
	c-15.72-0.18-28.28-8.13-34.49-12.38v4.92c4.95,3.95,11.44,7.92,19.57,10.47c0.49,0.16,9.37,2.72,17.96,2.72
	c28.53,0,52.45-19.78,58.77-46.38c0.53-2.2,0.94-4.45,1.21-6.74c0.29-2.39,0.44-4.83,0.44-7.3c0-33.36-27.05-60.41-60.42-60.41
	c-13.35,0-21.74,3.77-30.95,11.01v-52.53c10.61-3.78,18.65-4.01,32.61-4.18c58.99-0.75,106.82,47.82,106.82,106.81
	c0,8.54-1,16.85-2.9,24.81c-0.01,0.04-0.02,0.08-0.02,0.11c-0.01,0.01-0.01,0.02-0.01,0.03c-0.8,2.71-1.7,5.39-2.69,8.03
	c0.12,0.08,0.23,0.17,0.35,0.24C435.2,329.61,456.53,367.62,456.53,410.62z"/>
<g>
	<path class="st3" d="M108.2,254.45l-54.43-26.32l6.45-13.33c1.22-2.52,2.5-4.6,3.86-6.26c1.35-1.65,2.9-2.96,4.65-3.91
		c1.74-0.95,3.71-1.36,5.91-1.21c2.2,0.15,4.59,0.86,7.19,2.14c6.71,3.27,9.17,7.76,7.39,13.46c2.17-2.92,4.74-4.64,7.7-5.17
		s6.45,0.17,10.44,2.07c5.18,2.48,8.48,5.66,9.9,9.57c1.42,3.9,0.93,8.35-1.49,13.34L108.2,254.45z M80.76,228.94l1.49-3.09
		c1.41-2.91,1.75-5.21,1.03-6.91c-0.72-1.7-2.55-3.26-5.51-4.69c-1.53-0.74-2.86-1.16-3.99-1.26c-1.13-0.1-2.14,0.16-3.03,0.78
		c-0.89,0.62-1.67,1.41-2.33,2.38c-0.66,0.97-1.4,2.31-2.24,4.04l-0.67,1.38L80.76,228.94z M106,241.15l1.76-3.64
		c1.43-2.96,1.73-5.33,0.9-7.14c-0.83-1.8-2.83-3.47-6-5.01c-3.28-1.59-5.97-2.1-8.07-1.53c-2.1,0.57-3.88,2.36-5.34,5.38
		l-1.51,3.12L106,241.15z"/>
	<path class="st3" d="M136.17,206.85c-1.61,2.16-3.27,3.85-4.96,5.06s-3.38,1.98-5.06,2.32c-1.68,0.34-3.46,0.28-5.35-0.17
		c-1.89-0.46-3.76-1.18-5.61-2.18c-1.85-1-3.87-2.32-6.07-3.96l-32.18-24.01l6.39-8.56l33.09,24.69c1.13,0.84,2.12,1.53,2.96,2.07
		c0.84,0.54,1.77,1.04,2.8,1.5c1.02,0.46,1.93,0.71,2.73,0.74c0.8,0.03,1.6-0.14,2.43-0.51c0.82-0.37,1.57-1.01,2.24-1.9
		c0.67-0.9,1.06-1.79,1.19-2.69c0.12-0.9,0.05-1.71-0.22-2.44c-0.27-0.73-0.77-1.53-1.49-2.39c-0.72-0.86-1.46-1.61-2.22-2.25
		c-0.75-0.64-1.7-1.38-2.85-2.24l-33.09-24.69l6.39-8.56l32.18,24.01c2.2,1.64,4.04,3.21,5.53,4.69c1.48,1.49,2.71,3.07,3.69,4.75
		c0.97,1.68,1.54,3.37,1.7,5.07c0.16,1.7-0.1,3.53-0.78,5.49C138.9,202.65,137.76,204.71,136.17,206.85z"/>
	<path class="st3" d="M161.71,178.48c-7.77,7.28-16.06,6.61-24.86-2.01l5.63-8.02c5.64,5.67,10.04,7.03,13.2,4.07
		c1.22-1.15,1.79-2.37,1.68-3.67c-0.1-1.3-0.75-2.58-1.92-3.84c-1.15-1.22-2.42-2.14-3.82-2.74c-1.4-0.6-2.69-0.96-3.89-1.06
		c-1.19-0.1-2.78-0.12-4.76-0.07l-10.51,0.4c-3.1,0.1-5.82-0.26-8.16-1.08c-2.34-0.82-4.64-2.44-6.9-4.86
		c-3.21-3.42-4.69-7.03-4.46-10.81c0.24-3.78,2.1-7.34,5.58-10.67c1.6-1.53,3.21-2.67,4.85-3.41c1.63-0.75,3.18-1.15,4.65-1.2
		c1.46-0.05,2.96,0.19,4.48,0.73c1.52,0.54,2.94,1.25,4.26,2.13c1.32,0.88,2.68,1.96,4.09,3.24l-5.6,7.79
		c-0.87-0.85-1.65-1.57-2.34-2.15c-0.69-0.58-1.46-1.12-2.28-1.61c-0.83-0.49-1.59-0.8-2.29-0.93c-0.7-0.13-1.43-0.07-2.19,0.17
		c-0.76,0.24-1.46,0.71-2.1,1.41c-1.12,1.18-1.66,2.43-1.62,3.74c0.04,1.31,0.63,2.57,1.76,3.77c1.33,1.42,2.7,2.33,4.12,2.72
		c1.42,0.39,3.21,0.55,5.38,0.49l10.44-0.38c1.77-0.03,3.4,0.03,4.87,0.19c1.47,0.15,3.03,0.45,4.65,0.89
		c1.63,0.44,3.2,1.13,4.72,2.08c1.52,0.94,2.93,2.12,4.24,3.52c3.01,3.21,4.43,6.77,4.28,10.68
		C166.74,171.89,165.01,175.39,161.71,178.48z"/>
	<path class="st3" d="M176.61,164.97l-35.23-49.14l8.83-6.33l35.23,49.14L176.61,164.97z"/>
	<path class="st3" d="M191.39,154.12l-28.03-53.57l6.72-3.52l28.99,23.48L183.2,90.17l8.08-4.23l28.03,53.57l-6.4,3.35l-29.93-24.96
		l16.69,31.89L191.39,154.12z"/>
	<path class="st3" d="M225.75,137.19l-18.83-57.46l24.05-7.88l2.42,7.38l-13.58,4.45l5.41,16.5l10.74-3.52l2.42,7.38l-10.74,3.52
		l6.21,18.96l13.76-4.51l2.37,7.24L225.75,137.19z"/>
	<path class="st3" d="M269.32,126.54c-10.51,1.7-17.02-3.47-19.51-15.53l9.15-3.51c1.52,7.86,4.41,11.44,8.69,10.75
		c1.66-0.27,2.8-0.97,3.44-2.11c0.64-1.14,0.82-2.56,0.55-4.26c-0.27-1.66-0.81-3.12-1.64-4.41c-0.82-1.28-1.7-2.3-2.64-3.05
		c-0.93-0.75-2.24-1.65-3.91-2.71l-8.95-5.53c-2.63-1.64-4.69-3.46-6.17-5.45c-1.48-1.99-2.48-4.62-3.01-7.88
		c-0.75-4.63,0.03-8.45,2.34-11.46c2.31-3.01,5.83-4.92,10.58-5.74c2.18-0.38,4.16-0.42,5.93-0.13c1.77,0.29,3.28,0.82,4.53,1.59
		c1.25,0.77,2.35,1.81,3.31,3.1c0.96,1.3,1.75,2.68,2.35,4.14c0.61,1.47,1.13,3.12,1.58,4.97l-8.99,3.34
		c-0.24-1.19-0.49-2.22-0.74-3.09c-0.25-0.87-0.58-1.74-1-2.61c-0.41-0.87-0.87-1.55-1.39-2.05c-0.51-0.5-1.15-0.85-1.91-1.08
		c-0.76-0.22-1.61-0.22-2.53,0c-1.59,0.36-2.74,1.09-3.43,2.2s-0.91,2.48-0.65,4.11c0.31,1.92,0.94,3.44,1.9,4.55
		c0.96,1.11,2.35,2.25,4.19,3.4l8.87,5.51c1.49,0.97,2.8,1.92,3.94,2.87c1.14,0.95,2.26,2.06,3.37,3.33
		c1.1,1.27,2.02,2.73,2.76,4.36c0.73,1.63,1.25,3.39,1.56,5.29c0.7,4.34-0.1,8.09-2.41,11.25
		C277.17,123.87,273.78,125.81,269.32,126.54z"/>
	<path class="st3" d="M303.63,124.1c-10.65-0.06-16.2-6.25-16.67-18.55l9.6-1.95c0.2,8,2.46,12.01,6.78,12.04
		c1.68,0.01,2.93-0.49,3.75-1.51s1.24-2.39,1.25-4.11c0.01-1.68-0.29-3.22-0.88-4.62c-0.6-1.4-1.3-2.55-2.09-3.44
		c-0.8-0.89-1.93-2-3.41-3.32l-7.91-6.94c-2.32-2.06-4.05-4.19-5.18-6.4c-1.13-2.21-1.68-4.96-1.66-8.27
		c0.03-4.69,1.43-8.33,4.2-10.92c2.77-2.58,6.57-3.89,11.38-3.91c2.21-0.01,4.17,0.27,5.87,0.85c1.7,0.58,3.1,1.36,4.2,2.32
		c1.1,0.97,2.02,2.17,2.75,3.61c0.73,1.44,1.28,2.93,1.63,4.48c0.36,1.55,0.6,3.27,0.74,5.16l-9.42,1.8
		c-0.04-1.22-0.11-2.27-0.22-3.17c-0.1-0.9-0.29-1.81-0.55-2.74c-0.26-0.93-0.6-1.67-1.03-2.25c-0.42-0.57-0.99-1.03-1.71-1.38
		c-0.72-0.34-1.55-0.48-2.49-0.42c-1.63,0.09-2.88,0.62-3.75,1.6c-0.87,0.98-1.31,2.3-1.32,3.95c-0.01,1.95,0.36,3.55,1.12,4.8
		s1.95,2.61,3.57,4.05l7.84,6.9c1.31,1.2,2.44,2.36,3.41,3.48c0.97,1.12,1.89,2.41,2.77,3.85c0.88,1.44,1.54,3.02,2,4.75
		c0.45,1.73,0.67,3.55,0.66,5.47c-0.03,4.4-1.44,7.97-4.24,10.7C311.82,122.78,308.16,124.13,303.63,124.1z"/>
	<path class="st3" d="M340.04,126.76l14.57-58.68l10.69,2.65l-12.73,51.28l14.05,3.49l-1.84,7.4L340.04,126.76z"/>
	<path class="st3" d="M368.44,134.32l22.86-55.97l23.43,9.57l-2.94,7.19l-13.24-5.41L392,105.77l10.47,4.27l-2.94,7.19l-10.47-4.27
		l-7.54,18.47l13.4,5.47l-2.88,7.06L368.44,134.32z"/>
	<path class="st3" d="M393.17,144.17l42.07-45.13l9.79,6L423.89,163l-8.74-5.35l5.25-13.25l-8.92-5.47l-9.45,10.68L393.17,144.17z
		 M416.22,133.41l6.9,4.23l9.52-23.29L416.22,133.41z"/>
	<path class="st3" d="M437.1,175.76c-4.3-3.76-6.22-7.81-5.76-12.16c0.46-4.35,2.94-9.09,7.43-14.23l12.96-14.82
		c2.29-2.62,4.47-4.69,6.54-6.23c2.07-1.53,4.21-2.59,6.43-3.17c2.22-0.58,4.49-0.48,6.82,0.29c2.33,0.77,4.73,2.24,7.2,4.4
		c4.5,3.94,6.77,7.86,6.8,11.78c0.03,3.92-1.92,8.12-5.84,12.6l-1.94,2.22l-7.94-6.94l2.07-2.36c0.88-1.01,1.58-1.85,2.09-2.53
		c0.51-0.68,0.97-1.42,1.36-2.22c0.39-0.8,0.58-1.52,0.55-2.16c-0.03-0.64-0.23-1.31-0.6-2.03c-0.38-0.72-0.97-1.43-1.8-2.15
		c-0.62-0.54-1.25-0.95-1.86-1.22c-0.62-0.27-1.2-0.43-1.73-0.49c-0.53-0.06-1.09,0.02-1.69,0.24s-1.13,0.48-1.59,0.77
		c-0.46,0.29-1,0.72-1.61,1.28c-0.61,0.57-1.13,1.08-1.56,1.54c-0.44,0.46-0.98,1.07-1.64,1.82l-16.06,18.37
		c-2.4,2.75-3.82,5.05-4.25,6.91c-0.44,1.86,0.3,3.63,2.2,5.29c0.99,0.86,1.98,1.4,2.98,1.61c1,0.21,2.01,0.1,3.05-0.33
		c1.04-0.43,2.06-1.07,3.08-1.91c1.01-0.84,2.13-1.96,3.34-3.35l3.26-3.73l-4.91-4.3l4.68-5.35l12.38,10.83l-20.21,23.11l-5.38-4.71
		l3.43-5.14C444.97,179.56,440.87,179.05,437.1,175.76z"/>
	<path class="st3" d="M464.69,205.33c-1.63-2.15-2.8-4.2-3.5-6.16c-0.7-1.96-0.98-3.79-0.84-5.5c0.14-1.71,0.68-3.41,1.64-5.1
		c0.96-1.69,2.17-3.29,3.64-4.79c1.47-1.5,3.3-3.08,5.48-4.75l31.95-24.31l6.47,8.5l-32.85,25c-1.12,0.85-2.06,1.61-2.81,2.27
		s-1.49,1.42-2.21,2.28c-0.72,0.86-1.21,1.66-1.46,2.42c-0.25,0.76-0.31,1.58-0.18,2.47c0.13,0.89,0.53,1.79,1.21,2.68
		c0.68,0.89,1.43,1.52,2.25,1.88c0.83,0.36,1.63,0.52,2.41,0.46s1.68-0.32,2.71-0.78c1.03-0.46,1.95-0.96,2.77-1.51
		c0.82-0.55,1.8-1.26,2.94-2.12l32.85-25l6.47,8.5l-31.95,24.31c-2.19,1.66-4.2,3-6.04,4.02c-1.84,1.02-3.7,1.76-5.59,2.23
		c-1.89,0.47-3.67,0.55-5.34,0.24c-1.68-0.31-3.36-1.07-5.07-2.26C467.97,209.12,466.31,207.46,464.69,205.33z"/>
	<path class="st3" d="M478.54,223.97l53.6-27.99l11.71,22.43l-6.89,3.59l-6.62-12.67l-15.39,8.04l5.23,10.02l-6.88,3.6l-5.23-10.02
		l-17.68,9.23l6.7,12.83l-6.76,3.53L478.54,223.97z"/>
</g>
</svg>
