<svg width="43" height="58" viewBox="0 0 43 58" fill="none" xmlns="http://www.w3.org/2000/svg">
<path d="M42.7848 47.94H42.7734C42.7734 47.94 42.7836 47.9321 42.7893 47.9275C42.7213 47.9287 42.6476 47.9298 42.5751 47.9309L39.8619 47.8173C39.4528 47.807 39.0097 47.7854 38.5382 47.7479C36.7181 47.6024 35.3661 47.2887 34.2475 47.0238C32.483 46.6067 31.1638 46.1542 30.6051 45.9553C29.6236 45.6063 28.7872 45.2574 28.1231 44.9607C32.313 41.7847 37.9569 36.267 40.9613 27.9485C41.7727 25.7001 42.2068 23.7597 42.4493 22.4332C42.404 22.4332 42.3586 22.4332 42.3144 22.4343C42.3144 22.4286 42.3167 22.4229 42.3167 22.4173H36.8303C36.8281 22.4275 36.8269 22.4377 36.8247 22.4479H8.82849C8.65963 21.5681 8.5701 20.661 8.5701 19.7323C8.5701 18.8036 8.65963 17.8965 8.82849 17.0167H42.3144C41.7364 12.7756 39.8076 8.85846 36.7374 5.78022C33.0213 2.05292 28.0812 0 22.8272 0C17.5731 0 12.633 2.05292 8.91689 5.77908C7.21466 7.48644 5.86488 9.45069 4.8993 11.5854H0V17.0156H3.33987C3.2186 17.9079 3.15514 18.815 3.15514 19.7312C3.15514 20.6474 3.2186 21.5545 3.33987 22.4468H0.0305994V27.8769H4.80977C4.81431 27.8906 4.81884 27.9031 4.82337 27.9167C7.84025 36.2705 13.517 41.7972 17.7125 44.9675C17.1663 45.2164 16.4432 45.5268 15.5774 45.8416C15.1592 45.994 13.8445 46.4623 11.9372 46.9067C10.4695 47.2489 8.4239 47.6297 5.88868 47.8184L2.96587 47.94V58H42.7859V47.94H42.7848ZM22.8272 5.43011C27.6732 5.43011 31.9616 7.86837 34.5388 11.5843H11.1155C13.6927 7.86724 17.9811 5.43011 22.8272 5.43011ZM11.1404 27.9394C11.1348 27.9269 11.1291 27.9144 11.1234 27.9019C11.128 27.9031 11.1336 27.9053 11.1382 27.9065C11.1314 27.8962 11.1234 27.8872 11.1166 27.8769H34.5399C34.5184 27.9076 34.4969 27.9372 34.4753 27.9679C34.5207 27.9701 34.566 27.9747 34.6102 27.9792C34.6238 27.9735 34.6374 27.969 34.651 27.9633C34.651 27.9656 34.6487 27.9679 34.6476 27.9701C33.5279 30.3368 30.2877 36.9559 22.9167 42.0336C15.5139 36.9514 12.2636 30.3095 11.1416 27.9383L11.1404 27.9394ZM9.03135 52.6165C9.09029 52.6119 9.15035 52.6063 9.20928 52.6006L9.23082 52.6165H9.03135ZM9.60594 52.6165C10.1431 52.5415 10.6701 52.4574 11.1835 52.3653C12.624 52.1493 14.2344 51.8083 15.9593 51.2729C17.4802 50.8034 18.8458 50.2578 20.0551 49.6963C21.1453 49.2234 22.103 48.7482 22.9223 48.3095C23.3666 48.547 23.8505 48.7937 24.373 49.0449C25.8769 49.8281 27.6879 50.6227 29.7925 51.2729C31.9843 51.9527 33.9925 52.3198 35.7004 52.5153C35.9328 52.5506 36.1662 52.5847 36.4031 52.6165H9.60481H9.60594ZM36.5153 52.6165C36.5221 52.6108 36.53 52.6051 36.5368 52.6006C36.598 52.6063 36.6603 52.6119 36.7204 52.6165H36.5153ZM37.4446 52.5824V52.5642C37.4775 52.5699 37.5137 52.5767 37.5477 52.5824H37.4446Z" fill="#3D6514"/>
</svg>
