<svg width="99" height="120" viewBox="0 0 99 120" fill="none" xmlns="http://www.w3.org/2000/svg">
<path d="M87.0719 108.03L66.3049 87.2046H66.3005C73.7517 75.5933 77.6894 62.1827 77.6894 48.3909C77.6894 34.5991 73.7473 21.184 66.3005 9.58156H66.3049L66.1105 9.27577L65.8144 8.81929L65.8055 8.82815C63.8256 5.82339 61.6424 2.97374 59.2957 0.358975L58.9863 0.0132949L51.1639 7.85316L11.9281 47.1987V0H0V120H12.6926C24.002 118.936 35.0462 115.107 44.6364 108.925L44.7469 108.854L46.0064 108.039H45.9622C50.7441 104.803 55.1149 101.027 58.9731 96.7773H58.9775V96.7818L70.2029 108.039L71.0868 108.925L82.131 120H99L87.9558 108.925L87.0719 108.039V108.03ZM50.1828 88.6893C50.0326 88.8533 49.8823 89.0217 49.7276 89.1856C49.5597 89.3673 49.3917 89.5446 49.2238 89.7219C49.0691 89.8859 48.9144 90.0454 48.7597 90.205C48.5874 90.3823 48.4195 90.5507 48.2471 90.7279C48.088 90.8875 47.9333 91.047 47.7698 91.2021C47.5974 91.3705 47.4207 91.5389 47.2483 91.7073C47.0848 91.8625 46.9257 92.0176 46.7621 92.1727C46.5854 92.3411 46.4042 92.5007 46.2274 92.6646C46.0639 92.8153 45.9004 92.966 45.7324 93.1167C45.5512 93.2807 45.3656 93.4402 45.1844 93.5997C45.0165 93.746 44.853 93.8922 44.685 94.034C44.4994 94.1936 44.3094 94.3487 44.1237 94.5038C43.9558 94.6456 43.7879 94.7875 43.6199 94.9248C43.4299 95.08 43.2399 95.2306 43.0498 95.3813C42.8775 95.5187 42.7095 95.6561 42.5327 95.789C42.3383 95.9397 42.1438 96.086 41.9494 96.2322C41.777 96.3652 41.6046 96.4981 41.4279 96.6267C41.229 96.7729 41.0301 96.9192 40.8313 97.061C40.6589 97.1851 40.4821 97.3136 40.3098 97.4377C40.1065 97.5795 39.9032 97.7213 39.6999 97.8631C39.5231 97.9828 39.3507 98.1069 39.174 98.2221C38.9662 98.3639 38.7585 98.4969 38.5464 98.6343C38.3696 98.7495 38.1973 98.8647 38.0205 98.98C37.8084 99.1129 37.5962 99.2458 37.3841 99.3788C37.2073 99.4896 37.0305 99.6004 36.8493 99.7112C36.6328 99.8441 36.4162 99.9683 36.1997 100.097C36.0229 100.203 35.8461 100.309 35.6649 100.411C35.4439 100.54 35.2186 100.664 34.9976 100.788C34.8208 100.886 34.644 100.988 34.4672 101.085C34.2418 101.209 34.012 101.329 33.7822 101.453C33.6055 101.546 33.4331 101.639 33.2519 101.732C33.0177 101.852 32.7834 101.971 32.5492 102.087C32.3724 102.175 32.2001 102.264 32.0233 102.348C31.7847 102.463 31.5416 102.579 31.3029 102.689C31.1306 102.774 30.9538 102.853 30.7814 102.938C30.5384 103.048 30.2909 103.159 30.0434 103.27C29.871 103.345 29.6987 103.425 29.5263 103.5C29.2744 103.611 29.0225 103.713 28.7662 103.819C28.5938 103.89 28.4259 103.961 28.2535 104.032C27.9928 104.139 27.7276 104.24 27.4669 104.342C27.3033 104.404 27.1398 104.471 26.9719 104.533C26.6979 104.635 26.4239 104.732 26.1499 104.834C25.9908 104.892 25.8361 104.95 25.677 105.007C25.3941 105.105 25.1157 105.198 24.8329 105.295C24.6782 105.348 24.5279 105.402 24.3732 105.45C24.0816 105.543 23.7855 105.637 23.4894 105.725C23.3435 105.769 23.2021 105.818 23.0562 105.858C22.7469 105.951 22.4419 106.035 22.1326 106.124C22 106.164 21.863 106.204 21.7304 106.239C21.4078 106.328 21.0852 106.412 20.7581 106.492C20.6344 106.523 20.5151 106.558 20.3913 106.589C20.0378 106.678 19.6798 106.762 19.3262 106.842C19.2334 106.864 19.1406 106.886 19.0434 106.908C18.6545 106.997 18.2611 107.077 17.8678 107.157C17.8059 107.17 17.7485 107.183 17.6866 107.197C15.8702 107.56 14.0317 107.839 12.1756 108.034H11.9237V49.5919L34.507 72.2384L50.5275 88.3037C50.4126 88.4322 50.2933 88.5652 50.1784 88.6937L50.1828 88.6893ZM65.7304 50.3896C65.7216 50.6112 65.7083 50.8372 65.6951 51.0588C65.6774 51.502 65.6597 51.9408 65.6288 52.3839C65.6111 52.6543 65.5846 52.9202 65.5625 53.1861C65.5315 53.5805 65.5006 53.975 65.4608 54.3694C65.4343 54.6575 65.3945 54.9411 65.3636 55.2247C65.3194 55.597 65.2796 55.9737 65.231 56.346C65.1913 56.6429 65.1426 56.9354 65.0984 57.2323C65.0454 57.5913 64.9924 57.9547 64.9349 58.3137C64.8863 58.6151 64.8244 58.9164 64.7714 59.2178C64.7051 59.5679 64.6476 59.918 64.5769 60.2681C64.5151 60.5739 64.4444 60.8753 64.3781 61.1811C64.3029 61.5223 64.2322 61.868 64.1483 62.2093C64.0775 62.5151 63.9936 62.8164 63.9184 63.1222C63.8345 63.459 63.7505 63.7958 63.6577 64.1327C63.5737 64.4385 63.4809 64.7443 63.3925 65.05C63.2953 65.3824 63.2025 65.7104 63.1008 66.0428C63.008 66.3486 62.9064 66.6499 62.8048 66.9557C62.6987 67.2837 62.5926 67.6072 62.4821 67.9307C62.376 68.2321 62.2656 68.5334 62.1551 68.8348C62.0402 69.1539 61.9253 69.4774 61.8015 69.7965C61.6866 70.0979 61.5629 70.3948 61.4436 70.6917C61.3154 71.0064 61.1917 71.3255 61.0591 71.6401C60.9353 71.9371 60.8027 72.2296 60.6746 72.5265C60.5376 72.8367 60.4006 73.1514 60.2591 73.4616C60.1221 73.7541 59.9851 74.0422 59.8437 74.3347C59.6979 74.6405 59.5476 74.9507 59.3974 75.2565C59.2515 75.5445 59.1012 75.8326 58.951 76.1163C58.7919 76.4176 58.6372 76.7234 58.4693 77.0248C58.3146 77.3084 58.1555 77.5876 57.9964 77.8713C57.8727 78.0884 57.7533 78.3011 57.6296 78.5139L27.5906 48.3909L57.6296 18.2679C57.7533 18.4851 57.877 18.7022 58.0008 18.9149C58.1599 19.1941 58.3146 19.4689 58.4693 19.7525C58.6372 20.0583 58.7963 20.3641 58.9554 20.6744C59.1012 20.958 59.2515 21.2372 59.3929 21.5208C59.5476 21.8311 59.6979 22.1457 59.8481 22.4604C59.9851 22.744 60.1221 23.0321 60.2547 23.3202C60.4006 23.6348 60.5376 23.9539 60.679 24.273C60.8072 24.5611 60.9353 24.8491 61.0591 25.1416C61.1961 25.4651 61.3242 25.7887 61.4524 26.1122C61.5673 26.4047 61.6866 26.6928 61.7971 26.9853C61.9209 27.3132 62.0402 27.6456 62.1595 27.978C62.2656 28.2705 62.3716 28.5586 62.4733 28.8555C62.5882 29.1923 62.6943 29.5291 62.8048 29.8659C62.902 30.1584 62.9992 30.4509 63.0876 30.7434C63.1936 31.0847 63.2909 31.4259 63.3881 31.7672C63.4721 32.0597 63.5605 32.3566 63.64 32.6491C63.7328 32.9948 63.8168 33.3405 63.9052 33.6861C63.9803 33.9831 64.0599 34.2756 64.1306 34.5725C64.2146 34.9226 64.2897 35.2772 64.3648 35.6317C64.4267 35.9242 64.4974 36.2167 64.5548 36.5136C64.6255 36.8726 64.6918 37.2316 64.7581 37.595C64.8112 37.8875 64.8686 38.18 64.9172 38.4725C64.9791 38.8359 65.0321 39.2037 65.0852 39.5716C65.1294 39.8597 65.178 40.1477 65.2133 40.4402C65.2619 40.8169 65.3062 41.1981 65.3459 41.5748C65.3769 41.854 65.4166 42.1376 65.4432 42.4168C65.4829 42.8157 65.5139 43.2145 65.5448 43.6178C65.5669 43.8793 65.5934 44.1408 65.6111 44.4067C65.642 44.8587 65.6597 45.3064 65.6774 45.7584C65.6862 45.9711 65.7039 46.1883 65.7083 46.401C65.7304 47.0658 65.7437 47.735 65.7437 48.4042C65.7437 49.0734 65.7304 49.7382 65.7083 50.4074L65.7304 50.3896Z" fill="white"/>
</svg>
