<?xml version="1.0" encoding="UTF-8"?>
<svg id="Layer_1" data-name="Layer 1" xmlns="http://www.w3.org/2000/svg" viewBox="0 0 369.56 530.56">
  <defs>
    <style>
      .cls-1 {
        fill: #7e57c2;
        stroke-width: 0px;
      }
    </style>
  </defs>
  <polygon class="cls-1" points="26.43 389.12 -.51 354.78 345.42 83.32 346.27 253.75 302.63 253.96 302.22 172.7 26.43 389.12"/>
  <polygon class="cls-1" points="50.09 289.11 50.91 70.71 94.56 70.87 94.08 198.73 343.39 1.77 370.45 36.02 50.09 289.11"/>
  <path class="cls-1" d="m350.45,533.55l-1.29-84.47-19.7-1.65c-25.39-2.13-55.9-7.06-87.51-17.53,12.39-8.89,25.04-19.43,37.39-31.95,17.58-17.82,50.29-50.98,62.32-103.93,3.11-13.67,4.65-27.78,4.58-41.95l-43.65.2c.05,10.85-1.13,21.65-3.5,32.08-9.28,40.82-35.29,67.19-50.84,82.95-18.22,18.47-37.41,31.97-54.99,41.89-19.79-10.52-39.21-23.76-57.28-40.37-8.67-7.97-16.92-16.63-24.54-25.74l-33.49,27.99c8.83,10.57,18.42,20.62,28.48,29.87,9.5,8.74,19.59,16.88,30.19,24.43.36-.03.71-.05,1.07-.08,16.2,12.3,34.72,23.67,55.76,32.9.13-.06.26-.12.39-.18,34.12,15.29,71.82,25.68,112.25,30.83l.02,1.05H109.51c-28.11.58-56.21,1.16-84.32,1.74v41.9h325.26Z"/>
</svg>