<?xml version="1.0" encoding="utf-8"?>
<!-- Generator: Adobe Illustrator 27.4.0, SVG Export Plug-In . SVG Version: 6.00 Build 0)  -->
<svg version="1.1" id="Layer_1" xmlns="http://www.w3.org/2000/svg" xmlns:xlink="http://www.w3.org/1999/xlink" x="0px" y="0px"
	 viewBox="0 0 92.8 183.6" style="enable-background:new 0 0 92.8 183.6;" xml:space="preserve">
<style type="text/css">
	.st0{fill:#EDF3FF;}
	.st1{fill:#0180A8;}
</style>
<g>
	<g>
		<g>
			<path class="st1" d="M83.9,1.4c-3.8,0-6.9,3.1-6.9,6.9v126.9c0,7.8-2.8,15.3-8,21.1c-5.2,5.9-12.3,9.5-20,10.2
				c-8.8,0.8-17.2-2-23.6-7.9c-6.4-5.8-10.1-14.1-10.1-22.8V8.4c0-3.8-3.1-6.9-6.9-6.9H7.8C4,1.4,0.9,4.5,0.9,8.4V135
				c-0.3,25.4,20.6,46.2,45.5,46.1c24.4-0.2,44.7-20.4,44.9-45.2V8.9C91.3,4.7,88,1.4,83.9,1.4z"/>
			<path class="st1" d="M35.4,108.4V95.2V19.9c0-3.9-2.9-7.1-6.4-7.1h-0.4c-3.5,0-6.3,3.1-6.3,6.9v81.7v18.2c1.1-1.8,2.4-3.5,4-5.1
				C29.1,111.8,32.1,109.7,35.4,108.4z"/>
			<path class="st1" d="M52.6,106.9V94.3V26.4c0-4-2.9-7.2-6.5-7.2h-0.2c-3.5,0-6.3,3.1-6.3,6.9v68.2V107c2.1-0.5,4.4-0.7,6.7-0.7
				C48.5,106.3,50.6,106.5,52.6,106.9z"/>
			<path class="st1" d="M69.8,119.2v-17.9V19.9c0-4-3-7.3-6.6-7.3H63c-3.5,0-6.3,3.1-6.3,6.9v75.7v13c3.4,1.4,6.5,3.4,9.3,6.2
				C67.5,115.9,68.7,117.5,69.8,119.2z"/>
		</g>
	</g>
</g>
</svg>
