<svg width="109" height="122" viewBox="0 0 109 122" fill="none" xmlns="http://www.w3.org/2000/svg">
<path d="M107.537 75.9951V70.5582H96.5174L89.8278 63.8843H103.869V55.7289H103.815V55.7234H90.1439L96.6809 49.2018H107.613V43.7648H102.131L109 36.9115L103.221 31.1456L96.373 37.9772V32.6979H90.9232V43.4141L84.231 50.0907V36.1341H76.0564V59.2683C75.585 65.828 73.337 78.2977 63.6392 89.245C62.1214 90.9604 60.5383 92.499 58.9197 93.8882V36.2238L73.446 21.7315L69.593 17.8876L58.9225 28.5332V17.2596L66.7292 9.47119L62.8762 5.62726L58.9225 9.57177V0H50.7479V9.38963L47.0829 5.73328L43.23 9.57721L50.7506 17.0802V28.718L39.8947 17.8876L36.0418 21.7315L50.7506 36.4059V93.9806C36.5023 81.3179 33.4204 63.4059 32.8782 59.1922V36.1612H24.7036V49.8597L18.0468 43.2184V32.2629H12.597V37.7815L5.84211 31.0423L0.0626665 36.8082L6.74676 43.4767H1.50413V48.9136H12.1965L19.0522 55.7533H5.0628V63.9088H18.8615L12.0412 70.7131H1.38696V76.1501H6.59145L0 82.7261L5.77944 88.492L12.627 81.6605V87.217H18.0768V76.2235L26.2949 68.0246C27.1042 71.1508 28.2759 74.7936 29.9762 78.681C34.0199 87.9184 39.704 95.5546 46.9222 101.462C37.0227 105.882 27.7909 106.279 24.1886 106.233L20.0986 106.181L19.916 122H88.3619V106.505L84.3046 106.475C78.6368 106.434 70.6394 105.485 62.3776 101.62C64.9226 99.6215 67.4104 97.3108 69.7701 94.6466C77.5905 85.8197 81.2473 76.1664 82.9367 68.5411L90.9968 76.5823V87.2116H96.4466V82.0193L103.038 88.5953L108.817 82.8294L101.97 75.9979H107.539L107.537 75.9951ZM74.7757 113.842H32.5703C38.5923 113.043 46.5652 111.14 54.5845 106.749C61.6173 110.803 68.6529 112.863 74.7757 113.842Z" fill="#3CB9FF"/>
</svg>
