<svg width="95" height="123" viewBox="0 0 95 123" fill="none" xmlns="http://www.w3.org/2000/svg">
<g id="Clip path group">
<mask id="mask0_37_2487" style="mask-type:luminance" maskUnits="userSpaceOnUse" x="0" y="0" width="95" height="123">
<g id="clip0_567_994">
<path id="Vector" d="M94.5 0H0V122.182H94.5V0Z" fill="white"/>
</g>
</mask>
<g mask="url(#mask0_37_2487)">
<g id="Group">
<path id="Vector_2" d="M80.5817 45.6089L94.4042 49.3354L80.8349 53.4927L80.5817 45.6089Z" fill="#3D6514"/>
<path id="Vector_3" d="M72.2454 26.1951L85.5081 20.981L77.1467 32.416L72.2454 26.1951Z" fill="#3D6514"/>
<path id="Vector_4" d="M53.7272 15.6865L61.1438 3.63037L61.4276 17.7375L53.7272 15.6865Z" fill="#3D6514"/>
<path id="Vector_5" d="M32.5382 18.3109L31.1248 4.2688L39.9397 15.3682L32.5382 18.3109Z" fill="#3D6514"/>
<path id="Vector_6" d="M17.2162 33.014L7.54022 22.6433L21.3349 26.2621L17.2162 33.014Z" fill="#3D6514"/>
<path id="Vector_7" d="M13.9284 53.8759L-0.111938 51.3491L13.1077 46.0322L13.9284 53.8759Z" fill="#3D6514"/>
<path id="Vector_8" d="M27.3656 53.1793C27.3656 53.2244 67.1157 53.4298 67.1157 53.4298C67.1157 53.4298 67.3868 74.935 56.3861 87.7673C53.8573 90.7203 50.9513 93.3358 47.741 95.5486C44.371 93.3546 41.3157 90.7212 38.6576 87.7198C30.7421 78.7842 27.4643 61.1934 27.4643 61.1934H19.3587C20.0604 70.1491 23.024 82.2628 32.5304 92.9991C34.7776 95.5401 37.2653 97.8631 39.9596 99.9362C34.534 102.345 28.7123 103.764 22.7757 104.123L18.9155 104.314L19.4424 118.797H74.0004L74.507 103.728L70.7202 103.477C65.4 103.06 60.1826 101.798 55.269 99.7383C57.8097 97.6947 60.1534 95.4226 62.2701 92.9515C75.7178 77.2665 75.5405 59.0171 74.7552 51.4813V49.2626L74.6261 45.4759L66.5787 45.4183H27.8393C29.6756 36.365 37.6622 29.533 47.2065 29.533C50.2696 29.5402 53.2885 30.2558 56.022 31.6226C58.7554 32.9892 61.1276 34.9693 62.949 37.4042H72.1665C67.2906 27.1914 56.3835 20.412 44.1086 21.7594C30.5748 23.2445 19.5386 35.7438 19.5386 49.2049V51.9372L19.4576 53.1894H27.3656M66.4116 110.79H28.1078L27.2136 110.91L27.3479 110.79H28.1078C33.0521 110.119 40.3193 108.829 47.7992 104.69C53.6529 107.755 60.0001 109.794 66.5585 110.715L66.4116 110.79Z" fill="#3D6514"/>
</g>
</g>
</g>
</svg>
